<svg width="48" height="48" viewBox="0 0 48 48" fill="none" xmlns="http://www.w3.org/2000/svg">
<circle cx="24" cy="24" r="23.25" stroke="#FF2B44" stroke-width="1.5"/>
<path d="M24.4609 16.2557C26.0092 16.2557 27.1693 16.6084 27.9411 17.3139C28.7176 18.0147 29.1058 19.0374 29.1058 20.3821C29.1058 20.7135 29.0821 21.0189 29.0348 21.2983C28.9922 21.5777 28.9164 21.8499 28.8075 22.1151C28.7034 22.3802 28.5637 22.6477 28.3885 22.9176C28.218 23.1875 28.005 23.474 27.7493 23.777C27.4983 24.08 27.2024 24.4115 26.8615 24.7713C26.5206 25.1312 26.1276 25.536 25.6825 25.9858L22.7919 29.0114V29.1179H29.3402V31H19.7663V29.4091L24.6882 24.3097C24.9486 24.035 25.1854 23.7865 25.3984 23.5639C25.6162 23.3414 25.8104 23.133 25.9808 22.9389C26.156 22.7448 26.3075 22.5578 26.4354 22.3778C26.5679 22.1932 26.6768 22.0038 26.7621 21.8097C26.8473 21.6155 26.9112 21.4096 26.9538 21.1918C26.9964 20.9692 27.0178 20.7206 27.0178 20.446C27.0178 19.9962 26.968 19.6198 26.8686 19.3168C26.7692 19.0137 26.6129 18.7723 26.3999 18.5923C26.1915 18.4077 25.924 18.2775 25.5973 18.2017C25.2706 18.1259 24.8776 18.0881 24.4183 18.0881C23.9354 18.0881 23.5305 18.133 23.2038 18.223C22.8771 18.313 22.612 18.4598 22.4084 18.6634C22.2048 18.867 22.0604 19.1345 21.9751 19.4659C21.8899 19.7926 21.8473 20.1951 21.8473 20.6733H19.7521C19.7521 19.1676 20.1522 18.0549 20.9524 17.3352C21.7526 16.6155 22.9221 16.2557 24.4609 16.2557Z" fill="white"/>
</svg>
