<svg width="32" height="33" viewBox="0 0 32 33" fill="none" xmlns="http://www.w3.org/2000/svg">
<rect y="0.5" width="32" height="32" rx="16" fill="#FF2B44"/>
<path d="M11.6731 12.8643L14.0799 14.5499C15.0106 15.2017 15.476 15.5276 16 15.5276C16.524 15.5276 16.9894 15.2017 17.9201 14.5499L20.3269 12.8643M14.6154 23.1673H17.9615C19.9002 23.1673 20.8695 23.1673 21.61 22.771C22.2613 22.4223 22.7908 21.8661 23.1227 21.1818C23.5 20.404 23.5 19.3857 23.5 17.3491V15.6522C23.5 13.6156 23.5 12.5973 23.1227 11.8195C22.7908 11.1352 22.2613 10.579 21.61 10.2303C20.8695 9.83398 19.9002 9.83398 17.9615 9.83398H14.6154C12.6767 9.83398 11.1305 9.83398 10.39 10.2303C9.7387 10.579 9.20915 11.1352 8.87729 11.8195C8.5 12.5973 8.5 13.6156 8.5 15.6522V17.3491C8.5 19.3857 8.5 20.404 8.87729 21.1818C9.20915 21.8661 9.7387 22.4223 10.39 22.771C11.1305 23.1673 12.6767 23.1673 14.6154 23.1673Z" stroke="white" stroke-width="2" stroke-linecap="round"/>
</svg>
