<svg width="32" height="33" viewBox="0 0 32 33" fill="none" xmlns="http://www.w3.org/2000/svg">
<rect y="0.5" width="32" height="32" rx="16" fill="#FF2B44"/>
<path d="M13.6131 10.1808L13.3116 9.88468C13.1081 9.68459 13.0064 9.58457 12.91 9.51124C12.1994 8.97055 11.195 8.98212 10.4716 9.539C10.3735 9.61453 10.2694 9.71627 10.0612 9.92101C8.95165 11.1091 9.81196 13.9187 10.0103 14.316C10.0103 14.316 10.4 15.701 13.2118 18.4658C16.0236 21.2307 17.7334 21.9104 17.7334 21.9104C18.7198 22.3483 20.9945 22.9512 22.2026 21.86C22.4107 21.6553 22.5147 21.5528 22.5915 21.4563C23.1577 20.7449 23.1691 19.7569 22.6192 19.0581C22.5446 18.9633 22.443 18.8632 22.2395 18.6631L21.9383 18.3669C21.6107 18.0447 21.3938 17.8317 21.2079 17.6862C21.0494 17.5621 20.8516 17.5002 20.6498 17.4623C19.7774 17.2985 18.3452 18.0585 17.4589 17.9644C17.3671 17.9547 17.2759 17.939 17.1854 17.9178C17.093 17.896 17.0028 17.8687 16.9173 17.8286C16.6515 17.7035 16.0107 17.3601 15.3241 16.6849C14.4353 15.811 14.19 15.0916 14.1836 15.0726L14.1833 15.0713C14.1096 14.8472 14.0713 14.6158 14.0665 14.3838C14.0485 13.527 14.7583 12.1463 14.5265 11.3305C14.4922 11.2097 14.4481 11.0913 14.3752 10.99C14.2279 10.7856 13.9964 10.5577 13.6131 10.1808Z" stroke="white" stroke-width="2"/>
</svg>
