<svg width="300" height="40" viewBox="0 0 300 40" fill="none" xmlns="http://www.w3.org/2000/svg">
<g clip-path="url(#clip0_2035_10491)">
<path fill-rule="evenodd" clip-rule="evenodd" d="M0.0285303 3.72926C0.0839174 7.17926 0.114514 7.51434 0.436794 8.20155C0.984231 9.36828 1.65641 10.1045 2.62984 10.604L3.5289 11.0653L17.5326 11.1098L31.5362 11.1542V7.63221C31.5362 3.37631 31.3864 2.74369 30.0543 1.37778C28.6258 -0.0869699 29.6466 -0.000248615 13.8417 -0.000248615H-0.03125L0.0285303 3.72926ZM283.309 4.43795C282.49 5.11139 282.965 6.55713 284.007 6.55713C284.541 6.55713 285.049 6.11549 285.18 5.53664C285.262 5.1786 285.187 4.99155 284.807 4.59401C284.249 4.01123 283.876 3.97221 283.309 4.43795ZM47.6174 4.94582C47.5737 5.06565 47.5561 12.1719 47.5784 20.7375L47.6189 36.3112L53.8166 36.3596C60.4079 36.4112 62.7456 36.2758 64.6164 35.7342C67.8768 34.7901 70.0515 32.6134 70.8445 29.5006C71.1295 28.3814 71.1394 25.9188 70.863 24.835C70.1934 22.2075 68.5437 20.3776 65.9204 19.3527L64.9763 18.9839L66.0528 18.4212C67.2825 17.7784 67.9653 17.0466 68.5497 15.745C68.9264 14.9058 68.9578 14.6647 68.9578 12.6138V10.392L68.3669 9.14319C67.398 7.09533 65.753 5.83778 63.1523 5.1568C62.2087 4.90975 61.0432 4.85926 54.8755 4.7986C49.0023 4.74074 47.6826 4.76762 47.6174 4.94582ZM98.691 20.5735V36.3932H101.751H104.81V20.5735V4.75385H101.751H98.691V20.5735ZM124.109 10.4275V16.1011L123.585 15.3057C122.96 14.3583 121.444 13.2291 120.302 12.8607C119.036 12.4522 117.009 12.377 115.731 12.6912C113.913 13.1379 112.718 13.8383 111.359 15.253C110.349 16.3048 110.024 16.7829 109.453 18.0555C108.299 20.6265 107.899 23.5125 108.253 26.7252C108.772 31.4389 110.961 34.7598 114.479 36.1686C115.754 36.6793 118.202 36.8765 119.541 36.5765C121.236 36.1968 123.135 34.9071 123.762 33.7104L124.031 33.1965L124.109 34.7538L124.188 36.3112L127.208 36.3558L130.229 36.4002V20.5771V4.75385H127.169H124.109V10.4275ZM144.35 20.5743V36.4229L151.842 36.3478C158.791 36.2781 159.436 36.2475 160.732 35.9247C164.283 35.0402 166.449 33.0932 167.507 29.8358C167.938 28.5098 167.898 25.5296 167.432 24.1801C166.988 22.896 166.193 21.6593 165.348 20.9389C164.616 20.3153 163.054 19.4373 162.353 19.2558C161.682 19.082 161.712 18.9183 162.471 18.6155C163.392 18.2481 164.674 17.026 165.129 16.083C165.852 14.5822 166.048 12.3568 165.612 10.6052C164.9 7.75008 163.218 6.11385 160.063 5.20614C158.943 4.88401 158.385 4.8568 151.607 4.79352L144.35 4.72582V20.5743ZM251.193 10.4506C251.185 15.862 251.172 16.1268 250.919 15.7375C250.247 14.7035 249.36 13.8929 248.316 13.3568C246.923 12.642 245.676 12.395 244.062 12.5138C239.964 12.8157 236.918 15.6179 235.635 20.2683C235.323 21.3988 235.279 21.9299 235.277 24.5899C235.275 28.0768 235.446 29.0199 236.49 31.3112C236.993 32.4166 237.371 32.9599 238.318 33.9398C240.238 35.9261 242.072 36.7211 244.735 36.7211C247.351 36.7211 249.35 35.7353 250.709 33.775L251.201 33.0653V34.7293V36.3932H254.261H257.321V20.5735V4.75385H254.261H251.201L251.193 10.4506ZM296.233 6.47516V7.54073H295.605H294.978V8.44237V9.34401H295.605H296.233L296.233 11.5981C296.233 14.1555 296.397 14.7243 297.315 15.3653C297.74 15.6619 298.067 15.7375 298.923 15.7375H299.999V14.8358V13.9342H299.461C298.534 13.9342 298.429 13.6771 298.429 11.3904V9.36205L299.175 9.31205L299.92 9.26205L299.967 8.40139L300.015 7.54073H299.222H298.429V6.47516V5.40959H297.331H296.233V6.47516ZM290.119 7.74565C289.692 7.97483 289.322 8.3309 289.145 8.68565L288.858 9.25696V8.39877V7.54073H287.76H286.662V11.5571V15.5735H287.76H288.858V13.0402C288.858 11.5884 288.93 10.3425 289.026 10.1216C289.262 9.58106 289.721 9.32467 290.472 9.31369C290.983 9.30647 291.192 9.39565 291.478 9.74319C291.824 10.1627 291.84 10.3004 291.84 12.8778V15.5735H292.938H294.036V12.5755C294.036 9.79237 294.011 9.525 293.683 8.84598C293.276 8.00319 292.29 7.3768 291.369 7.3768C291.06 7.3768 290.498 7.54287 290.119 7.74565ZM282.896 11.5571V15.5735H283.994H285.093V11.5571V7.54073H283.994H282.896V11.5571ZM53.9734 14.0071V17.5407L57.1508 17.5371C59.8936 17.534 60.4148 17.4924 60.9621 17.2325C62.2451 16.6237 62.8318 15.4253 62.7339 13.6142C62.6614 12.2753 62.163 11.3627 61.2442 10.886C60.7198 10.614 60.2105 10.5671 57.3077 10.5235L53.9734 10.4735V14.0071ZM150.626 14.025V17.5584L154.051 17.5086L157.475 17.4588L158.127 17.0078C159.272 16.2157 159.829 14.3927 159.415 12.7925C159.178 11.8757 158.289 10.9183 157.448 10.6743C157.09 10.5706 155.502 10.493 153.725 10.4925L150.626 10.4916V14.025ZM81.8334 12.7181C77.7301 13.6793 74.9115 16.4971 73.812 20.7375C73.4622 22.0866 73.3374 25.584 73.5827 27.1719C74.2749 31.656 76.6941 34.7952 80.4939 36.1404C81.6147 36.5371 82.1469 36.6227 83.878 36.6843C85.6019 36.7458 86.1442 36.7022 87.2515 36.4134C91.0063 35.4337 93.6372 32.8109 94.759 28.9286C95.4045 26.6947 95.4437 22.9319 94.8459 20.5735C93.9113 16.885 91.4413 14.1793 87.9431 13.0119C86.3163 12.4689 83.4794 12.3325 81.8334 12.7181ZM194.173 12.6302C189.696 13.3638 187.499 15.6407 187.499 19.5443C187.499 20.8263 187.507 20.8553 187.852 20.7588C188.046 20.7045 189.302 20.6589 190.644 20.6578L193.082 20.6555L193.261 19.7648C193.611 18.0201 194.438 17.3742 196.482 17.2466C199.103 17.083 200.365 18.1388 200.365 20.495C200.365 21.3868 200.046 21.9176 199.318 22.2352C199.024 22.3635 197.391 22.6894 195.69 22.9594C190.837 23.7298 189.19 24.3163 187.795 25.772C186.739 26.8743 186.347 28.0086 186.333 29.9998C186.317 32.524 186.963 34.0801 188.557 35.3501C189.687 36.2509 190.799 36.5952 192.861 36.6827C194.41 36.7486 194.857 36.7081 195.763 36.4198C197.593 35.8375 198.985 34.6835 199.941 32.9558L200.443 32.0489L200.487 34.2211L200.531 36.3932H203.429H206.327V27.4932C206.327 18.0091 206.3 17.6165 205.537 16.0535C204.828 14.6029 203.138 13.3819 201.111 12.8571C199.93 12.5514 195.532 12.4075 194.173 12.6302ZM222.505 12.6252C220.121 13.1522 217.912 15.2307 217.407 17.4245C217.169 18.4558 216.996 17.5709 216.996 15.3179V12.9506H213.936H210.875L210.915 24.6309L210.956 36.3112L213.965 36.3557L216.974 36.4002L217.029 28.9786C217.081 21.9475 217.1 21.5155 217.404 20.7645C218.172 18.863 219.495 17.9675 221.547 17.9601C222.194 17.9578 222.976 18.0484 223.286 18.1619C224.024 18.4322 224.81 19.2468 225.219 20.1637C225.534 20.8707 225.551 21.2209 225.626 28.6063L225.705 36.3112L228.731 36.3558L231.758 36.4002L231.711 27.5853C231.664 18.9132 231.658 18.7524 231.306 17.6653C230.577 15.4083 229.068 13.7307 227.055 12.9378C226.051 12.5427 223.631 12.3765 222.505 12.6252ZM268.069 12.5504C267.896 12.5919 267.366 12.707 266.892 12.806C265.579 13.0798 263.867 13.9742 262.961 14.8594C261.48 16.3071 260.815 18.4017 261.114 20.6816C261.293 22.0534 261.716 22.9625 262.656 24.0017C263.821 25.2886 265.202 25.9457 268.249 26.662C271.936 27.5293 272.381 27.6765 272.877 28.1955C273.25 28.585 273.325 28.8001 273.325 29.4827C273.325 30.9799 272.204 31.8065 270.117 31.8475C267.925 31.8907 266.487 31.0393 266.083 29.4593L265.885 28.6883H263.172H260.459V29.3096C260.459 30.1655 260.846 31.6427 261.336 32.6517C262.236 34.5079 264.315 35.9461 266.874 36.4835C268.536 36.8325 272.42 36.7381 273.874 36.3132C276.324 35.5973 278.127 34.1986 279.006 32.3325C279.46 31.3698 279.523 31.0634 279.573 29.5994C279.645 27.5066 279.296 26.4016 278.166 25.1539C276.844 23.693 275.612 23.1504 271.499 22.2161C270.044 21.8857 268.551 21.4655 268.182 21.2825C267.4 20.8947 267.049 20.2932 267.049 19.3396C267.049 18.1142 268.154 17.3798 270 17.3778C271.957 17.3755 273.28 18.2217 273.663 19.7206L273.861 20.4916H276.417C279.362 20.4916 279.151 20.6557 278.75 18.677C278.152 15.734 276.267 13.7129 273.318 12.853C272.49 12.6116 268.717 12.394 268.069 12.5504ZM181.674 13.0598C180.136 13.5963 178.766 15.047 178.047 16.9001C177.823 17.4779 177.581 18.0981 177.509 18.2784C177.43 18.4755 177.361 17.4779 177.335 15.7784L177.292 12.9506H174.236H171.181V24.6719V36.3932H174.229H177.277L177.335 30.1227C177.391 24.1998 177.413 23.7924 177.737 22.7727C178.704 19.7347 181.031 18.1917 184.35 18.3876L185.459 18.453V15.7194C185.459 13.3778 185.423 12.9714 185.211 12.8861C184.732 12.694 182.393 12.8089 181.674 13.0598ZM3.20003 14.7255C0.787003 15.597 -0.428844 18.3217 0.154367 21.5509C0.486689 23.3912 1.79307 24.9314 3.42267 25.4042C3.79485 25.5124 8.85374 25.572 17.6826 25.5725L31.3653 25.5735L31.1319 24.8822C30.3403 22.5378 28.258 20.6161 26.0446 20.187C25.3515 20.0525 25.3473 20.0478 25.8092 19.9293C27.559 19.4804 28.7805 18.7834 29.719 17.6979C30.2433 17.0916 31.0531 15.596 31.291 14.7948L31.4005 14.426L17.7 14.4314C5.03251 14.4363 3.93936 14.4584 3.20003 14.7255ZM83.1158 18.047C80.9378 18.583 79.5695 20.414 79.2295 23.2468C78.9066 25.9368 79.5171 28.507 80.7965 29.8437C82.5689 31.6953 85.7816 31.8288 87.6313 30.1275C89.3804 28.5189 90.0623 24.8501 89.1929 21.7255C88.4124 18.9204 85.8554 17.3727 83.1158 18.047ZM117.826 18.0817C116.38 18.5096 115.262 19.5422 114.602 21.0578C113.599 23.365 113.752 26.8798 114.942 28.866C116.581 31.602 120.182 32.1488 122.429 30.003C125.58 26.9935 124.841 20.023 121.191 18.3361C120.31 17.9293 118.741 17.8106 117.826 18.0817ZM244.659 18.1639C242.135 19.106 241.009 21.1152 241.005 24.683C241.002 27.2101 241.602 28.8961 242.928 30.0816C244.735 31.6976 247.621 31.7025 249.421 30.0929C250.174 29.4189 250.941 27.9612 251.206 26.6973C251.492 25.3389 251.332 22.6216 250.897 21.4347C249.918 18.7648 247.061 17.2668 244.659 18.1639ZM53.9734 26.212V30.6555H57.3392C61.1223 30.6555 61.9749 30.5245 63.0306 29.7807C64.1203 29.013 64.5652 28.006 64.5616 26.3157C64.5583 24.7553 64.1617 23.7275 63.2647 22.955C62.2012 22.0389 61.6244 21.9253 57.6215 21.8432L53.9734 21.7684V26.212ZM150.731 21.9124C150.673 21.9724 150.626 23.9699 150.626 26.3512V30.6807L154.51 30.6252C158.206 30.5724 158.429 30.5514 159.134 30.187C160.058 29.7093 160.909 28.7419 161.127 27.9212C161.336 27.1352 161.344 25.5019 161.142 24.767C160.746 23.3242 159.529 22.3165 157.776 21.9812C156.772 21.7893 150.903 21.7319 150.731 21.9124ZM199.737 25.9894C199.521 26.1089 198.144 26.4378 196.677 26.7202C193.893 27.2565 193.319 27.4811 192.771 28.2494C192.313 28.892 192.313 30.2878 192.771 30.9304C193.382 31.7868 194.023 32.0489 195.504 32.0486C196.699 32.0484 196.954 31.9909 197.891 31.5089C199.062 30.9063 199.965 29.9394 200.207 29.0268C200.389 28.3457 200.42 25.7293 200.247 25.7548C200.182 25.7643 199.953 25.8699 199.737 25.9894ZM3.8427 28.9604C2.67503 29.2363 1.53559 29.9968 0.943907 30.8955C0.142443 32.1125 -0.00143829 32.9911 -0.00143829 36.6689V39.9998H15.7781H31.5574L31.5077 36.2702C31.4581 32.5691 31.4545 32.5337 31.02 31.6093C30.524 30.554 29.7638 29.784 28.7199 29.2794C28.0151 28.9386 27.8502 28.9339 16.0812 28.9102C9.52262 28.897 4.0153 28.9196 3.8427 28.9604Z" fill="#FF2B44"/>
</g>
<defs>
<clipPath id="clip0_2035_10491">
<rect width="300" height="40" fill="white"/>
</clipPath>
</defs>
</svg>
