<svg width="51" height="49" viewBox="0 0 51 49" fill="none" xmlns="http://www.w3.org/2000/svg">
<path d="M18.2422 34.2253V29.8438" stroke="#2A2D35" stroke-width="2" stroke-miterlimit="10" stroke-linecap="round" stroke-linejoin="round"/>
<path d="M16.7256 34.2812H24.0528" stroke="#2A2D35" stroke-width="2" stroke-miterlimit="10" stroke-linecap="round" stroke-linejoin="round"/>
<path d="M32.8341 22.9206L32.8342 16.2553C32.8342 14.4315 31.359 12.9531 29.5394 12.9531H15.1522C13.3326 12.9532 11.8574 14.4316 11.8574 16.2553V26.4884C11.8574 28.3121 13.3326 29.7905 15.1522 29.7905H22.3457" stroke="#2A2D35" stroke-width="2" stroke-miterlimit="10" stroke-linecap="round" stroke-linejoin="round"/>
<path d="M29.8469 37.0439C31.5422 37.0439 32.9165 33.7698 32.9165 29.731C32.9165 25.6921 31.5422 22.418 29.8469 22.418C28.1516 22.418 26.7773 25.6921 26.7773 29.731C26.7773 33.7698 28.1516 37.0439 29.8469 37.0439Z" stroke="#2A2D35" stroke-width="2" stroke-miterlimit="10" stroke-linecap="round" stroke-linejoin="round"/>
<path d="M22.6208 29.731H37.1432C37.1432 25.6921 33.8764 22.418 29.8465 22.418C25.8166 22.418 22.5498 25.6921 22.5498 29.731C22.5498 33.7698 25.8166 37.0439 29.8465 37.0439C31.7652 37.0439 33.5109 36.3017 34.8135 35.0881" stroke="#2A2D35" stroke-width="2" stroke-miterlimit="10" stroke-linecap="round" stroke-linejoin="round"/>
<mask id="path-7-outside-1_2765_7467" maskUnits="userSpaceOnUse" x="29" y="0" width="22" height="22" fill="black">
<rect fill="white" x="29" width="22" height="22"/>
<path fill-rule="evenodd" clip-rule="evenodd" d="M32.5607 1.43934C31.9749 0.853553 31.0251 0.853553 30.4393 1.43934C29.8536 2.02513 29.8536 2.97487 30.4393 3.56066L37.4787 10.6L30.4393 17.6393C29.8536 18.2251 29.8536 19.1749 30.4393 19.7607C31.0251 20.3464 31.9749 20.3464 32.5607 19.7607L39.6 12.7213L46.6393 19.7607C47.2251 20.3464 48.1749 20.3464 48.7607 19.7607C49.3464 19.1749 49.3464 18.2251 48.7607 17.6393L41.7213 10.6L48.7607 3.56066C49.3464 2.97487 49.3464 2.02513 48.7607 1.43934C48.1749 0.853553 47.2251 0.853553 46.6393 1.43934L39.6 8.47868L32.5607 1.43934Z"/>
</mask>
<path fill-rule="evenodd" clip-rule="evenodd" d="M32.5607 1.43934C31.9749 0.853553 31.0251 0.853553 30.4393 1.43934C29.8536 2.02513 29.8536 2.97487 30.4393 3.56066L37.4787 10.6L30.4393 17.6393C29.8536 18.2251 29.8536 19.1749 30.4393 19.7607C31.0251 20.3464 31.9749 20.3464 32.5607 19.7607L39.6 12.7213L46.6393 19.7607C47.2251 20.3464 48.1749 20.3464 48.7607 19.7607C49.3464 19.1749 49.3464 18.2251 48.7607 17.6393L41.7213 10.6L48.7607 3.56066C49.3464 2.97487 49.3464 2.02513 48.7607 1.43934C48.1749 0.853553 47.2251 0.853553 46.6393 1.43934L39.6 8.47868L32.5607 1.43934Z" fill="#FF2B44"/>
<path d="M30.4393 1.43934L31.1464 2.14645L31.1464 2.14645L30.4393 1.43934ZM32.5607 1.43934L31.8536 2.14645V2.14645L32.5607 1.43934ZM30.4393 3.56066L31.1464 2.85355H31.1464L30.4393 3.56066ZM37.4787 10.6L38.1858 11.3071L38.8929 10.6L38.1858 9.89289L37.4787 10.6ZM30.4393 17.6393L29.7322 16.9322L29.7322 16.9322L30.4393 17.6393ZM30.4393 19.7607L31.1464 19.0536L31.1464 19.0536L30.4393 19.7607ZM39.6 12.7213L40.3071 12.0142L39.6 11.3071L38.8929 12.0142L39.6 12.7213ZM46.6393 19.7607L45.9322 20.4678H45.9322L46.6393 19.7607ZM48.7607 19.7607L48.0536 19.0536L48.0536 19.0536L48.7607 19.7607ZM48.7607 17.6393L49.4678 16.9322V16.9322L48.7607 17.6393ZM41.7213 10.6L41.0142 9.89289L40.3071 10.6L41.0142 11.3071L41.7213 10.6ZM48.7607 3.56066L48.0536 2.85355L48.0536 2.85355L48.7607 3.56066ZM48.7607 1.43934L48.0536 2.14645L48.0536 2.14645L48.7607 1.43934ZM46.6393 1.43934L47.3464 2.14645V2.14645L46.6393 1.43934ZM39.6 8.47868L38.8929 9.18579L39.6 9.89289L40.3071 9.18579L39.6 8.47868ZM31.1464 2.14645C31.3417 1.95118 31.6583 1.95118 31.8536 2.14645L33.2678 0.732233C32.2915 -0.244078 30.7085 -0.244078 29.7322 0.732233L31.1464 2.14645ZM31.1464 2.85355C30.9512 2.65829 30.9512 2.34171 31.1464 2.14645L29.7322 0.732233C28.7559 1.70854 28.7559 3.29146 29.7322 4.26777L31.1464 2.85355ZM38.1858 9.89289L31.1464 2.85355L29.7322 4.26777L36.7716 11.3071L38.1858 9.89289ZM36.7716 9.89289L29.7322 16.9322L31.1464 18.3464L38.1858 11.3071L36.7716 9.89289ZM29.7322 16.9322C28.7559 17.9085 28.7559 19.4915 29.7322 20.4678L31.1464 19.0536C30.9512 18.8583 30.9512 18.5417 31.1464 18.3464L29.7322 16.9322ZM29.7322 20.4678C30.7085 21.4441 32.2915 21.4441 33.2678 20.4678L31.8536 19.0536C31.6583 19.2488 31.3417 19.2488 31.1464 19.0536L29.7322 20.4678ZM33.2678 20.4678L40.3071 13.4284L38.8929 12.0142L31.8536 19.0536L33.2678 20.4678ZM47.3464 19.0536L40.3071 12.0142L38.8929 13.4284L45.9322 20.4678L47.3464 19.0536ZM48.0536 19.0536C47.8583 19.2488 47.5417 19.2488 47.3464 19.0536L45.9322 20.4678C46.9085 21.4441 48.4915 21.4441 49.4678 20.4678L48.0536 19.0536ZM48.0536 18.3464C48.2488 18.5417 48.2488 18.8583 48.0536 19.0536L49.4678 20.4678C50.4441 19.4915 50.4441 17.9085 49.4678 16.9322L48.0536 18.3464ZM41.0142 11.3071L48.0536 18.3464L49.4678 16.9322L42.4284 9.89289L41.0142 11.3071ZM42.4284 11.3071L49.4678 4.26777L48.0536 2.85355L41.0142 9.89289L42.4284 11.3071ZM49.4678 4.26777C50.4441 3.29146 50.4441 1.70854 49.4678 0.732233L48.0536 2.14645C48.2488 2.34171 48.2488 2.65829 48.0536 2.85355L49.4678 4.26777ZM49.4678 0.732234C48.4915 -0.244078 46.9085 -0.244078 45.9322 0.732234L47.3464 2.14645C47.5417 1.95118 47.8583 1.95118 48.0536 2.14645L49.4678 0.732234ZM45.9322 0.732233L38.8929 7.77157L40.3071 9.18579L47.3464 2.14645L45.9322 0.732233ZM31.8536 2.14645L38.8929 9.18579L40.3071 7.77157L33.2678 0.732233L31.8536 2.14645Z" fill="#FAFAFC" mask="url(#path-7-outside-1_2765_7467)"/>
</svg>
