<svg width="118" height="118" viewBox="0 0 118 118" fill="none" xmlns="http://www.w3.org/2000/svg">
    <rect x="0.5" y="0.5" width="117" height="117" rx="23.5" stroke="#D1D7E2"/>
    <path d="M30.7188 66.5312C30.7188 69.1202 28.62 71.2188 26.0312 71.2188C23.4425 71.2188 21.3438 69.1202 21.3438 66.5312C21.3438 63.9423 23.4425 61.8438 26.0312 61.8438C28.62 61.8438 30.7188 63.9423 30.7188 66.5312Z" stroke="#FF2B44" stroke-miterlimit="10"/>
    <path d="M30.7188 29.0312C30.7188 31.62 28.62 33.7188 26.0312 33.7188C23.4425 33.7188 21.3438 31.62 21.3438 29.0312C21.3438 26.4423 23.4425 24.3438 26.0312 24.3438C28.62 24.3438 30.7188 26.4423 30.7188 29.0312Z" stroke="#FF2B44" stroke-miterlimit="10"/>
    <path d="M96.6562 66.5312C96.6562 69.1202 94.5575 71.2188 91.9688 71.2188C89.38 71.2188 87.2812 69.1202 87.2812 66.5312C87.2812 63.9423 89.38 61.8438 91.9688 61.8438C94.5575 61.8438 96.6562 63.9423 96.6562 66.5312Z" stroke="#FF2B44" stroke-miterlimit="10"/>
    <path d="M96.6562 29.0312C96.6562 31.62 94.5575 33.7188 91.9688 33.7188C89.38 33.7188 87.2812 31.62 87.2812 29.0312C87.2812 26.4423 89.38 24.3438 91.9688 24.3438C94.5575 24.3438 96.6562 26.4423 96.6562 29.0312Z" stroke="#FF2B44" stroke-miterlimit="10"/>
    <path d="M91.9687 61.8438C91.9687 45.3134 79.5889 31.638 63.6875 29.3636" stroke="#FF2B44" stroke-miterlimit="10"/>
    <path d="M54.3125 29.3636C38.4111 31.6381 26.0312 45.3134 26.0312 61.8438" stroke="#FF2B44" stroke-miterlimit="10"/>
    <path d="M63.6875 33.7188H54.3125V24.3438H63.6875V33.7188Z" stroke="#FF2B44" stroke-miterlimit="10"/>
    <path d="M30.7188 29.0312H54.3125" stroke="#FF2B44" stroke-miterlimit="10"/>
    <path d="M63.6875 29.0312H87.2812" stroke="#FF2B44" stroke-miterlimit="10"/>
    <path d="M63.6875 85.2812L73.0625 66.5312L59 43.0938L44.9375 66.5312L54.3125 85.2812" stroke="#FF2B44" stroke-miterlimit="10"/>
    <path d="M73.0625 94.6562H44.9375V85.2812H73.0625V94.6562Z" stroke="#FF2B44" stroke-miterlimit="10"/>
    <path d="M59 43.0938V68.875" stroke="#FF2B44" stroke-miterlimit="10"/>
</svg>
