<svg width="422" height="422" viewBox="0 0 422 422" fill="none" xmlns="http://www.w3.org/2000/svg">
<g filter="url(#filter0_i_2765_7260)">
<rect x="197.049" width="5.23141" height="19.1029" rx="2.6157" fill="#FF2B44"/>
<rect width="5.1404" height="17.9272" rx="2.5702" transform="matrix(0.966192 0.257825 -0.259816 0.965658 252.939 4.1875)" fill="#FF2B44"/>
<rect width="5.13653" height="17.9408" rx="2.56826" transform="matrix(0.866916 0.498454 -0.501547 0.86513 305.184 22.1055)" fill="#FF2B44"/>
<rect width="5.13124" height="17.9593" rx="2.56562" transform="matrix(0.708563 0.705647 -0.708563 0.705647 350.988 52.8789)" fill="#FF2B44"/>
<rect width="5.12595" height="17.9778" rx="2.56297" transform="matrix(0.501547 0.86513 -0.866916 0.498454 387.238 94.4102)" fill="#FF2B44"/>
<rect width="5.12207" height="17.9914" rx="2.56104" transform="matrix(0.259816 0.965658 -0.966192 0.257825 411.459 143.867)" fill="#FF2B44"/>
<rect x="422" y="197.977" width="5.20988" height="17.438" rx="2.60494" transform="rotate(90 422 197.977)" fill="#FF2B44"/>
<rect width="5.12207" height="17.9914" rx="2.56104" transform="matrix(-0.259816 0.965658 -0.966192 -0.257825 418.143 252.773)" fill="#696B74"/>
<rect width="5.12595" height="17.9778" rx="2.56297" transform="matrix(-0.501547 0.86513 -0.866916 -0.498454 400.152 304.805)" fill="#696B74"/>
<rect width="5.13124" height="17.9593" rx="2.56562" transform="matrix(-0.708563 0.705647 -0.708563 -0.705647 369.252 350.422)" fill="#696B74"/>
<rect width="5.13653" height="17.9408" rx="2.56826" transform="matrix(-0.866916 0.498454 -0.501547 -0.86513 327.551 386.523)" fill="#696B74"/>
<rect width="5.1404" height="17.9272" rx="2.5702" transform="matrix(-0.966192 0.257825 -0.259816 -0.965658 277.887 410.645)" fill="#696B74"/>
<rect x="223.207" y="422" width="5.23141" height="19.1029" rx="2.6157" transform="rotate(-180 223.207 422)" fill="#696B74"/>
<rect width="5.1404" height="17.9272" rx="2.5702" transform="matrix(-0.966192 -0.257825 0.259816 -0.965658 168.527 417.305)" fill="#696B74"/>
<rect width="5.13653" height="17.9408" rx="2.56826" transform="matrix(-0.866916 -0.498454 0.501547 -0.86513 116.281 399.383)" fill="#696B74"/>
<rect width="5.13124" height="17.9593" rx="2.56562" transform="matrix(-0.708563 -0.705647 0.708563 -0.705647 70.4766 368.609)" fill="#696B74"/>
<rect width="5.12595" height="17.9778" rx="2.56297" transform="matrix(-0.501547 -0.86513 0.866916 -0.498454 34.2266 327.086)" fill="#696B74"/>
<rect width="5.12207" height="17.9914" rx="2.56104" transform="matrix(-0.259816 -0.965658 0.966191 -0.257825 10.0078 277.625)" fill="#696B74"/>
<rect y="224.023" width="5.20988" height="17.438" rx="2.60494" transform="rotate(-90 0 224.023)" fill="#696B74"/>
<rect width="5.12207" height="17.9914" rx="2.56104" transform="matrix(0.259816 -0.965658 0.966191 0.257825 3.32227 168.715)" fill="#696B74"/>
<rect width="5.12595" height="17.9778" rx="2.56297" transform="matrix(0.501547 -0.86513 0.866916 0.498454 21.3105 116.684)" fill="#696B74"/>
<rect width="5.13124" height="17.9593" rx="2.56562" transform="matrix(0.708563 -0.705647 0.708563 0.705647 52.2148 71.0664)" fill="#696B74"/>
<rect width="5.13653" height="17.9408" rx="2.56826" transform="matrix(0.866916 -0.498454 0.501547 0.86513 93.916 34.9648)" fill="#696B74"/>
<rect width="5.1404" height="17.9272" rx="2.5702" transform="matrix(0.966191 -0.257825 0.259816 0.965658 143.578 10.8438)" fill="#696B74"/>
</g>
<path d="M101.318 176.341H111.227C111.227 177.477 111.424 178.417 111.818 179.159C112.227 179.886 112.78 180.462 113.477 180.886C114.189 181.311 115.015 181.606 115.955 181.773C116.894 181.939 117.909 182.023 119 182.023C120.121 182.023 121.152 181.924 122.091 181.727C123.03 181.53 123.841 181.197 124.523 180.727C125.205 180.242 125.727 179.598 126.091 178.795C126.47 177.992 126.659 176.985 126.659 175.773C126.659 174.545 126.515 173.523 126.227 172.705C125.939 171.886 125.462 171.235 124.795 170.75C124.129 170.25 123.25 169.902 122.159 169.705C121.068 169.492 119.72 169.386 118.114 169.386H113.773V162.159H118.114C119.523 162.159 120.705 162.068 121.659 161.886C122.629 161.689 123.409 161.356 124 160.886C124.606 160.417 125.038 159.788 125.295 159C125.553 158.212 125.682 157.22 125.682 156.023C125.682 154.856 125.576 153.894 125.364 153.136C125.167 152.379 124.811 151.78 124.295 151.341C123.795 150.886 123.114 150.568 122.25 150.386C121.402 150.205 120.341 150.114 119.068 150.114C117.78 150.114 116.667 150.197 115.727 150.364C114.803 150.53 114.038 150.833 113.432 151.273C112.841 151.712 112.402 152.311 112.114 153.068C111.826 153.826 111.682 154.788 111.682 155.955H102.25C102.25 153.652 102.629 151.652 103.386 149.955C104.144 148.242 105.242 146.826 106.682 145.705C108.121 144.568 109.886 143.72 111.977 143.159C114.068 142.598 116.447 142.318 119.114 142.318C124.508 142.318 128.53 143.447 131.182 145.705C133.848 147.947 135.174 151.189 135.159 155.432C135.159 157.023 134.947 158.417 134.523 159.614C134.098 160.795 133.5 161.803 132.727 162.636C131.955 163.47 131.03 164.144 129.955 164.659C128.879 165.174 127.689 165.545 126.386 165.773C128.098 165.985 129.606 166.341 130.909 166.841C132.227 167.326 133.326 167.992 134.205 168.841C135.098 169.674 135.765 170.72 136.205 171.977C136.659 173.22 136.886 174.705 136.886 176.432C136.886 178.705 136.447 180.697 135.568 182.409C134.689 184.121 133.455 185.553 131.864 186.705C130.273 187.841 128.379 188.697 126.182 189.273C124 189.848 121.598 190.136 118.977 190.136C116.417 190.136 114.053 189.856 111.886 189.295C109.735 188.72 107.871 187.864 106.295 186.727C104.735 185.576 103.515 184.136 102.636 182.409C101.758 180.682 101.318 178.659 101.318 176.341ZM142.135 166.273C142.135 162.182 142.514 158.636 143.271 155.636C144.029 152.621 145.18 150.129 146.726 148.159C148.271 146.189 150.218 144.727 152.567 143.773C154.93 142.803 157.718 142.318 160.93 142.318C164.142 142.318 166.93 142.803 169.294 143.773C171.658 144.727 173.612 146.189 175.158 148.159C176.703 150.129 177.847 152.621 178.589 155.636C179.347 158.636 179.726 162.182 179.726 166.273C179.726 170.394 179.347 173.977 178.589 177.023C177.832 180.053 176.68 182.568 175.135 184.568C173.589 186.568 171.635 188.061 169.271 189.045C166.923 190.03 164.142 190.523 160.93 190.523C157.718 190.523 154.93 190.03 152.567 189.045C150.203 188.061 148.248 186.568 146.703 184.568C145.158 182.568 144.006 180.053 143.248 177.023C142.506 173.977 142.135 170.394 142.135 166.273ZM160.93 182.364C162.551 182.364 163.915 182.083 165.021 181.523C166.142 180.962 167.044 180.045 167.726 178.773C168.423 177.5 168.923 175.841 169.226 173.795C169.529 171.75 169.68 169.242 169.68 166.273C169.68 163.348 169.529 160.879 169.226 158.864C168.923 156.833 168.423 155.197 167.726 153.955C167.029 152.697 166.127 151.788 165.021 151.227C163.915 150.667 162.551 150.386 160.93 150.386C159.309 150.386 157.938 150.667 156.817 151.227C155.711 151.788 154.809 152.697 154.112 153.955C153.43 155.197 152.93 156.833 152.612 158.864C152.309 160.879 152.158 163.348 152.158 166.273C152.158 169.242 152.309 171.75 152.612 173.795C152.915 175.841 153.415 177.5 154.112 178.773C154.809 180.045 155.711 180.962 156.817 181.523C157.938 182.083 159.309 182.364 160.93 182.364ZM187.349 162.25H199.372V150.227H207.508V162.25H219.531V170.386H207.508V182.409H199.372V170.386H187.349V162.25Z" fill="white"/>
<path d="M98.8438 224.636C98.8438 222.948 99.2209 221.68 99.9751 220.832C100.729 219.98 101.878 219.554 103.42 219.554C104.963 219.554 106.112 219.98 106.866 220.832C107.62 221.68 107.997 222.948 107.997 224.636C107.997 226.315 107.62 227.578 106.866 228.426C106.112 229.274 104.963 229.698 103.42 229.698C101.878 229.698 100.729 229.274 99.9751 228.426C99.2209 227.578 98.8438 226.315 98.8438 224.636ZM100.774 224.629C100.774 225.179 100.813 225.669 100.889 226.099C100.966 226.53 101.102 226.894 101.298 227.192C101.499 227.487 101.769 227.71 102.11 227.864C102.455 228.017 102.894 228.094 103.427 228.094C103.955 228.094 104.39 228.017 104.731 227.864C105.072 227.71 105.34 227.487 105.536 227.192C105.737 226.894 105.875 226.53 105.952 226.099C106.028 225.669 106.067 225.179 106.067 224.629C106.067 224.08 106.028 223.589 105.952 223.159C105.875 222.729 105.737 222.364 105.536 222.066C105.34 221.768 105.072 221.542 104.731 221.388C104.39 221.231 103.955 221.152 103.427 221.152C102.894 221.152 102.455 221.231 102.11 221.388C101.769 221.542 101.499 221.768 101.298 222.066C101.102 222.364 100.966 222.729 100.889 223.159C100.813 223.589 100.774 224.08 100.774 224.629ZM109.771 229.5V219.682H117.78V229.5H115.907V221.331H111.631V229.5H109.771ZM119.975 219.682H121.848V223.057H124.264C124.946 223.057 125.523 223.121 125.996 223.249C126.474 223.376 126.861 223.572 127.16 223.837C127.458 224.097 127.673 224.429 127.805 224.834C127.942 225.234 128.01 225.71 128.01 226.259C128.01 226.8 127.942 227.273 127.805 227.678C127.673 228.083 127.458 228.422 127.16 228.695C126.861 228.963 126.474 229.165 125.996 229.302C125.523 229.434 124.946 229.5 124.264 229.5H119.975V219.682ZM129.403 219.682H131.314V229.5H129.403V219.682ZM121.848 224.706V227.851H124.264C124.618 227.851 124.914 227.827 125.153 227.781C125.395 227.734 125.589 227.653 125.734 227.538C125.883 227.423 125.99 227.267 126.054 227.071C126.118 226.871 126.15 226.619 126.15 226.317C126.15 226.001 126.118 225.739 126.054 225.531C125.99 225.322 125.883 225.158 125.734 225.038C125.589 224.915 125.395 224.83 125.153 224.783C124.914 224.732 124.618 224.706 124.264 224.706H121.848ZM132.97 221.331V219.682H141.254V221.331H138.051V229.5H136.185V221.331H132.97ZM142.915 229.5V219.682H144.788V223.766H149.039V219.682H150.905V229.5H149.039V225.422H144.788V229.5H142.915ZM153.102 219.682H154.975V223.057H157.391C158.073 223.057 158.65 223.121 159.123 223.249C159.601 223.376 159.988 223.572 160.287 223.837C160.585 224.097 160.8 224.429 160.932 224.834C161.069 225.234 161.137 225.71 161.137 226.259C161.137 226.8 161.069 227.273 160.932 227.678C160.8 228.083 160.585 228.422 160.287 228.695C159.988 228.963 159.601 229.165 159.123 229.302C158.65 229.434 158.073 229.5 157.391 229.5H153.102V219.682ZM162.53 219.682H164.441V229.5H162.53V219.682ZM154.975 224.706V227.851H157.391C157.745 227.851 158.041 227.827 158.28 227.781C158.522 227.734 158.716 227.653 158.861 227.538C159.01 227.423 159.117 227.267 159.181 227.071C159.245 226.871 159.277 226.619 159.277 226.317C159.277 226.001 159.245 225.739 159.181 225.531C159.117 225.322 159.01 225.158 158.861 225.038C158.716 224.915 158.522 224.83 158.28 224.783C158.041 224.732 157.745 224.706 157.391 224.706H154.975ZM166.02 229.5L169.075 224.591L166.058 219.682H168.155L170.322 223.504L172.508 219.682H174.598L171.536 224.591L174.624 229.5H172.533L170.322 225.831L168.116 229.5H166.02ZM181.966 226.036C181.966 226.376 182.004 226.67 182.081 226.918C182.157 227.165 182.277 227.369 182.439 227.531C182.605 227.689 182.814 227.808 183.065 227.889C183.321 227.966 183.625 228.004 183.979 228.004C184.422 228.004 184.789 227.942 185.078 227.819C185.368 227.691 185.603 227.512 185.782 227.282C185.961 227.048 186.095 226.764 186.184 226.432C186.274 226.095 186.34 225.718 186.382 225.3H183.065V223.83H186.376C186.329 223.413 186.261 223.042 186.171 222.718C186.082 222.394 185.948 222.121 185.769 221.9C185.59 221.674 185.355 221.504 185.066 221.388C184.78 221.273 184.418 221.214 183.979 221.21C183.651 221.214 183.361 221.246 183.11 221.305C182.858 221.361 182.647 221.457 182.477 221.593C182.311 221.725 182.183 221.902 182.093 222.124C182.008 222.341 181.966 222.609 181.966 222.929H180.163C180.163 222.388 180.25 221.908 180.425 221.491C180.604 221.069 180.858 220.715 181.186 220.43C181.514 220.14 181.914 219.92 182.387 219.771C182.86 219.618 183.391 219.541 183.979 219.541C184.755 219.541 185.415 219.658 185.961 219.893C186.506 220.123 186.951 220.453 187.296 220.884C187.642 221.31 187.893 221.825 188.051 222.43C188.208 223.031 188.287 223.705 188.287 224.45V224.77C188.287 225.516 188.208 226.191 188.051 226.796C187.893 227.401 187.642 227.917 187.296 228.343C186.951 228.769 186.506 229.099 185.961 229.334C185.415 229.564 184.755 229.679 183.979 229.679C181.435 229.679 180.163 228.464 180.163 226.036H181.966ZM190.053 229.5V219.682H191.964V223.798H192.884L196.125 219.682H198.49L194.687 224.457L198.535 229.5H196.163L193.204 225.575H191.964V229.5H190.053ZM199.218 224.636C199.218 223.805 199.31 223.074 199.493 222.443C199.681 221.808 199.962 221.278 200.337 220.852C200.716 220.421 201.191 220.097 201.762 219.88C202.333 219.663 203.005 219.554 203.776 219.554C204.415 219.554 204.975 219.633 205.457 219.79C205.939 219.948 206.345 220.172 206.678 220.462C207.015 220.747 207.277 221.094 207.464 221.504C207.656 221.908 207.777 222.358 207.828 222.852H205.968C205.917 222.622 205.847 222.405 205.757 222.2C205.672 221.996 205.549 221.817 205.387 221.663C205.225 221.51 205.016 221.388 204.76 221.299C204.509 221.21 204.191 221.165 203.808 221.165C203.331 221.165 202.921 221.231 202.581 221.363C202.244 221.491 201.969 221.693 201.756 221.97C201.547 222.247 201.394 222.603 201.296 223.038C201.198 223.468 201.149 223.986 201.149 224.591C201.149 225.205 201.196 225.733 201.289 226.176C201.387 226.615 201.541 226.977 201.75 227.263C201.963 227.544 202.238 227.751 202.574 227.883C202.911 228.015 203.322 228.081 203.808 228.081C204.162 228.081 204.462 228.043 204.709 227.966C204.956 227.889 205.163 227.778 205.329 227.634C205.495 227.489 205.627 227.312 205.725 227.103C205.828 226.894 205.909 226.658 205.968 226.393H207.828C207.777 226.871 207.662 227.312 207.483 227.717C207.304 228.121 207.051 228.471 206.723 228.765C206.399 229.059 205.994 229.289 205.508 229.455C205.027 229.617 204.456 229.698 203.795 229.698C203.002 229.698 202.319 229.589 201.743 229.372C201.168 229.151 200.693 228.827 200.318 228.401C199.943 227.97 199.666 227.44 199.487 226.809C199.308 226.178 199.218 225.454 199.218 224.636ZM209.512 229.5V219.682H217.522V229.5H215.649V221.331H211.372V229.5H209.512ZM219.276 224.655C219.276 222.984 219.651 221.717 220.401 220.852C221.151 219.987 222.288 219.554 223.814 219.554C224.449 219.554 225.033 219.631 225.565 219.784C226.098 219.933 226.556 220.195 226.94 220.57C227.323 220.945 227.622 221.45 227.835 222.085C228.052 222.72 228.161 223.521 228.161 224.489V225.166H221.181C221.193 225.686 221.253 226.134 221.36 226.509C221.47 226.879 221.636 227.184 221.858 227.423C222.084 227.661 222.369 227.838 222.715 227.953C223.06 228.064 223.477 228.119 223.967 228.119C224.321 228.119 224.622 228.089 224.869 228.03C225.116 227.97 225.325 227.883 225.495 227.768C225.67 227.648 225.815 227.501 225.93 227.327C226.045 227.152 226.145 226.95 226.23 226.719L228.039 227.045C227.933 227.446 227.773 227.81 227.56 228.138C227.351 228.462 227.08 228.741 226.748 228.976C226.42 229.206 226.024 229.383 225.559 229.506C225.099 229.634 224.562 229.698 223.948 229.698C223.143 229.698 222.446 229.587 221.858 229.366C221.274 229.144 220.791 228.82 220.407 228.394C220.024 227.964 219.738 227.435 219.551 226.809C219.367 226.183 219.276 225.464 219.276 224.655ZM221.187 223.734H226.288C226.288 223.278 226.243 222.886 226.154 222.558C226.068 222.23 225.928 221.962 225.732 221.753C225.536 221.54 225.282 221.384 224.971 221.286C224.66 221.184 224.279 221.133 223.827 221.133C223.358 221.133 222.96 221.188 222.632 221.299C222.308 221.41 222.041 221.574 221.833 221.791C221.624 222.009 221.468 222.279 221.366 222.603C221.268 222.927 221.208 223.304 221.187 223.734ZM229.921 233.182V219.682H231.788V221.273H231.947C232.003 221.171 232.06 221.058 232.12 220.935C232.184 220.811 232.261 220.685 232.35 220.558C232.444 220.43 232.555 220.306 232.683 220.187C232.81 220.067 232.968 219.961 233.156 219.867C233.347 219.773 233.573 219.699 233.833 219.643C234.097 219.584 234.408 219.554 234.766 219.554C235.44 219.554 236.032 219.669 236.543 219.899C237.059 220.125 237.489 220.455 237.835 220.89C238.184 221.32 238.446 221.849 238.621 222.475C238.8 223.102 238.889 223.813 238.889 224.61C238.889 225.403 238.802 226.114 238.627 226.745C238.452 227.371 238.193 227.904 237.847 228.343C237.502 228.778 237.074 229.112 236.563 229.347C236.051 229.577 235.459 229.692 234.786 229.692C234.436 229.692 234.129 229.664 233.865 229.609C233.605 229.553 233.379 229.479 233.188 229.385C232.996 229.291 232.834 229.185 232.702 229.065C232.574 228.946 232.463 228.822 232.369 228.695C232.276 228.567 232.195 228.441 232.126 228.317C232.063 228.19 232.003 228.075 231.947 227.972H231.832V233.182H229.921ZM231.947 224.591C231.947 225.187 231.979 225.705 232.043 226.144C232.112 226.579 232.235 226.939 232.414 227.224C232.593 227.506 232.838 227.717 233.149 227.857C233.465 227.994 233.867 228.062 234.357 228.062C234.864 228.062 235.284 227.989 235.617 227.844C235.953 227.695 236.22 227.476 236.416 227.186C236.616 226.892 236.756 226.53 236.837 226.099C236.918 225.665 236.959 225.162 236.959 224.591C236.959 224.024 236.918 223.528 236.837 223.102C236.761 222.675 236.624 222.32 236.428 222.034C236.232 221.749 235.966 221.536 235.629 221.395C235.293 221.25 234.869 221.178 234.357 221.178C233.859 221.178 233.452 221.246 233.136 221.382C232.825 221.514 232.58 221.719 232.401 221.996C232.227 222.273 232.107 222.626 232.043 223.057C231.979 223.487 231.947 223.999 231.947 224.591ZM240.121 221.331V219.682H248.405V221.331H245.203V229.5H243.336V221.331H240.121ZM249.625 224.636C249.625 222.948 250.003 221.68 250.757 220.832C251.511 219.98 252.659 219.554 254.202 219.554C255.745 219.554 256.893 219.98 257.647 220.832C258.402 221.68 258.779 222.948 258.779 224.636C258.779 226.315 258.402 227.578 257.647 228.426C256.893 229.274 255.745 229.698 254.202 229.698C252.659 229.698 251.511 229.274 250.757 228.426C250.003 227.578 249.625 226.315 249.625 224.636ZM251.556 224.629C251.556 225.179 251.594 225.669 251.671 226.099C251.748 226.53 251.884 226.894 252.08 227.192C252.28 227.487 252.551 227.71 252.892 227.864C253.237 228.017 253.676 228.094 254.208 228.094C254.737 228.094 255.172 228.017 255.512 227.864C255.853 227.71 256.122 227.487 256.318 227.192C256.518 226.894 256.657 226.53 256.733 226.099C256.81 225.669 256.848 225.179 256.848 224.629C256.848 224.08 256.81 223.589 256.733 223.159C256.657 222.729 256.518 222.364 256.318 222.066C256.122 221.768 255.853 221.542 255.512 221.388C255.172 221.231 254.737 221.152 254.208 221.152C253.676 221.152 253.237 221.231 252.892 221.388C252.551 221.542 252.28 221.768 252.08 222.066C251.884 222.364 251.748 222.729 251.671 223.159C251.594 223.589 251.556 224.08 251.556 224.629ZM260.552 219.682H264.624C265.259 219.682 265.802 219.729 266.254 219.822C266.71 219.912 267.083 220.061 267.372 220.27C267.666 220.474 267.882 220.745 268.018 221.082C268.159 221.414 268.229 221.821 268.229 222.303C268.229 222.669 268.18 222.978 268.082 223.229C267.988 223.481 267.854 223.69 267.679 223.856C267.505 224.022 267.294 224.152 267.046 224.246C266.799 224.339 266.524 224.416 266.222 224.476C266.55 224.514 266.861 224.576 267.155 224.661C267.449 224.746 267.707 224.879 267.929 225.058C268.15 225.232 268.325 225.464 268.453 225.754C268.585 226.044 268.651 226.411 268.651 226.854C268.651 227.322 268.589 227.725 268.466 228.062C268.342 228.394 268.144 228.667 267.871 228.88C267.603 229.093 267.251 229.251 266.816 229.353C266.386 229.451 265.862 229.5 265.244 229.5H260.552V219.682ZM262.348 225.173V227.902H265.244C265.559 227.902 265.815 227.889 266.011 227.864C266.211 227.834 266.367 227.774 266.478 227.685C266.588 227.595 266.663 227.467 266.701 227.301C266.74 227.135 266.759 226.915 266.759 226.643C266.759 226.336 266.74 226.087 266.701 225.895C266.663 225.703 266.588 225.554 266.478 225.447C266.367 225.341 266.211 225.268 266.011 225.23C265.815 225.192 265.559 225.173 265.244 225.173H262.348ZM262.348 221.299V223.773H264.643C264.988 223.773 265.272 223.76 265.493 223.734C265.719 223.705 265.896 223.645 266.024 223.555C266.156 223.466 266.245 223.338 266.292 223.172C266.343 223.006 266.369 222.784 266.369 222.507C266.369 222.239 266.343 222.026 266.292 221.868C266.245 221.706 266.156 221.585 266.024 221.504C265.892 221.418 265.713 221.363 265.487 221.337C265.265 221.312 264.978 221.299 264.624 221.299H262.348ZM270.24 232.696C270.283 232.5 270.338 232.246 270.407 231.935C270.475 231.629 270.543 231.288 270.611 230.913C270.684 230.538 270.752 230.137 270.816 229.711C270.88 229.289 270.931 228.861 270.969 228.426L271.033 227.71H272.874L272.778 228.407C272.744 228.663 272.697 228.927 272.637 229.2C272.582 229.472 272.518 229.743 272.446 230.011C272.378 230.284 272.303 230.55 272.222 230.81C272.145 231.075 272.069 231.322 271.992 231.552C271.915 231.786 271.843 231.999 271.775 232.191C271.706 232.387 271.647 232.555 271.596 232.696H270.24ZM99.2848 256.5V246.682H101.196V250.798H102.116L105.357 246.682H107.722L103.919 251.457L107.767 256.5H105.396L102.436 252.575H101.196V256.5H99.2848ZM108.451 251.636C108.451 249.948 108.828 248.68 109.582 247.832C110.336 246.98 111.485 246.554 113.027 246.554C114.57 246.554 115.718 246.98 116.473 247.832C117.227 248.68 117.604 249.948 117.604 251.636C117.604 253.315 117.227 254.578 116.473 255.426C115.718 256.274 114.57 256.698 113.027 256.698C111.485 256.698 110.336 256.274 109.582 255.426C108.828 254.578 108.451 253.315 108.451 251.636ZM110.381 251.629C110.381 252.179 110.419 252.669 110.496 253.099C110.573 253.53 110.709 253.894 110.905 254.192C111.105 254.487 111.376 254.71 111.717 254.864C112.062 255.017 112.501 255.094 113.034 255.094C113.562 255.094 113.997 255.017 114.338 254.864C114.679 254.71 114.947 254.487 115.143 254.192C115.343 253.894 115.482 253.53 115.559 253.099C115.635 252.669 115.674 252.179 115.674 251.629C115.674 251.08 115.635 250.589 115.559 250.159C115.482 249.729 115.343 249.364 115.143 249.066C114.947 248.768 114.679 248.542 114.338 248.388C113.997 248.231 113.562 248.152 113.034 248.152C112.501 248.152 112.062 248.231 111.717 248.388C111.376 248.542 111.105 248.768 110.905 249.066C110.709 249.364 110.573 249.729 110.496 250.159C110.419 250.589 110.381 251.08 110.381 251.629ZM118.828 248.331V246.682H127.112V248.331H123.909V256.5H122.043V248.331H118.828ZM128.332 251.636C128.332 249.948 128.709 248.68 129.464 247.832C130.218 246.98 131.366 246.554 132.909 246.554C134.451 246.554 135.6 246.98 136.354 247.832C137.108 248.68 137.486 249.948 137.486 251.636C137.486 253.315 137.108 254.578 136.354 255.426C135.6 256.274 134.451 256.698 132.909 256.698C131.366 256.698 130.218 256.274 129.464 255.426C128.709 254.578 128.332 253.315 128.332 251.636ZM130.263 251.629C130.263 252.179 130.301 252.669 130.378 253.099C130.454 253.53 130.591 253.894 130.787 254.192C130.987 254.487 131.258 254.71 131.598 254.864C131.944 255.017 132.383 255.094 132.915 255.094C133.444 255.094 133.878 255.017 134.219 254.864C134.56 254.71 134.829 254.487 135.025 254.192C135.225 253.894 135.363 253.53 135.44 253.099C135.517 252.669 135.555 252.179 135.555 251.629C135.555 251.08 135.517 250.589 135.44 250.159C135.363 249.729 135.225 249.364 135.025 249.066C134.829 248.768 134.56 248.542 134.219 248.388C133.878 248.231 133.444 248.152 132.915 248.152C132.383 248.152 131.944 248.231 131.598 248.388C131.258 248.542 130.987 248.768 130.787 249.066C130.591 249.364 130.454 249.729 130.378 250.159C130.301 250.589 130.263 251.08 130.263 251.629ZM139.259 260.182V246.682H141.125V248.273H141.285C141.341 248.171 141.398 248.058 141.458 247.935C141.522 247.811 141.598 247.685 141.688 247.558C141.782 247.43 141.892 247.306 142.02 247.187C142.148 247.067 142.306 246.961 142.493 246.867C142.685 246.773 142.911 246.699 143.171 246.643C143.435 246.584 143.746 246.554 144.104 246.554C144.777 246.554 145.37 246.669 145.881 246.899C146.397 247.125 146.827 247.455 147.172 247.89C147.522 248.32 147.784 248.849 147.958 249.475C148.137 250.102 148.227 250.813 148.227 251.61C148.227 252.403 148.14 253.114 147.965 253.745C147.79 254.371 147.53 254.904 147.185 255.343C146.84 255.778 146.412 256.112 145.9 256.347C145.389 256.577 144.797 256.692 144.123 256.692C143.774 256.692 143.467 256.664 143.203 256.609C142.943 256.553 142.717 256.479 142.525 256.385C142.333 256.291 142.172 256.185 142.039 256.065C141.912 255.946 141.801 255.822 141.707 255.695C141.613 255.567 141.532 255.441 141.464 255.317C141.4 255.19 141.341 255.075 141.285 254.972H141.17V260.182H139.259ZM141.285 251.591C141.285 252.187 141.317 252.705 141.381 253.144C141.449 253.579 141.573 253.939 141.752 254.224C141.931 254.506 142.176 254.717 142.487 254.857C142.802 254.994 143.205 255.062 143.695 255.062C144.202 255.062 144.622 254.989 144.954 254.844C145.291 254.695 145.557 254.476 145.753 254.186C145.953 253.892 146.094 253.53 146.175 253.099C146.256 252.665 146.297 252.162 146.297 251.591C146.297 251.024 146.256 250.528 146.175 250.102C146.098 249.675 145.962 249.32 145.766 249.034C145.57 248.749 145.304 248.536 144.967 248.395C144.63 248.25 144.206 248.178 143.695 248.178C143.196 248.178 142.789 248.246 142.474 248.382C142.163 248.514 141.918 248.719 141.739 248.996C141.564 249.273 141.445 249.626 141.381 250.057C141.317 250.487 141.285 250.999 141.285 251.591ZM150.008 246.682H151.881V250.057H154.297C154.979 250.057 155.557 250.121 156.03 250.249C156.507 250.376 156.895 250.572 157.193 250.837C157.491 251.097 157.706 251.429 157.838 251.834C157.975 252.234 158.043 252.71 158.043 253.259C158.043 253.8 157.975 254.273 157.838 254.678C157.706 255.083 157.491 255.422 157.193 255.695C156.895 255.963 156.507 256.165 156.03 256.302C155.557 256.434 154.979 256.5 154.297 256.5H150.008V246.682ZM159.437 246.682H161.348V256.5H159.437V246.682ZM151.881 251.706V254.851H154.297C154.651 254.851 154.947 254.827 155.186 254.781C155.429 254.734 155.623 254.653 155.767 254.538C155.917 254.423 156.023 254.267 156.087 254.071C156.151 253.871 156.183 253.619 156.183 253.317C156.183 253.001 156.151 252.739 156.087 252.531C156.023 252.322 155.917 252.158 155.767 252.038C155.623 251.915 155.429 251.83 155.186 251.783C154.947 251.732 154.651 251.706 154.297 251.706H151.881ZM163.111 251.655C163.111 249.984 163.486 248.717 164.236 247.852C164.986 246.987 166.124 246.554 167.65 246.554C168.285 246.554 168.869 246.631 169.401 246.784C169.934 246.933 170.392 247.195 170.776 247.57C171.159 247.945 171.457 248.45 171.67 249.085C171.888 249.72 171.996 250.521 171.996 251.489V252.166H165.016C165.029 252.686 165.089 253.134 165.195 253.509C165.306 253.879 165.472 254.184 165.694 254.423C165.92 254.661 166.205 254.838 166.55 254.953C166.896 255.064 167.313 255.119 167.803 255.119C168.157 255.119 168.457 255.089 168.705 255.03C168.952 254.97 169.16 254.883 169.331 254.768C169.506 254.648 169.651 254.501 169.766 254.327C169.881 254.152 169.981 253.95 170.066 253.719L171.875 254.045C171.768 254.446 171.609 254.81 171.396 255.138C171.187 255.462 170.916 255.741 170.584 255.976C170.256 256.206 169.859 256.383 169.395 256.506C168.935 256.634 168.398 256.698 167.784 256.698C166.979 256.698 166.282 256.587 165.694 256.366C165.11 256.144 164.626 255.82 164.243 255.394C163.859 254.964 163.574 254.435 163.386 253.809C163.203 253.183 163.111 252.464 163.111 251.655ZM165.023 250.734H170.124C170.124 250.278 170.079 249.886 169.989 249.558C169.904 249.23 169.763 248.962 169.567 248.753C169.371 248.54 169.118 248.384 168.807 248.286C168.496 248.184 168.114 248.133 167.663 248.133C167.194 248.133 166.795 248.188 166.467 248.299C166.143 248.41 165.877 248.574 165.668 248.791C165.459 249.009 165.304 249.279 165.202 249.603C165.104 249.927 165.044 250.304 165.023 250.734ZM178.161 260.182V246.682H180.027V248.273H180.187C180.242 248.171 180.3 248.058 180.36 247.935C180.423 247.811 180.5 247.685 180.59 247.558C180.683 247.43 180.794 247.306 180.922 247.187C181.05 247.067 181.208 246.961 181.395 246.867C181.587 246.773 181.813 246.699 182.073 246.643C182.337 246.584 182.648 246.554 183.006 246.554C183.679 246.554 184.271 246.669 184.783 246.899C185.298 247.125 185.729 247.455 186.074 247.89C186.423 248.32 186.686 248.849 186.86 249.475C187.039 250.102 187.129 250.813 187.129 251.61C187.129 252.403 187.041 253.114 186.867 253.745C186.692 254.371 186.432 254.904 186.087 255.343C185.742 255.778 185.313 256.112 184.802 256.347C184.291 256.577 183.698 256.692 183.025 256.692C182.676 256.692 182.369 256.664 182.105 256.609C181.845 256.553 181.619 256.479 181.427 256.385C181.235 256.291 181.073 256.185 180.941 256.065C180.813 255.946 180.703 255.822 180.609 255.695C180.515 255.567 180.434 255.441 180.366 255.317C180.302 255.19 180.242 255.075 180.187 254.972H180.072V260.182H178.161ZM180.187 251.591C180.187 252.187 180.219 252.705 180.283 253.144C180.351 253.579 180.475 253.939 180.654 254.224C180.833 254.506 181.078 254.717 181.389 254.857C181.704 254.994 182.107 255.062 182.597 255.062C183.104 255.062 183.524 254.989 183.856 254.844C184.193 254.695 184.459 254.476 184.655 254.186C184.855 253.892 184.996 253.53 185.077 253.099C185.158 252.665 185.198 252.162 185.198 251.591C185.198 251.024 185.158 250.528 185.077 250.102C185 249.675 184.864 249.32 184.668 249.034C184.472 248.749 184.205 248.536 183.869 248.395C183.532 248.25 183.108 248.178 182.597 248.178C182.098 248.178 181.691 248.246 181.376 248.382C181.065 248.514 180.82 248.719 180.641 248.996C180.466 249.273 180.347 249.626 180.283 250.057C180.219 250.487 180.187 250.999 180.187 251.591ZM188.45 253.726C188.45 253.3 188.499 252.937 188.597 252.639C188.699 252.337 188.838 252.083 189.012 251.879C189.187 251.674 189.394 251.51 189.632 251.386C189.875 251.259 190.135 251.158 190.412 251.086C190.689 251.009 190.981 250.95 191.288 250.907C191.595 250.864 191.904 250.826 192.215 250.792C192.509 250.758 192.773 250.737 193.007 250.728C193.246 250.715 193.457 250.705 193.64 250.696C193.823 250.688 193.981 250.673 194.113 250.651C194.25 250.63 194.36 250.594 194.446 250.543C194.531 250.487 194.593 250.411 194.631 250.312C194.674 250.21 194.695 250.074 194.695 249.903V249.859C194.695 249.501 194.669 249.209 194.618 248.983C194.571 248.753 194.48 248.574 194.343 248.446C194.207 248.314 194.017 248.224 193.774 248.178C193.531 248.126 193.216 248.101 192.828 248.101C192.428 248.101 192.095 248.139 191.831 248.216C191.571 248.293 191.358 248.395 191.192 248.523C191.026 248.651 190.894 248.798 190.796 248.964C190.702 249.126 190.619 249.294 190.546 249.469L188.75 249.06C188.912 248.612 189.115 248.231 189.357 247.915C189.605 247.596 189.894 247.336 190.227 247.136C190.563 246.935 190.945 246.788 191.371 246.695C191.801 246.601 192.279 246.554 192.803 246.554C193.118 246.554 193.429 246.565 193.736 246.586C194.047 246.607 194.343 246.658 194.625 246.739C194.906 246.816 195.168 246.929 195.411 247.078C195.654 247.227 195.865 247.43 196.044 247.685C196.223 247.937 196.361 248.25 196.459 248.625C196.561 249 196.612 249.452 196.612 249.98V256.5H194.746V255.158H194.669C194.58 255.341 194.469 255.526 194.337 255.714C194.205 255.897 194.028 256.063 193.806 256.212C193.589 256.362 193.316 256.483 192.988 256.577C192.66 256.67 192.253 256.717 191.767 256.717C191.222 256.717 190.742 256.67 190.329 256.577C189.916 256.483 189.568 256.321 189.287 256.091C189.01 255.861 188.801 255.554 188.661 255.17C188.52 254.787 188.45 254.305 188.45 253.726ZM192.183 255.183C192.66 255.183 193.058 255.136 193.378 255.043C193.702 254.949 193.962 254.81 194.158 254.627C194.354 254.44 194.492 254.207 194.573 253.93C194.659 253.653 194.701 253.33 194.701 252.959V251.693C194.654 251.74 194.578 251.783 194.471 251.821C194.369 251.859 194.245 251.898 194.1 251.936C193.96 251.97 193.808 252.002 193.647 252.032C193.485 252.058 193.323 252.083 193.161 252.109C193.003 252.13 192.852 252.151 192.707 252.173C192.562 252.19 192.438 252.205 192.336 252.217C192.059 252.256 191.797 252.294 191.55 252.332C191.307 252.371 191.094 252.439 190.911 252.537C190.732 252.635 190.589 252.778 190.482 252.965C190.376 253.153 190.323 253.415 190.323 253.751C190.323 254.067 190.353 254.32 190.412 254.512C190.476 254.7 190.58 254.844 190.725 254.947C190.87 255.045 191.062 255.109 191.301 255.138C191.539 255.168 191.833 255.183 192.183 255.183ZM198.37 251.195V250.223C198.37 249.021 198.47 247.994 198.67 247.142C198.871 246.286 199.171 245.585 199.572 245.039C199.972 244.489 200.471 244.085 201.067 243.825C201.668 243.565 202.367 243.426 203.164 243.409C203.343 243.405 203.513 243.403 203.675 243.403C203.841 243.403 203.999 243.403 204.148 243.403C204.404 243.403 204.64 243.403 204.858 243.403C205.075 243.398 205.275 243.386 205.459 243.364C205.646 243.339 205.814 243.3 205.964 243.249C206.117 243.194 206.253 243.119 206.373 243.026L207.165 244.234C206.948 244.434 206.707 244.589 206.443 244.7C206.179 244.807 205.885 244.888 205.561 244.943C205.241 244.994 204.888 245.028 204.5 245.045C204.112 245.062 203.682 245.077 203.209 245.09C202.68 245.107 202.222 245.197 201.834 245.359C201.447 245.521 201.121 245.759 200.856 246.075C200.596 246.386 200.392 246.776 200.243 247.244C200.094 247.709 199.991 248.252 199.936 248.874H200.057C200.219 248.572 200.396 248.308 200.588 248.082C200.784 247.852 201.01 247.662 201.265 247.513C201.525 247.359 201.822 247.244 202.154 247.168C202.491 247.091 202.876 247.053 203.311 247.053C203.984 247.053 204.576 247.14 205.088 247.315C205.599 247.489 206.027 247.766 206.373 248.146C206.718 248.521 206.978 249.004 207.152 249.597C207.331 250.189 207.421 250.903 207.421 251.738C207.421 253.425 207.05 254.674 206.309 255.484C205.567 256.293 204.432 256.698 202.902 256.698C202.135 256.698 201.468 256.596 200.901 256.391C200.334 256.187 199.863 255.863 199.488 255.42C199.113 254.977 198.832 254.408 198.645 253.713C198.461 253.014 198.37 252.175 198.37 251.195ZM200.294 251.77C200.294 252.358 200.339 252.863 200.428 253.285C200.518 253.702 200.665 254.045 200.869 254.314C201.078 254.582 201.349 254.781 201.681 254.908C202.013 255.032 202.422 255.094 202.908 255.094C203.39 255.094 203.795 255.032 204.123 254.908C204.451 254.781 204.715 254.582 204.915 254.314C205.12 254.045 205.267 253.702 205.356 253.285C205.446 252.863 205.491 252.358 205.491 251.77C205.491 251.195 205.446 250.709 205.356 250.312C205.267 249.912 205.12 249.588 204.915 249.341C204.711 249.094 204.442 248.917 204.11 248.81C203.782 248.7 203.375 248.644 202.889 248.644C202.412 248.644 202.009 248.7 201.681 248.81C201.353 248.917 201.086 249.094 200.882 249.341C200.682 249.588 200.535 249.912 200.441 250.312C200.351 250.709 200.302 251.195 200.294 251.77ZM208.755 251.636C208.755 249.948 209.132 248.68 209.886 247.832C210.64 246.98 211.789 246.554 213.332 246.554C214.874 246.554 216.023 246.98 216.777 247.832C217.531 248.68 217.908 249.948 217.908 251.636C217.908 253.315 217.531 254.578 216.777 255.426C216.023 256.274 214.874 256.698 213.332 256.698C211.789 256.698 210.64 256.274 209.886 255.426C209.132 254.578 208.755 253.315 208.755 251.636ZM210.685 251.629C210.685 252.179 210.724 252.669 210.8 253.099C210.877 253.53 211.013 253.894 211.209 254.192C211.41 254.487 211.68 254.71 212.021 254.864C212.366 255.017 212.805 255.094 213.338 255.094C213.866 255.094 214.301 255.017 214.642 254.864C214.983 254.71 215.251 254.487 215.447 254.192C215.648 253.894 215.786 253.53 215.863 253.099C215.94 252.669 215.978 252.179 215.978 251.629C215.978 251.08 215.94 250.589 215.863 250.159C215.786 249.729 215.648 249.364 215.447 249.066C215.251 248.768 214.983 248.542 214.642 248.388C214.301 248.231 213.866 248.152 213.338 248.152C212.805 248.152 212.366 248.231 212.021 248.388C211.68 248.542 211.41 248.768 211.209 249.066C211.013 249.364 210.877 249.729 210.8 250.159C210.724 250.589 210.685 251.08 210.685 251.629ZM219.132 248.331V246.682H227.416V248.331H224.214V256.5H222.347V248.331H219.132ZM228.617 253.726C228.617 253.3 228.666 252.937 228.764 252.639C228.867 252.337 229.005 252.083 229.18 251.879C229.354 251.674 229.561 251.51 229.8 251.386C230.043 251.259 230.303 251.158 230.58 251.086C230.857 251.009 231.148 250.95 231.455 250.907C231.762 250.864 232.071 250.826 232.382 250.792C232.676 250.758 232.94 250.737 233.175 250.728C233.413 250.715 233.624 250.705 233.808 250.696C233.991 250.688 234.148 250.673 234.281 250.651C234.417 250.63 234.528 250.594 234.613 250.543C234.698 250.487 234.76 250.411 234.798 250.312C234.841 250.21 234.862 250.074 234.862 249.903V249.859C234.862 249.501 234.837 249.209 234.786 248.983C234.739 248.753 234.647 248.574 234.511 248.446C234.374 248.314 234.185 248.224 233.942 248.178C233.699 248.126 233.384 248.101 232.996 248.101C232.595 248.101 232.263 248.139 231.999 248.216C231.739 248.293 231.526 248.395 231.359 248.523C231.193 248.651 231.061 248.798 230.963 248.964C230.869 249.126 230.786 249.294 230.714 249.469L228.918 249.06C229.08 248.612 229.282 248.231 229.525 247.915C229.772 247.596 230.062 247.336 230.394 247.136C230.731 246.935 231.112 246.788 231.538 246.695C231.969 246.601 232.446 246.554 232.97 246.554C233.286 246.554 233.597 246.565 233.903 246.586C234.215 246.607 234.511 246.658 234.792 246.739C235.073 246.816 235.335 246.929 235.578 247.078C235.821 247.227 236.032 247.43 236.211 247.685C236.39 247.937 236.528 248.25 236.626 248.625C236.729 249 236.78 249.452 236.78 249.98V256.5H234.913V255.158H234.837C234.747 255.341 234.636 255.526 234.504 255.714C234.372 255.897 234.195 256.063 233.974 256.212C233.756 256.362 233.484 256.483 233.156 256.577C232.827 256.67 232.421 256.717 231.935 256.717C231.389 256.717 230.91 256.67 230.496 256.577C230.083 256.483 229.736 256.321 229.455 256.091C229.178 255.861 228.969 255.554 228.828 255.17C228.688 254.787 228.617 254.305 228.617 253.726ZM232.35 255.183C232.827 255.183 233.226 255.136 233.546 255.043C233.869 254.949 234.129 254.81 234.325 254.627C234.521 254.44 234.66 254.207 234.741 253.93C234.826 253.653 234.869 253.33 234.869 252.959V251.693C234.822 251.74 234.745 251.783 234.639 251.821C234.536 251.859 234.413 251.898 234.268 251.936C234.127 251.97 233.976 252.002 233.814 252.032C233.652 252.058 233.49 252.083 233.328 252.109C233.171 252.13 233.019 252.151 232.874 252.173C232.729 252.19 232.606 252.205 232.504 252.217C232.227 252.256 231.965 252.294 231.717 252.332C231.474 252.371 231.261 252.439 231.078 252.537C230.899 252.635 230.756 252.778 230.65 252.965C230.543 253.153 230.49 253.415 230.49 253.751C230.49 254.067 230.52 254.32 230.58 254.512C230.644 254.7 230.748 254.844 230.893 254.947C231.038 255.045 231.229 255.109 231.468 255.138C231.707 255.168 232.001 255.183 232.35 255.183ZM238.314 246.682H240.225V250.837H242.404C242.477 250.189 242.62 249.601 242.833 249.072C243.05 248.544 243.344 248.094 243.715 247.724C244.086 247.349 244.535 247.061 245.064 246.861C245.592 246.656 246.203 246.554 246.898 246.554C248.432 246.554 249.572 246.98 250.318 247.832C251.068 248.68 251.443 249.946 251.443 251.629C251.443 253.295 251.068 254.557 250.318 255.413C249.572 256.27 248.432 256.698 246.898 256.698C246.203 256.698 245.592 256.598 245.064 256.398C244.539 256.197 244.094 255.914 243.728 255.548C243.361 255.181 243.069 254.74 242.852 254.224C242.635 253.709 242.488 253.134 242.411 252.499H240.225V256.5H238.314V246.682ZM246.898 255.062C247.443 255.062 247.889 254.985 248.234 254.832C248.579 254.678 248.85 254.457 249.046 254.167C249.246 253.873 249.382 253.513 249.455 253.087C249.532 252.661 249.57 252.175 249.57 251.629C249.57 251.08 249.532 250.592 249.455 250.165C249.382 249.735 249.246 249.373 249.046 249.079C248.85 248.785 248.579 248.561 248.234 248.408C247.889 248.254 247.443 248.178 246.898 248.178C246.357 248.178 245.912 248.254 245.562 248.408C245.217 248.561 244.944 248.785 244.744 249.079C244.548 249.373 244.412 249.735 244.335 250.165C244.262 250.592 244.226 251.08 244.226 251.629C244.226 252.175 244.262 252.661 244.335 253.087C244.412 253.513 244.548 253.873 244.744 254.167C244.944 254.457 245.217 254.678 245.562 254.832C245.912 254.985 246.357 255.062 246.898 255.062ZM252.786 248.331V246.682H261.07V248.331H257.868V256.5H256.001V248.331H252.786ZM267.136 256.5V246.682H269.008V250.766H273.259V246.682H275.126V256.5H273.259V252.422H269.008V256.5H267.136ZM276.862 253.726C276.862 253.3 276.911 252.937 277.009 252.639C277.111 252.337 277.25 252.083 277.425 251.879C277.599 251.674 277.806 251.51 278.045 251.386C278.288 251.259 278.548 251.158 278.825 251.086C279.102 251.009 279.393 250.95 279.7 250.907C280.007 250.864 280.316 250.826 280.627 250.792C280.921 250.758 281.185 250.737 281.42 250.728C281.658 250.715 281.869 250.705 282.052 250.696C282.236 250.688 282.393 250.673 282.526 250.651C282.662 250.63 282.773 250.594 282.858 250.543C282.943 250.487 283.005 250.411 283.043 250.312C283.086 250.21 283.107 250.074 283.107 249.903V249.859C283.107 249.501 283.082 249.209 283.03 248.983C282.984 248.753 282.892 248.574 282.756 248.446C282.619 248.314 282.43 248.224 282.187 248.178C281.944 248.126 281.628 248.101 281.241 248.101C280.84 248.101 280.508 248.139 280.244 248.216C279.984 248.293 279.771 248.395 279.604 248.523C279.438 248.651 279.306 248.798 279.208 248.964C279.114 249.126 279.031 249.294 278.959 249.469L277.163 249.06C277.325 248.612 277.527 248.231 277.77 247.915C278.017 247.596 278.307 247.336 278.639 247.136C278.976 246.935 279.357 246.788 279.783 246.695C280.214 246.601 280.691 246.554 281.215 246.554C281.53 246.554 281.842 246.565 282.148 246.586C282.459 246.607 282.756 246.658 283.037 246.739C283.318 246.816 283.58 246.929 283.823 247.078C284.066 247.227 284.277 247.43 284.456 247.685C284.635 247.937 284.773 248.25 284.871 248.625C284.974 249 285.025 249.452 285.025 249.98V256.5H283.158V255.158H283.082C282.992 255.341 282.881 255.526 282.749 255.714C282.617 255.897 282.44 256.063 282.219 256.212C282.001 256.362 281.729 256.483 281.401 256.577C281.072 256.67 280.665 256.717 280.18 256.717C279.634 256.717 279.155 256.67 278.741 256.577C278.328 256.483 277.981 256.321 277.7 256.091C277.423 255.861 277.214 255.554 277.073 255.17C276.932 254.787 276.862 254.305 276.862 253.726ZM280.595 255.183C281.072 255.183 281.471 255.136 281.79 255.043C282.114 254.949 282.374 254.81 282.57 254.627C282.766 254.44 282.905 254.207 282.986 253.93C283.071 253.653 283.114 253.33 283.114 252.959V251.693C283.067 251.74 282.99 251.783 282.883 251.821C282.781 251.859 282.658 251.898 282.513 251.936C282.372 251.97 282.221 252.002 282.059 252.032C281.897 252.058 281.735 252.083 281.573 252.109C281.415 252.13 281.264 252.151 281.119 252.173C280.974 252.19 280.851 252.205 280.749 252.217C280.472 252.256 280.209 252.294 279.962 252.332C279.719 252.371 279.506 252.439 279.323 252.537C279.144 252.635 279.001 252.778 278.895 252.965C278.788 253.153 278.735 253.415 278.735 253.751C278.735 254.067 278.765 254.32 278.825 254.512C278.888 254.7 278.993 254.844 279.138 254.947C279.283 255.045 279.474 255.109 279.713 255.138C279.952 255.168 280.246 255.183 280.595 255.183ZM99.2848 273.682H103.357C103.991 273.682 104.535 273.729 104.987 273.822C105.442 273.912 105.815 274.061 106.105 274.27C106.399 274.474 106.614 274.745 106.751 275.082C106.891 275.414 106.962 275.821 106.962 276.303C106.962 276.669 106.913 276.978 106.815 277.229C106.721 277.481 106.587 277.69 106.412 277.856C106.237 278.022 106.026 278.152 105.779 278.246C105.532 278.339 105.257 278.416 104.955 278.476C105.283 278.514 105.594 278.576 105.888 278.661C106.182 278.746 106.44 278.879 106.661 279.058C106.883 279.232 107.058 279.464 107.185 279.754C107.317 280.044 107.384 280.411 107.384 280.854C107.384 281.322 107.322 281.725 107.198 282.062C107.075 282.394 106.876 282.667 106.604 282.88C106.335 283.093 105.984 283.251 105.549 283.353C105.119 283.451 104.594 283.5 103.977 283.5H99.2848V273.682ZM101.081 279.173V281.902H103.977C104.292 281.902 104.548 281.889 104.744 281.864C104.944 281.834 105.099 281.774 105.21 281.685C105.321 281.595 105.396 281.467 105.434 281.301C105.472 281.135 105.491 280.915 105.491 280.643C105.491 280.336 105.472 280.087 105.434 279.895C105.396 279.703 105.321 279.554 105.21 279.447C105.099 279.341 104.944 279.268 104.744 279.23C104.548 279.192 104.292 279.173 103.977 279.173H101.081ZM101.081 275.299V277.773H103.376C103.721 277.773 104.004 277.76 104.226 277.734C104.452 277.705 104.629 277.645 104.756 277.555C104.888 277.466 104.978 277.338 105.025 277.172C105.076 277.006 105.102 276.784 105.102 276.507C105.102 276.239 105.076 276.026 105.025 275.868C104.978 275.706 104.888 275.585 104.756 275.504C104.624 275.418 104.445 275.363 104.219 275.337C103.998 275.312 103.71 275.299 103.357 275.299H101.081ZM108.66 280.726C108.66 280.3 108.709 279.937 108.807 279.639C108.909 279.337 109.048 279.083 109.222 278.879C109.397 278.674 109.604 278.51 109.842 278.386C110.085 278.259 110.345 278.158 110.622 278.086C110.899 278.009 111.191 277.95 111.498 277.907C111.805 277.864 112.114 277.826 112.425 277.792C112.719 277.758 112.983 277.737 113.217 277.728C113.456 277.715 113.667 277.705 113.85 277.696C114.033 277.688 114.191 277.673 114.323 277.651C114.46 277.63 114.57 277.594 114.656 277.543C114.741 277.487 114.803 277.411 114.841 277.312C114.884 277.21 114.905 277.074 114.905 276.903V276.859C114.905 276.501 114.879 276.209 114.828 275.983C114.781 275.753 114.69 275.574 114.553 275.446C114.417 275.314 114.227 275.224 113.984 275.178C113.742 275.126 113.426 275.101 113.038 275.101C112.638 275.101 112.305 275.139 112.041 275.216C111.781 275.293 111.568 275.395 111.402 275.523C111.236 275.651 111.104 275.798 111.006 275.964C110.912 276.126 110.829 276.294 110.756 276.469L108.96 276.06C109.122 275.612 109.325 275.231 109.568 274.915C109.815 274.596 110.104 274.336 110.437 274.136C110.774 273.935 111.155 273.788 111.581 273.695C112.011 273.601 112.489 273.554 113.013 273.554C113.328 273.554 113.639 273.565 113.946 273.586C114.257 273.607 114.553 273.658 114.835 273.739C115.116 273.816 115.378 273.929 115.621 274.078C115.864 274.227 116.075 274.43 116.254 274.685C116.433 274.937 116.571 275.25 116.669 275.625C116.771 276 116.823 276.452 116.823 276.98V283.5H114.956V282.158H114.879C114.79 282.341 114.679 282.526 114.547 282.714C114.415 282.897 114.238 283.063 114.016 283.212C113.799 283.362 113.526 283.483 113.198 283.577C112.87 283.67 112.463 283.717 111.977 283.717C111.432 283.717 110.953 283.67 110.539 283.577C110.126 283.483 109.778 283.321 109.497 283.091C109.22 282.861 109.011 282.554 108.871 282.17C108.73 281.787 108.66 281.305 108.66 280.726ZM112.393 282.183C112.87 282.183 113.269 282.136 113.588 282.043C113.912 281.949 114.172 281.81 114.368 281.627C114.564 281.44 114.703 281.207 114.783 280.93C114.869 280.653 114.911 280.33 114.911 279.959V278.693C114.864 278.74 114.788 278.783 114.681 278.821C114.579 278.859 114.455 278.898 114.31 278.936C114.17 278.97 114.019 279.002 113.857 279.032C113.695 279.058 113.533 279.083 113.371 279.109C113.213 279.13 113.062 279.151 112.917 279.173C112.772 279.19 112.649 279.205 112.546 279.217C112.269 279.256 112.007 279.294 111.76 279.332C111.517 279.371 111.304 279.439 111.121 279.537C110.942 279.635 110.799 279.778 110.693 279.965C110.586 280.153 110.533 280.415 110.533 280.751C110.533 281.067 110.563 281.32 110.622 281.512C110.686 281.7 110.791 281.844 110.935 281.947C111.08 282.045 111.272 282.109 111.511 282.138C111.749 282.168 112.043 282.183 112.393 282.183ZM119.008 273.682H120.881V281.844H124.275V273.682H126.148V281.844H129.542V273.682H131.415V283.5H119.008V273.682ZM138.011 287.182V273.682H139.877V275.273H140.037C140.092 275.171 140.15 275.058 140.21 274.935C140.274 274.811 140.35 274.685 140.44 274.558C140.534 274.43 140.644 274.306 140.772 274.187C140.9 274.067 141.058 273.961 141.245 273.867C141.437 273.773 141.663 273.699 141.923 273.643C142.187 273.584 142.498 273.554 142.856 273.554C143.529 273.554 144.122 273.669 144.633 273.899C145.149 274.125 145.579 274.455 145.924 274.89C146.274 275.32 146.536 275.849 146.71 276.475C146.889 277.102 146.979 277.813 146.979 278.61C146.979 279.403 146.892 280.114 146.717 280.745C146.542 281.371 146.282 281.904 145.937 282.343C145.592 282.778 145.164 283.112 144.652 283.347C144.141 283.577 143.548 283.692 142.875 283.692C142.526 283.692 142.219 283.664 141.955 283.609C141.695 283.553 141.469 283.479 141.277 283.385C141.085 283.291 140.923 283.185 140.791 283.065C140.664 282.946 140.553 282.822 140.459 282.695C140.365 282.567 140.284 282.441 140.216 282.317C140.152 282.19 140.092 282.075 140.037 281.972H139.922V287.182H138.011ZM140.037 278.591C140.037 279.187 140.069 279.705 140.133 280.144C140.201 280.579 140.325 280.939 140.504 281.224C140.683 281.506 140.928 281.717 141.239 281.857C141.554 281.994 141.957 282.062 142.447 282.062C142.954 282.062 143.374 281.989 143.706 281.844C144.043 281.695 144.309 281.476 144.505 281.186C144.705 280.892 144.846 280.53 144.927 280.099C145.008 279.665 145.048 279.162 145.048 278.591C145.048 278.024 145.008 277.528 144.927 277.102C144.85 276.675 144.714 276.32 144.518 276.034C144.322 275.749 144.056 275.536 143.719 275.395C143.382 275.25 142.958 275.178 142.447 275.178C141.948 275.178 141.541 275.246 141.226 275.382C140.915 275.514 140.67 275.719 140.491 275.996C140.316 276.273 140.197 276.626 140.133 277.057C140.069 277.487 140.037 277.999 140.037 278.591ZM148.319 278.655C148.319 276.984 148.694 275.717 149.444 274.852C150.194 273.987 151.332 273.554 152.857 273.554C153.492 273.554 154.076 273.631 154.609 273.784C155.142 273.933 155.6 274.195 155.983 274.57C156.367 274.945 156.665 275.45 156.878 276.085C157.095 276.72 157.204 277.521 157.204 278.489V279.166H150.224C150.237 279.686 150.296 280.134 150.403 280.509C150.514 280.879 150.68 281.184 150.902 281.423C151.127 281.661 151.413 281.838 151.758 281.953C152.103 282.064 152.521 282.119 153.011 282.119C153.365 282.119 153.665 282.089 153.912 282.03C154.159 281.97 154.368 281.883 154.539 281.768C154.713 281.648 154.858 281.501 154.973 281.327C155.088 281.152 155.188 280.95 155.274 280.719L157.083 281.045C156.976 281.446 156.816 281.81 156.603 282.138C156.394 282.462 156.124 282.741 155.791 282.976C155.463 283.206 155.067 283.383 154.603 283.506C154.142 283.634 153.605 283.698 152.992 283.698C152.186 283.698 151.49 283.587 150.902 283.366C150.318 283.144 149.834 282.82 149.451 282.394C149.067 281.964 148.781 281.435 148.594 280.809C148.411 280.183 148.319 279.464 148.319 278.655ZM150.23 277.734H155.331C155.331 277.278 155.286 276.886 155.197 276.558C155.112 276.23 154.971 275.962 154.775 275.753C154.579 275.54 154.326 275.384 154.014 275.286C153.703 275.184 153.322 275.133 152.87 275.133C152.402 275.133 152.003 275.188 151.675 275.299C151.351 275.41 151.085 275.574 150.876 275.791C150.667 276.009 150.512 276.279 150.409 276.603C150.311 276.927 150.252 277.304 150.23 277.734ZM158.383 280.905H160.339C160.352 281.186 160.39 281.41 160.454 281.576C160.522 281.742 160.627 281.868 160.767 281.953C160.912 282.038 161.1 282.094 161.33 282.119C161.564 282.145 161.856 282.158 162.205 282.158C162.559 282.158 162.862 282.145 163.113 282.119C163.365 282.089 163.569 282.026 163.727 281.928C163.889 281.825 164.006 281.678 164.078 281.487C164.155 281.295 164.193 281.033 164.193 280.7C164.193 280.398 164.166 280.151 164.11 279.959C164.059 279.767 163.965 279.616 163.829 279.505C163.693 279.394 163.509 279.317 163.279 279.275C163.053 279.232 162.764 279.211 162.41 279.211H160.812V277.709H162.41C162.759 277.709 163.041 277.692 163.254 277.658C163.467 277.624 163.631 277.56 163.746 277.466C163.861 277.368 163.936 277.236 163.97 277.07C164.008 276.899 164.027 276.68 164.027 276.411C164.027 276.13 164.006 275.904 163.963 275.734C163.921 275.559 163.84 275.423 163.72 275.325C163.601 275.227 163.435 275.161 163.222 275.126C163.009 275.092 162.734 275.075 162.397 275.075C162.056 275.075 161.771 275.092 161.541 275.126C161.311 275.156 161.123 275.216 160.978 275.305C160.838 275.395 160.733 275.521 160.665 275.683C160.601 275.844 160.565 276.058 160.556 276.322H158.626C158.626 275.827 158.703 275.406 158.856 275.056C159.014 274.707 159.246 274.421 159.553 274.2C159.864 273.978 160.247 273.816 160.703 273.714C161.164 273.607 161.696 273.554 162.301 273.554C162.928 273.554 163.465 273.607 163.912 273.714C164.364 273.816 164.735 273.98 165.024 274.206C165.314 274.428 165.527 274.713 165.664 275.062C165.8 275.408 165.868 275.821 165.868 276.303C165.868 276.652 165.825 276.944 165.74 277.178C165.655 277.408 165.536 277.6 165.382 277.754C165.229 277.903 165.046 278.024 164.833 278.118C164.619 278.212 164.385 278.295 164.129 278.367V278.469C164.415 278.487 164.677 278.542 164.916 278.636C165.154 278.729 165.359 278.868 165.529 279.051C165.704 279.234 165.838 279.467 165.932 279.748C166.03 280.029 166.079 280.37 166.079 280.771C166.079 281.299 165.998 281.751 165.836 282.126C165.674 282.496 165.431 282.799 165.107 283.033C164.788 283.263 164.387 283.432 163.906 283.538C163.424 283.645 162.864 283.698 162.225 283.698C161.598 283.698 161.046 283.647 160.569 283.545C160.092 283.447 159.691 283.287 159.367 283.065C159.043 282.844 158.798 282.556 158.632 282.202C158.466 281.844 158.383 281.412 158.383 280.905ZM168.965 273.682L171.451 281.301H171.553L174.04 273.682L176.104 273.701L172.046 284.81C171.764 285.573 171.366 286.155 170.85 286.555C170.339 286.956 169.689 287.156 168.901 287.156C168.611 287.156 168.349 287.135 168.114 287.092C167.884 287.05 167.712 287.001 167.597 286.945L168.057 285.379C168.359 285.464 168.628 285.507 168.862 285.507C169.016 285.507 169.158 285.486 169.291 285.443C169.427 285.401 169.553 285.33 169.668 285.232C169.783 285.138 169.889 285.013 169.987 284.855C170.09 284.702 170.185 284.51 170.275 284.28L170.511 283.628L166.919 273.682H168.965ZM176.766 281.844H177.117C177.471 281.844 177.746 281.789 177.942 281.678C178.138 281.563 178.285 281.363 178.383 281.077C178.481 280.788 178.547 280.398 178.581 279.908C178.615 279.413 178.647 278.787 178.677 278.028L178.849 273.682H185.702V283.5H183.829V275.331H180.62L180.467 278.668C180.441 279.209 180.403 279.705 180.352 280.157C180.305 280.604 180.234 281.007 180.141 281.365C180.051 281.723 179.934 282.036 179.789 282.305C179.644 282.569 179.461 282.79 179.239 282.969C179.022 283.148 178.76 283.283 178.453 283.372C178.151 283.457 177.795 283.5 177.386 283.5H176.772L176.766 281.844ZM189.763 273.682V277.057H192.18C192.861 277.057 193.439 277.121 193.912 277.249C194.389 277.376 194.777 277.572 195.075 277.837C195.373 278.097 195.589 278.429 195.721 278.834C195.857 279.234 195.925 279.71 195.925 280.259C195.925 280.8 195.857 281.273 195.721 281.678C195.589 282.083 195.373 282.422 195.075 282.695C194.777 282.963 194.389 283.165 193.912 283.302C193.439 283.434 192.861 283.5 192.18 283.5H187.891V273.682H189.763ZM189.763 281.851H192.18C192.533 281.851 192.829 281.827 193.068 281.781C193.311 281.734 193.505 281.653 193.65 281.538C193.799 281.423 193.905 281.267 193.969 281.071C194.033 280.871 194.065 280.619 194.065 280.317C194.065 280.001 194.033 279.739 193.969 279.531C193.905 279.322 193.799 279.158 193.65 279.038C193.505 278.915 193.311 278.83 193.068 278.783C192.829 278.732 192.533 278.706 192.18 278.706H189.763V281.851ZM197.159 275.331V273.682H205.443V275.331H202.24V283.5H200.374V275.331H197.159ZM206.644 280.726C206.644 280.3 206.693 279.937 206.791 279.639C206.893 279.337 207.032 279.083 207.206 278.879C207.381 278.674 207.588 278.51 207.826 278.386C208.069 278.259 208.329 278.158 208.606 278.086C208.883 278.009 209.175 277.95 209.482 277.907C209.789 277.864 210.098 277.826 210.409 277.792C210.703 277.758 210.967 277.737 211.201 277.728C211.44 277.715 211.651 277.705 211.834 277.696C212.017 277.688 212.175 277.673 212.307 277.651C212.444 277.63 212.554 277.594 212.64 277.543C212.725 277.487 212.787 277.411 212.825 277.312C212.868 277.21 212.889 277.074 212.889 276.903V276.859C212.889 276.501 212.863 276.209 212.812 275.983C212.765 275.753 212.674 275.574 212.537 275.446C212.401 275.314 212.211 275.224 211.968 275.178C211.726 275.126 211.41 275.101 211.022 275.101C210.622 275.101 210.289 275.139 210.025 275.216C209.765 275.293 209.552 275.395 209.386 275.523C209.22 275.651 209.088 275.798 208.99 275.964C208.896 276.126 208.813 276.294 208.74 276.469L206.944 276.06C207.106 275.612 207.309 275.231 207.552 274.915C207.799 274.596 208.088 274.336 208.421 274.136C208.758 273.935 209.139 273.788 209.565 273.695C209.995 273.601 210.473 273.554 210.997 273.554C211.312 273.554 211.623 273.565 211.93 273.586C212.241 273.607 212.537 273.658 212.819 273.739C213.1 273.816 213.362 273.929 213.605 274.078C213.848 274.227 214.059 274.43 214.238 274.685C214.417 274.937 214.555 275.25 214.653 275.625C214.755 276 214.807 276.452 214.807 276.98V283.5H212.94V282.158H212.863C212.774 282.341 212.663 282.526 212.531 282.714C212.399 282.897 212.222 283.063 212 283.212C211.783 283.362 211.51 283.483 211.182 283.577C210.854 283.67 210.447 283.717 209.961 283.717C209.416 283.717 208.936 283.67 208.523 283.577C208.11 283.483 207.762 283.321 207.481 283.091C207.204 282.861 206.995 282.554 206.855 282.17C206.714 281.787 206.644 281.305 206.644 280.726ZM210.377 282.183C210.854 282.183 211.253 282.136 211.572 282.043C211.896 281.949 212.156 281.81 212.352 281.627C212.548 281.44 212.686 281.207 212.767 280.93C212.853 280.653 212.895 280.33 212.895 279.959V278.693C212.848 278.74 212.772 278.783 212.665 278.821C212.563 278.859 212.439 278.898 212.294 278.936C212.154 278.97 212.003 279.002 211.841 279.032C211.679 279.058 211.517 279.083 211.355 279.109C211.197 279.13 211.046 279.151 210.901 279.173C210.756 279.19 210.633 279.205 210.53 279.217C210.253 279.256 209.991 279.294 209.744 279.332C209.501 279.371 209.288 279.439 209.105 279.537C208.926 279.635 208.783 279.778 208.677 279.965C208.57 280.153 208.517 280.415 208.517 280.751C208.517 281.067 208.547 281.32 208.606 281.512C208.67 281.7 208.775 281.844 208.919 281.947C209.064 282.045 209.256 282.109 209.495 282.138C209.733 282.168 210.027 282.183 210.377 282.183ZM216.442 275.331V273.682H224.727V275.331H221.524V283.5H219.658V275.331H216.442Z" fill="#AAADB5"/>
<circle cx="211" cy="211" r="176" stroke="#282829" stroke-width="8"/>
<defs>
<filter id="filter0_i_2765_7260" x="0" y="0" width="422" height="424" filterUnits="userSpaceOnUse" color-interpolation-filters="sRGB">
<feFlood flood-opacity="0" result="BackgroundImageFix"/>
<feBlend mode="normal" in="SourceGraphic" in2="BackgroundImageFix" result="shape"/>
<feColorMatrix in="SourceAlpha" type="matrix" values="0 0 0 0 0 0 0 0 0 0 0 0 0 0 0 0 0 0 127 0" result="hardAlpha"/>
<feOffset dy="2"/>
<feGaussianBlur stdDeviation="1"/>
<feComposite in2="hardAlpha" operator="arithmetic" k2="-1" k3="1"/>
<feColorMatrix type="matrix" values="0 0 0 0 0 0 0 0 0 0 0 0 0 0 0 0 0 0 0.25 0"/>
<feBlend mode="normal" in2="shape" result="effect1_innerShadow_2765_7260"/>
</filter>
</defs>
</svg>
