<svg width="423" height="423" viewBox="0 0 423 423" fill="none" xmlns="http://www.w3.org/2000/svg">
<circle cx="211" cy="211" r="176" stroke="#282829" stroke-width="8"/>
<g filter="url(#filter0_i_2765_7320)">
<rect x="197.516" width="5.24383" height="19.1483" rx="2.62192" fill="#FF2B44"/>
<rect width="5.15261" height="17.9698" rx="2.5763" transform="matrix(0.966192 0.257825 -0.259816 0.965658 253.541 4.19531)" fill="#FF2B44"/>
<rect width="5.14873" height="17.9834" rx="2.57436" transform="matrix(0.866916 0.498454 -0.501547 0.86513 305.91 22.1562)" fill="#FF2B44"/>
<rect width="5.14343" height="18.002" rx="2.57171" transform="matrix(0.708563 0.705647 -0.708563 0.705647 351.824 53.0039)" fill="#FF2B44"/>
<rect width="5.13812" height="18.0206" rx="2.56906" transform="matrix(0.501547 0.86513 -0.866916 0.498454 388.156 94.6328)" fill="#FF2B44"/>
<rect width="5.13424" height="18.0341" rx="2.56712" transform="matrix(0.259816 0.965658 -0.966192 0.257825 412.436 144.207)" fill="#FF2B44"/>
<rect x="423.002" y="198.445" width="5.22225" height="17.4794" rx="2.61113" transform="rotate(90 423.002 198.445)" fill="#FF2B44"/>
<rect width="5.13424" height="18.0341" rx="2.56712" transform="matrix(-0.259816 0.965658 -0.966192 -0.257825 419.137 253.375)" fill="#696B74"/>
<rect width="5.13812" height="18.0206" rx="2.56906" transform="matrix(-0.501547 0.86513 -0.866916 -0.498454 401.104 305.531)" fill="#696B74"/>
<rect width="5.14343" height="18.002" rx="2.57171" transform="matrix(-0.708563 0.705647 -0.708563 -0.705647 370.129 351.254)" fill="#696B74"/>
<rect width="5.14873" height="17.9834" rx="2.57436" transform="matrix(-0.866916 0.498454 -0.501547 -0.86513 328.328 387.438)" fill="#696B74"/>
<rect width="5.15261" height="17.9698" rx="2.5763" transform="matrix(-0.966192 0.257825 -0.259816 -0.965658 278.547 411.617)" fill="#696B74"/>
<rect x="223.738" y="423" width="5.24383" height="19.1483" rx="2.62192" transform="rotate(-180 223.738 423)" fill="#696B74"/>
<rect width="5.15261" height="17.9698" rx="2.5763" transform="matrix(-0.966192 -0.257825 0.259816 -0.965658 168.928 418.293)" fill="#696B74"/>
<rect width="5.14873" height="17.9834" rx="2.57436" transform="matrix(-0.866916 -0.498454 0.501547 -0.86513 116.559 400.332)" fill="#696B74"/>
<rect width="5.14343" height="18.002" rx="2.57171" transform="matrix(-0.708563 -0.705647 0.708563 -0.705647 70.6426 369.484)" fill="#696B74"/>
<rect width="5.13812" height="18.0206" rx="2.56906" transform="matrix(-0.501547 -0.86513 0.866916 -0.498454 34.3086 327.859)" fill="#696B74"/>
<rect width="5.13424" height="18.0341" rx="2.56712" transform="matrix(-0.259816 -0.965658 0.966191 -0.257825 10.0312 278.281)" fill="#696B74"/>
<rect y="224.555" width="5.22225" height="17.4794" rx="2.61113" transform="rotate(-90 0 224.555)" fill="#696B74"/>
<rect width="5.13424" height="18.0341" rx="2.56712" transform="matrix(0.259816 -0.965658 0.966191 0.257825 3.33008 169.117)" fill="#696B74"/>
<rect width="5.13812" height="18.0206" rx="2.56906" transform="matrix(0.501547 -0.86513 0.866916 0.498454 21.3633 116.961)" fill="#696B74"/>
<rect width="5.14343" height="18.002" rx="2.57171" transform="matrix(0.708563 -0.705647 0.708563 0.705647 52.3379 71.2344)" fill="#696B74"/>
<rect width="5.14873" height="17.9834" rx="2.57436" transform="matrix(0.866916 -0.498454 0.501547 0.86513 94.1387 35.0469)" fill="#696B74"/>
<rect width="5.15261" height="17.9698" rx="2.5763" transform="matrix(0.966191 -0.257825 0.259816 0.965658 143.918 10.8672)" fill="#696B74"/>
</g>
<path d="M101.318 176.341H111.227C111.227 177.477 111.424 178.417 111.818 179.159C112.227 179.886 112.78 180.462 113.477 180.886C114.189 181.311 115.015 181.606 115.955 181.773C116.894 181.939 117.909 182.023 119 182.023C120.121 182.023 121.152 181.924 122.091 181.727C123.03 181.53 123.841 181.197 124.523 180.727C125.205 180.242 125.727 179.598 126.091 178.795C126.47 177.992 126.659 176.985 126.659 175.773C126.659 174.545 126.515 173.523 126.227 172.705C125.939 171.886 125.462 171.235 124.795 170.75C124.129 170.25 123.25 169.902 122.159 169.705C121.068 169.492 119.72 169.386 118.114 169.386H113.773V162.159H118.114C119.523 162.159 120.705 162.068 121.659 161.886C122.629 161.689 123.409 161.356 124 160.886C124.606 160.417 125.038 159.788 125.295 159C125.553 158.212 125.682 157.22 125.682 156.023C125.682 154.856 125.576 153.894 125.364 153.136C125.167 152.379 124.811 151.78 124.295 151.341C123.795 150.886 123.114 150.568 122.25 150.386C121.402 150.205 120.341 150.114 119.068 150.114C117.78 150.114 116.667 150.197 115.727 150.364C114.803 150.53 114.038 150.833 113.432 151.273C112.841 151.712 112.402 152.311 112.114 153.068C111.826 153.826 111.682 154.788 111.682 155.955H102.25C102.25 153.652 102.629 151.652 103.386 149.955C104.144 148.242 105.242 146.826 106.682 145.705C108.121 144.568 109.886 143.72 111.977 143.159C114.068 142.598 116.447 142.318 119.114 142.318C124.508 142.318 128.53 143.447 131.182 145.705C133.848 147.947 135.174 151.189 135.159 155.432C135.159 157.023 134.947 158.417 134.523 159.614C134.098 160.795 133.5 161.803 132.727 162.636C131.955 163.47 131.03 164.144 129.955 164.659C128.879 165.174 127.689 165.545 126.386 165.773C128.098 165.985 129.606 166.341 130.909 166.841C132.227 167.326 133.326 167.992 134.205 168.841C135.098 169.674 135.765 170.72 136.205 171.977C136.659 173.22 136.886 174.705 136.886 176.432C136.886 178.705 136.447 180.697 135.568 182.409C134.689 184.121 133.455 185.553 131.864 186.705C130.273 187.841 128.379 188.697 126.182 189.273C124 189.848 121.598 190.136 118.977 190.136C116.417 190.136 114.053 189.856 111.886 189.295C109.735 188.72 107.871 187.864 106.295 186.727C104.735 185.576 103.515 184.136 102.636 182.409C101.758 180.682 101.318 178.659 101.318 176.341ZM152.385 176.341C152.385 177.523 152.529 178.508 152.817 179.295C153.104 180.068 153.544 180.689 154.135 181.159C154.741 181.614 155.498 181.939 156.408 182.136C157.332 182.318 158.423 182.409 159.68 182.409C161.12 182.409 162.339 182.265 163.339 181.977C164.339 181.674 165.15 181.205 165.771 180.568C166.408 179.917 166.87 179.076 167.158 178.045C167.445 177 167.589 175.727 167.589 174.227C167.589 172.727 167.438 171.455 167.135 170.409C166.847 169.348 166.385 168.492 165.748 167.841C165.112 167.174 164.279 166.689 163.248 166.386C162.233 166.083 160.998 165.932 159.544 165.932C158.574 165.932 157.733 166.008 157.021 166.159C156.309 166.295 155.68 166.5 155.135 166.773C154.604 167.045 154.135 167.379 153.726 167.773C153.332 168.152 152.953 168.583 152.589 169.068L143.839 167.5L146.044 142.955H174.498V151H154.158L152.953 162.659H153.226C153.635 162.083 154.097 161.553 154.612 161.068C155.142 160.583 155.771 160.167 156.498 159.818C157.226 159.455 158.074 159.174 159.044 158.977C160.029 158.765 161.173 158.659 162.476 158.659C167.233 158.659 170.854 159.955 173.339 162.545C175.839 165.136 177.082 168.947 177.067 173.977C177.082 179.25 175.627 183.265 172.703 186.023C169.779 188.765 165.438 190.136 159.68 190.136C156.983 190.136 154.589 189.848 152.498 189.273C150.408 188.697 148.642 187.833 147.203 186.682C145.779 185.53 144.695 184.091 143.953 182.364C143.211 180.636 142.839 178.629 142.839 176.341H152.385ZM184.537 162.25H196.559V150.227H204.696V162.25H216.718V170.386H204.696V182.409H196.559V170.386H184.537V162.25Z" fill="white"/>
<path d="M98.8438 224.636C98.8438 222.948 99.2209 221.68 99.9751 220.832C100.729 219.98 101.878 219.554 103.42 219.554C104.963 219.554 106.112 219.98 106.866 220.832C107.62 221.68 107.997 222.948 107.997 224.636C107.997 226.315 107.62 227.578 106.866 228.426C106.112 229.274 104.963 229.698 103.42 229.698C101.878 229.698 100.729 229.274 99.9751 228.426C99.2209 227.578 98.8438 226.315 98.8438 224.636ZM100.774 224.629C100.774 225.179 100.813 225.669 100.889 226.099C100.966 226.53 101.102 226.894 101.298 227.192C101.499 227.487 101.769 227.71 102.11 227.864C102.455 228.017 102.894 228.094 103.427 228.094C103.955 228.094 104.39 228.017 104.731 227.864C105.072 227.71 105.34 227.487 105.536 227.192C105.737 226.894 105.875 226.53 105.952 226.099C106.028 225.669 106.067 225.179 106.067 224.629C106.067 224.08 106.028 223.589 105.952 223.159C105.875 222.729 105.737 222.364 105.536 222.066C105.34 221.768 105.072 221.542 104.731 221.388C104.39 221.231 103.955 221.152 103.427 221.152C102.894 221.152 102.455 221.231 102.11 221.388C101.769 221.542 101.499 221.768 101.298 222.066C101.102 222.364 100.966 222.729 100.889 223.159C100.813 223.589 100.774 224.08 100.774 224.629ZM109.771 229.5V219.682H117.78V229.5H115.907V221.331H111.631V229.5H109.771ZM119.975 219.682H121.848V223.057H124.264C124.946 223.057 125.523 223.121 125.996 223.249C126.474 223.376 126.861 223.572 127.16 223.837C127.458 224.097 127.673 224.429 127.805 224.834C127.942 225.234 128.01 225.71 128.01 226.259C128.01 226.8 127.942 227.273 127.805 227.678C127.673 228.083 127.458 228.422 127.16 228.695C126.861 228.963 126.474 229.165 125.996 229.302C125.523 229.434 124.946 229.5 124.264 229.5H119.975V219.682ZM129.403 219.682H131.314V229.5H129.403V219.682ZM121.848 224.706V227.851H124.264C124.618 227.851 124.914 227.827 125.153 227.781C125.395 227.734 125.589 227.653 125.734 227.538C125.883 227.423 125.99 227.267 126.054 227.071C126.118 226.871 126.15 226.619 126.15 226.317C126.15 226.001 126.118 225.739 126.054 225.531C125.99 225.322 125.883 225.158 125.734 225.038C125.589 224.915 125.395 224.83 125.153 224.783C124.914 224.732 124.618 224.706 124.264 224.706H121.848ZM132.97 221.331V219.682H141.254V221.331H138.051V229.5H136.185V221.331H132.97ZM147.319 219.682H151.391C152.025 219.682 152.569 219.729 153.02 219.822C153.476 219.912 153.849 220.061 154.139 220.27C154.433 220.474 154.648 220.745 154.785 221.082C154.925 221.414 154.996 221.821 154.996 222.303C154.996 222.669 154.947 222.978 154.849 223.229C154.755 223.481 154.621 223.69 154.446 223.856C154.271 224.022 154.06 224.152 153.813 224.246C153.566 224.339 153.291 224.416 152.989 224.476C153.317 224.514 153.628 224.576 153.922 224.661C154.216 224.746 154.474 224.879 154.695 225.058C154.917 225.232 155.092 225.464 155.219 225.754C155.351 226.044 155.418 226.411 155.418 226.854C155.418 227.322 155.356 227.725 155.232 228.062C155.109 228.394 154.91 228.667 154.638 228.88C154.369 229.093 154.018 229.251 153.583 229.353C153.153 229.451 152.628 229.5 152.011 229.5H147.319V219.682ZM149.115 225.173V227.902H152.011C152.326 227.902 152.582 227.889 152.778 227.864C152.978 227.834 153.133 227.774 153.244 227.685C153.355 227.595 153.43 227.467 153.468 227.301C153.506 227.135 153.525 226.915 153.525 226.643C153.525 226.336 153.506 226.087 153.468 225.895C153.43 225.703 153.355 225.554 153.244 225.447C153.133 225.341 152.978 225.268 152.778 225.23C152.582 225.192 152.326 225.173 152.011 225.173H149.115ZM149.115 221.299V223.773H151.41C151.755 223.773 152.038 223.76 152.26 223.734C152.486 223.705 152.663 223.645 152.79 223.555C152.922 223.466 153.012 223.338 153.059 223.172C153.11 223.006 153.136 222.784 153.136 222.507C153.136 222.239 153.11 222.026 153.059 221.868C153.012 221.706 152.922 221.585 152.79 221.504C152.658 221.418 152.479 221.363 152.253 221.337C152.032 221.312 151.744 221.299 151.391 221.299H149.115ZM161.117 224.636C161.117 222.948 161.494 221.68 162.248 220.832C163.002 219.98 164.151 219.554 165.693 219.554C167.236 219.554 168.384 219.98 169.139 220.832C169.893 221.68 170.27 222.948 170.27 224.636C170.27 226.315 169.893 227.578 169.139 228.426C168.384 229.274 167.236 229.698 165.693 229.698C164.151 229.698 163.002 229.274 162.248 228.426C161.494 227.578 161.117 226.315 161.117 224.636ZM163.047 224.629C163.047 225.179 163.085 225.669 163.162 226.099C163.239 226.53 163.375 226.894 163.571 227.192C163.772 227.487 164.042 227.71 164.383 227.864C164.728 228.017 165.167 228.094 165.7 228.094C166.228 228.094 166.663 228.017 167.004 227.864C167.345 227.71 167.613 227.487 167.809 227.192C168.009 226.894 168.148 226.53 168.225 226.099C168.301 225.669 168.34 225.179 168.34 224.629C168.34 224.08 168.301 223.589 168.225 223.159C168.148 222.729 168.009 222.364 167.809 222.066C167.613 221.768 167.345 221.542 167.004 221.388C166.663 221.231 166.228 221.152 165.7 221.152C165.167 221.152 164.728 221.231 164.383 221.388C164.042 221.542 163.772 221.768 163.571 222.066C163.375 222.364 163.239 222.729 163.162 223.159C163.085 223.589 163.047 224.08 163.047 224.629ZM171.494 221.331V219.682H179.778V221.331H176.575V229.5H174.709V221.331H171.494ZM181.439 233.182V219.682H183.306V221.273H183.466C183.521 221.171 183.579 221.058 183.638 220.935C183.702 220.811 183.779 220.685 183.868 220.558C183.962 220.43 184.073 220.306 184.201 220.187C184.329 220.067 184.486 219.961 184.674 219.867C184.865 219.773 185.091 219.699 185.351 219.643C185.615 219.584 185.927 219.554 186.285 219.554C186.958 219.554 187.55 219.669 188.061 219.899C188.577 220.125 189.008 220.455 189.353 220.89C189.702 221.32 189.964 221.849 190.139 222.475C190.318 223.102 190.407 223.813 190.407 224.61C190.407 225.403 190.32 226.114 190.145 226.745C189.971 227.371 189.711 227.904 189.365 228.343C189.02 228.778 188.592 229.112 188.081 229.347C187.569 229.577 186.977 229.692 186.304 229.692C185.954 229.692 185.647 229.664 185.383 229.609C185.123 229.553 184.897 229.479 184.706 229.385C184.514 229.291 184.352 229.185 184.22 229.065C184.092 228.946 183.981 228.822 183.887 228.695C183.794 228.567 183.713 228.441 183.645 228.317C183.581 228.19 183.521 228.075 183.466 227.972H183.351V233.182H181.439ZM183.466 224.591C183.466 225.187 183.498 225.705 183.561 226.144C183.63 226.579 183.753 226.939 183.932 227.224C184.111 227.506 184.356 227.717 184.667 227.857C184.983 227.994 185.385 228.062 185.875 228.062C186.383 228.062 186.802 227.989 187.135 227.844C187.471 227.695 187.738 227.476 187.934 227.186C188.134 226.892 188.275 226.53 188.356 226.099C188.436 225.665 188.477 225.162 188.477 224.591C188.477 224.024 188.436 223.528 188.356 223.102C188.279 222.675 188.142 222.32 187.946 222.034C187.75 221.749 187.484 221.536 187.147 221.395C186.811 221.25 186.387 221.178 185.875 221.178C185.377 221.178 184.97 221.246 184.655 221.382C184.343 221.514 184.098 221.719 183.919 221.996C183.745 222.273 183.625 222.626 183.561 223.057C183.498 223.487 183.466 223.999 183.466 224.591ZM191.728 226.726C191.728 226.3 191.777 225.937 191.875 225.639C191.978 225.337 192.116 225.083 192.291 224.879C192.466 224.674 192.672 224.51 192.911 224.386C193.154 224.259 193.414 224.158 193.691 224.086C193.968 224.009 194.26 223.95 194.567 223.907C194.873 223.864 195.182 223.826 195.493 223.792C195.787 223.758 196.052 223.737 196.286 223.728C196.525 223.715 196.736 223.705 196.919 223.696C197.102 223.688 197.26 223.673 197.392 223.651C197.528 223.63 197.639 223.594 197.724 223.543C197.809 223.487 197.871 223.411 197.91 223.312C197.952 223.21 197.974 223.074 197.974 222.903V222.859C197.974 222.501 197.948 222.209 197.897 221.983C197.85 221.753 197.758 221.574 197.622 221.446C197.486 221.314 197.296 221.224 197.053 221.178C196.81 221.126 196.495 221.101 196.107 221.101C195.706 221.101 195.374 221.139 195.11 221.216C194.85 221.293 194.637 221.395 194.471 221.523C194.304 221.651 194.172 221.798 194.074 221.964C193.981 222.126 193.898 222.294 193.825 222.469L192.029 222.06C192.191 221.612 192.393 221.231 192.636 220.915C192.883 220.596 193.173 220.336 193.505 220.136C193.842 219.935 194.224 219.788 194.65 219.695C195.08 219.601 195.557 219.554 196.081 219.554C196.397 219.554 196.708 219.565 197.015 219.586C197.326 219.607 197.622 219.658 197.903 219.739C198.184 219.816 198.447 219.929 198.689 220.078C198.932 220.227 199.143 220.43 199.322 220.685C199.501 220.937 199.64 221.25 199.738 221.625C199.84 222 199.891 222.452 199.891 222.98V229.5H198.025V228.158H197.948C197.858 228.341 197.748 228.526 197.616 228.714C197.483 228.897 197.307 229.063 197.085 229.212C196.868 229.362 196.595 229.483 196.267 229.577C195.939 229.67 195.532 229.717 195.046 229.717C194.5 229.717 194.021 229.67 193.608 229.577C193.194 229.483 192.847 229.321 192.566 229.091C192.289 228.861 192.08 228.554 191.939 228.17C191.799 227.787 191.728 227.305 191.728 226.726ZM195.461 228.183C195.939 228.183 196.337 228.136 196.657 228.043C196.981 227.949 197.241 227.81 197.437 227.627C197.633 227.44 197.771 227.207 197.852 226.93C197.937 226.653 197.98 226.33 197.98 225.959V224.693C197.933 224.74 197.856 224.783 197.75 224.821C197.648 224.859 197.524 224.898 197.379 224.936C197.238 224.97 197.087 225.002 196.925 225.032C196.763 225.058 196.601 225.083 196.439 225.109C196.282 225.13 196.13 225.151 195.986 225.173C195.841 225.19 195.717 225.205 195.615 225.217C195.338 225.256 195.076 225.294 194.829 225.332C194.586 225.371 194.373 225.439 194.189 225.537C194.01 225.635 193.868 225.778 193.761 225.965C193.655 226.153 193.601 226.415 193.601 226.751C193.601 227.067 193.631 227.32 193.691 227.512C193.755 227.7 193.859 227.844 194.004 227.947C194.149 228.045 194.341 228.109 194.579 228.138C194.818 228.168 195.112 228.183 195.461 228.183ZM201.636 224.636C201.636 223.805 201.727 223.074 201.911 222.443C202.098 221.808 202.379 221.278 202.754 220.852C203.134 220.421 203.609 220.097 204.18 219.88C204.751 219.663 205.422 219.554 206.193 219.554C206.832 219.554 207.393 219.633 207.874 219.79C208.356 219.948 208.763 220.172 209.095 220.462C209.432 220.747 209.694 221.094 209.881 221.504C210.073 221.908 210.195 222.358 210.246 222.852H208.386C208.335 222.622 208.264 222.405 208.175 222.2C208.09 221.996 207.966 221.817 207.804 221.663C207.642 221.51 207.433 221.388 207.178 221.299C206.926 221.21 206.609 221.165 206.225 221.165C205.748 221.165 205.339 221.231 204.998 221.363C204.661 221.491 204.386 221.693 204.173 221.97C203.965 222.247 203.811 222.603 203.713 223.038C203.615 223.468 203.566 223.986 203.566 224.591C203.566 225.205 203.613 225.733 203.707 226.176C203.805 226.615 203.958 226.977 204.167 227.263C204.38 227.544 204.655 227.751 204.992 227.883C205.328 228.015 205.739 228.081 206.225 228.081C206.579 228.081 206.879 228.043 207.126 227.966C207.374 227.889 207.58 227.778 207.746 227.634C207.913 227.489 208.045 227.312 208.143 227.103C208.245 226.894 208.326 226.658 208.386 226.393H210.246C210.195 226.871 210.08 227.312 209.901 227.717C209.722 228.121 209.468 228.471 209.14 228.765C208.816 229.059 208.411 229.289 207.925 229.455C207.444 229.617 206.873 229.698 206.212 229.698C205.42 229.698 204.736 229.589 204.161 229.372C203.585 229.151 203.11 228.827 202.735 228.401C202.36 227.97 202.083 227.44 201.904 226.809C201.725 226.178 201.636 225.454 201.636 224.636ZM211.15 227.844H211.501C211.855 227.844 212.13 227.789 212.326 227.678C212.522 227.563 212.669 227.363 212.767 227.077C212.865 226.788 212.931 226.398 212.965 225.908C212.999 225.413 213.031 224.787 213.061 224.028L213.234 219.682H220.086V229.5H218.213V221.331H215.004L214.851 224.668C214.825 225.209 214.787 225.705 214.736 226.157C214.689 226.604 214.619 227.007 214.525 227.365C214.435 227.723 214.318 228.036 214.173 228.305C214.028 228.569 213.845 228.79 213.624 228.969C213.406 229.148 213.144 229.283 212.837 229.372C212.535 229.457 212.179 229.5 211.77 229.5H211.156L211.15 227.844ZM221.687 229.5L223.981 225.384C223.687 225.273 223.425 225.147 223.195 225.006C222.969 224.862 222.778 224.687 222.62 224.482C222.462 224.273 222.341 224.024 222.256 223.734C222.175 223.445 222.134 223.099 222.134 222.699C222.134 222.158 222.202 221.697 222.339 221.318C222.479 220.935 222.697 220.621 222.991 220.379C223.285 220.136 223.662 219.959 224.122 219.848C224.582 219.737 225.134 219.682 225.778 219.682H229.926V229.5H228.13V225.658H225.784L223.643 229.5H221.687ZM224.007 222.724C224.007 223.014 224.028 223.251 224.071 223.434C224.114 223.613 224.194 223.754 224.314 223.856C224.437 223.954 224.606 224.022 224.819 224.06C225.032 224.094 225.309 224.112 225.65 224.112H228.13V221.312H225.778C225.42 221.312 225.126 221.331 224.895 221.369C224.665 221.408 224.484 221.48 224.352 221.587C224.22 221.689 224.128 221.832 224.077 222.015C224.03 222.198 224.007 222.435 224.007 222.724ZM231.484 229.5L234.539 224.591L231.522 219.682H233.619L235.785 223.504L237.972 219.682H240.062L237 224.591L240.087 229.5H237.997L235.785 225.831L233.58 229.5H231.484ZM245.64 224.195V223.223C245.64 222.021 245.74 220.994 245.94 220.142C246.14 219.286 246.441 218.585 246.841 218.039C247.242 217.489 247.74 217.085 248.337 216.825C248.938 216.565 249.637 216.426 250.434 216.409C250.613 216.405 250.783 216.403 250.945 216.403C251.111 216.403 251.269 216.403 251.418 216.403C251.674 216.403 251.91 216.403 252.127 216.403C252.345 216.398 252.545 216.386 252.728 216.364C252.916 216.339 253.084 216.3 253.233 216.249C253.387 216.194 253.523 216.119 253.642 216.026L254.435 217.234C254.218 217.434 253.977 217.589 253.713 217.7C253.448 217.807 253.154 217.888 252.831 217.943C252.511 217.994 252.157 218.028 251.769 218.045C251.382 218.062 250.951 218.077 250.478 218.09C249.95 218.107 249.492 218.197 249.104 218.359C248.716 218.521 248.39 218.759 248.126 219.075C247.866 219.386 247.662 219.776 247.512 220.244C247.363 220.709 247.261 221.252 247.206 221.874H247.327C247.489 221.572 247.666 221.308 247.858 221.082C248.054 220.852 248.279 220.662 248.535 220.513C248.795 220.359 249.091 220.244 249.424 220.168C249.76 220.091 250.146 220.053 250.581 220.053C251.254 220.053 251.846 220.14 252.358 220.315C252.869 220.489 253.297 220.766 253.642 221.146C253.988 221.521 254.247 222.004 254.422 222.597C254.601 223.189 254.691 223.903 254.691 224.738C254.691 226.425 254.32 227.674 253.578 228.484C252.837 229.293 251.701 229.698 250.171 229.698C249.404 229.698 248.738 229.596 248.171 229.391C247.604 229.187 247.133 228.863 246.758 228.42C246.383 227.977 246.102 227.408 245.914 226.713C245.731 226.014 245.64 225.175 245.64 224.195ZM247.564 224.77C247.564 225.358 247.608 225.863 247.698 226.285C247.787 226.702 247.934 227.045 248.139 227.314C248.348 227.582 248.618 227.781 248.951 227.908C249.283 228.032 249.692 228.094 250.178 228.094C250.659 228.094 251.064 228.032 251.392 227.908C251.72 227.781 251.985 227.582 252.185 227.314C252.39 227.045 252.537 226.702 252.626 226.285C252.716 225.863 252.76 225.358 252.76 224.77C252.76 224.195 252.716 223.709 252.626 223.312C252.537 222.912 252.39 222.588 252.185 222.341C251.98 222.094 251.712 221.917 251.38 221.81C251.051 221.7 250.644 221.644 250.159 221.644C249.681 221.644 249.279 221.7 248.951 221.81C248.622 221.917 248.356 222.094 248.152 222.341C247.951 222.588 247.804 222.912 247.711 223.312C247.621 223.709 247.572 224.195 247.564 224.77ZM256.466 219.682H258.338V226.822L262.666 219.682H264.724V229.5H262.851V222.354L258.543 229.5H256.466V219.682ZM266.352 226.905H268.308C268.321 227.186 268.359 227.41 268.423 227.576C268.491 227.742 268.596 227.868 268.736 227.953C268.881 228.038 269.069 228.094 269.299 228.119C269.533 228.145 269.825 228.158 270.174 228.158C270.528 228.158 270.831 228.145 271.082 228.119C271.334 228.089 271.538 228.026 271.696 227.928C271.858 227.825 271.975 227.678 272.047 227.487C272.124 227.295 272.162 227.033 272.162 226.7C272.162 226.398 272.135 226.151 272.079 225.959C272.028 225.767 271.934 225.616 271.798 225.505C271.662 225.394 271.478 225.317 271.248 225.275C271.022 225.232 270.733 225.211 270.379 225.211H268.781V223.709H270.379C270.728 223.709 271.01 223.692 271.223 223.658C271.436 223.624 271.6 223.56 271.715 223.466C271.83 223.368 271.905 223.236 271.939 223.07C271.977 222.899 271.996 222.68 271.996 222.411C271.996 222.13 271.975 221.904 271.932 221.734C271.89 221.559 271.809 221.423 271.689 221.325C271.57 221.227 271.404 221.161 271.191 221.126C270.978 221.092 270.703 221.075 270.366 221.075C270.025 221.075 269.74 221.092 269.51 221.126C269.28 221.156 269.092 221.216 268.947 221.305C268.807 221.395 268.702 221.521 268.634 221.683C268.57 221.844 268.534 222.058 268.525 222.322H266.595C266.595 221.827 266.672 221.406 266.825 221.056C266.983 220.707 267.215 220.421 267.522 220.2C267.833 219.978 268.216 219.816 268.672 219.714C269.133 219.607 269.665 219.554 270.27 219.554C270.897 219.554 271.434 219.607 271.881 219.714C272.333 219.816 272.704 219.98 272.993 220.206C273.283 220.428 273.496 220.713 273.633 221.062C273.769 221.408 273.837 221.821 273.837 222.303C273.837 222.652 273.795 222.944 273.709 223.178C273.624 223.408 273.505 223.6 273.351 223.754C273.198 223.903 273.015 224.024 272.802 224.118C272.589 224.212 272.354 224.295 272.098 224.367V224.469C272.384 224.487 272.646 224.542 272.885 224.636C273.123 224.729 273.328 224.868 273.498 225.051C273.673 225.234 273.807 225.467 273.901 225.748C273.999 226.029 274.048 226.37 274.048 226.771C274.048 227.299 273.967 227.751 273.805 228.126C273.643 228.496 273.4 228.799 273.076 229.033C272.757 229.263 272.356 229.432 271.875 229.538C271.393 229.645 270.833 229.698 270.194 229.698C269.567 229.698 269.015 229.647 268.538 229.545C268.061 229.447 267.66 229.287 267.336 229.065C267.013 228.844 266.768 228.556 266.601 228.202C266.435 227.844 266.352 227.412 266.352 226.905ZM275.662 229.5V219.682H277.534V223.766H281.785V219.682H283.652V229.5H281.785V225.422H277.534V229.5H275.662ZM285.407 224.655C285.407 222.984 285.782 221.717 286.532 220.852C287.282 219.987 288.42 219.554 289.946 219.554C290.581 219.554 291.165 219.631 291.697 219.784C292.23 219.933 292.688 220.195 293.071 220.57C293.455 220.945 293.753 221.45 293.966 222.085C294.184 222.72 294.292 223.521 294.292 224.489V225.166H287.312C287.325 225.686 287.385 226.134 287.491 226.509C287.602 226.879 287.768 227.184 287.99 227.423C288.216 227.661 288.501 227.838 288.846 227.953C289.192 228.064 289.609 228.119 290.099 228.119C290.453 228.119 290.753 228.089 291 228.03C291.248 227.97 291.456 227.883 291.627 227.768C291.802 227.648 291.946 227.501 292.062 227.327C292.177 227.152 292.277 226.95 292.362 226.719L294.171 227.045C294.064 227.446 293.905 227.81 293.692 228.138C293.483 228.462 293.212 228.741 292.88 228.976C292.552 229.206 292.155 229.383 291.691 229.506C291.231 229.634 290.694 229.698 290.08 229.698C289.275 229.698 288.578 229.587 287.99 229.366C287.406 229.144 286.922 228.82 286.539 228.394C286.155 227.964 285.87 227.435 285.682 226.809C285.499 226.183 285.407 225.464 285.407 224.655ZM287.319 223.734H292.419C292.419 223.278 292.375 222.886 292.285 222.558C292.2 222.23 292.059 221.962 291.863 221.753C291.667 221.54 291.414 221.384 291.103 221.286C290.792 221.184 290.41 221.133 289.959 221.133C289.49 221.133 289.091 221.188 288.763 221.299C288.439 221.41 288.173 221.574 287.964 221.791C287.755 222.009 287.6 222.279 287.498 222.603C287.4 222.927 287.34 223.304 287.319 223.734ZM295.612 224.636C295.612 223.805 295.703 223.074 295.887 222.443C296.074 221.808 296.355 221.278 296.73 220.852C297.11 220.421 297.585 220.097 298.156 219.88C298.727 219.663 299.398 219.554 300.169 219.554C300.809 219.554 301.369 219.633 301.851 219.79C302.332 219.948 302.739 220.172 303.071 220.462C303.408 220.747 303.67 221.094 303.858 221.504C304.049 221.908 304.171 222.358 304.222 222.852H302.362C302.311 222.622 302.24 222.405 302.151 222.2C302.066 221.996 301.942 221.817 301.78 221.663C301.618 221.51 301.409 221.388 301.154 221.299C300.902 221.21 300.585 221.165 300.201 221.165C299.724 221.165 299.315 221.231 298.974 221.363C298.637 221.491 298.363 221.693 298.15 221.97C297.941 222.247 297.787 222.603 297.689 223.038C297.591 223.468 297.542 223.986 297.542 224.591C297.542 225.205 297.589 225.733 297.683 226.176C297.781 226.615 297.934 226.977 298.143 227.263C298.356 227.544 298.631 227.751 298.968 227.883C299.304 228.015 299.716 228.081 300.201 228.081C300.555 228.081 300.855 228.043 301.103 227.966C301.35 227.889 301.556 227.778 301.723 227.634C301.889 227.489 302.021 227.312 302.119 227.103C302.221 226.894 302.302 226.658 302.362 226.393H304.222C304.171 226.871 304.056 227.312 303.877 227.717C303.698 228.121 303.444 228.471 303.116 228.765C302.792 229.059 302.387 229.289 301.902 229.455C301.42 229.617 300.849 229.698 300.189 229.698C299.396 229.698 298.712 229.589 298.137 229.372C297.561 229.151 297.086 228.827 296.711 228.401C296.336 227.97 296.059 227.44 295.88 226.809C295.701 226.178 295.612 225.454 295.612 224.636ZM305.446 226.726C305.446 226.3 305.495 225.937 305.593 225.639C305.695 225.337 305.833 225.083 306.008 224.879C306.183 224.674 306.389 224.51 306.628 224.386C306.871 224.259 307.131 224.158 307.408 224.086C307.685 224.009 307.977 223.95 308.284 223.907C308.59 223.864 308.899 223.826 309.211 223.792C309.505 223.758 309.769 223.737 310.003 223.728C310.242 223.715 310.453 223.705 310.636 223.696C310.819 223.688 310.977 223.673 311.109 223.651C311.245 223.63 311.356 223.594 311.441 223.543C311.527 223.487 311.588 223.411 311.627 223.312C311.669 223.21 311.691 223.074 311.691 222.903V222.859C311.691 222.501 311.665 222.209 311.614 221.983C311.567 221.753 311.475 221.574 311.339 221.446C311.203 221.314 311.013 221.224 310.77 221.178C310.527 221.126 310.212 221.101 309.824 221.101C309.424 221.101 309.091 221.139 308.827 221.216C308.567 221.293 308.354 221.395 308.188 221.523C308.022 221.651 307.889 221.798 307.791 221.964C307.698 222.126 307.615 222.294 307.542 222.469L305.746 222.06C305.908 221.612 306.11 221.231 306.353 220.915C306.6 220.596 306.89 220.336 307.223 220.136C307.559 219.935 307.941 219.788 308.367 219.695C308.797 219.601 309.274 219.554 309.799 219.554C310.114 219.554 310.425 219.565 310.732 219.586C311.043 219.607 311.339 219.658 311.62 219.739C311.902 219.816 312.164 219.929 312.407 220.078C312.649 220.227 312.86 220.43 313.039 220.685C313.218 220.937 313.357 221.25 313.455 221.625C313.557 222 313.608 222.452 313.608 222.98V229.5H311.742V228.158H311.665C311.576 228.341 311.465 228.526 311.333 228.714C311.201 228.897 311.024 229.063 310.802 229.212C310.585 229.362 310.312 229.483 309.984 229.577C309.656 229.67 309.249 229.717 308.763 229.717C308.218 229.717 307.738 229.67 307.325 229.577C306.912 229.483 306.564 229.321 306.283 229.091C306.006 228.861 305.797 228.554 305.657 228.17C305.516 227.787 305.446 227.305 305.446 226.726ZM309.179 228.183C309.656 228.183 310.054 228.136 310.374 228.043C310.698 227.949 310.958 227.81 311.154 227.627C311.35 227.44 311.488 227.207 311.569 226.93C311.654 226.653 311.697 226.33 311.697 225.959V224.693C311.65 224.74 311.573 224.783 311.467 224.821C311.365 224.859 311.241 224.898 311.096 224.936C310.956 224.97 310.804 225.002 310.642 225.032C310.48 225.058 310.318 225.083 310.157 225.109C309.999 225.13 309.848 225.151 309.703 225.173C309.558 225.19 309.434 225.205 309.332 225.217C309.055 225.256 308.793 225.294 308.546 225.332C308.303 225.371 308.09 225.439 307.907 225.537C307.728 225.635 307.585 225.778 307.478 225.965C307.372 226.153 307.318 226.415 307.318 226.751C307.318 227.067 307.348 227.32 307.408 227.512C307.472 227.7 307.576 227.844 307.721 227.947C307.866 228.045 308.058 228.109 308.296 228.138C308.535 228.168 308.829 228.183 309.179 228.183ZM116 251.795H98V250.14H116V251.795ZM120.887 251.636C120.887 249.948 121.265 248.68 122.019 247.832C122.773 246.98 123.922 246.554 125.464 246.554C127.007 246.554 128.155 246.98 128.909 247.832C129.664 248.68 130.041 249.948 130.041 251.636C130.041 253.315 129.664 254.578 128.909 255.426C128.155 256.274 127.007 256.698 125.464 256.698C123.922 256.698 122.773 256.274 122.019 255.426C121.265 254.578 120.887 253.315 120.887 251.636ZM122.818 251.629C122.818 252.179 122.856 252.669 122.933 253.099C123.01 253.53 123.146 253.894 123.342 254.192C123.542 254.487 123.813 254.71 124.154 254.864C124.499 255.017 124.938 255.094 125.471 255.094C125.999 255.094 126.434 255.017 126.774 254.864C127.115 254.71 127.384 254.487 127.58 254.192C127.78 253.894 127.919 253.53 127.995 253.099C128.072 252.669 128.11 252.179 128.11 251.629C128.11 251.08 128.072 250.589 127.995 250.159C127.919 249.729 127.78 249.364 127.58 249.066C127.384 248.768 127.115 248.542 126.774 248.388C126.434 248.231 125.999 248.152 125.471 248.152C124.938 248.152 124.499 248.231 124.154 248.388C123.813 248.542 123.542 248.768 123.342 249.066C123.146 249.364 123.01 249.729 122.933 250.159C122.856 250.589 122.818 251.08 122.818 251.629ZM131.264 248.331V246.682H139.549V248.331H136.346V256.5H134.48V248.331H131.264ZM145.173 251.636C145.173 250.805 145.264 250.074 145.448 249.443C145.635 248.808 145.916 248.278 146.291 247.852C146.671 247.421 147.146 247.097 147.717 246.88C148.288 246.663 148.959 246.554 149.73 246.554C150.369 246.554 150.93 246.633 151.411 246.79C151.893 246.948 152.3 247.172 152.632 247.462C152.969 247.747 153.231 248.094 153.418 248.504C153.61 248.908 153.732 249.358 153.783 249.852H151.923C151.872 249.622 151.801 249.405 151.712 249.2C151.626 248.996 151.503 248.817 151.341 248.663C151.179 248.51 150.97 248.388 150.715 248.299C150.463 248.21 150.146 248.165 149.762 248.165C149.285 248.165 148.876 248.231 148.535 248.363C148.198 248.491 147.923 248.693 147.71 248.97C147.501 249.247 147.348 249.603 147.25 250.038C147.152 250.468 147.103 250.986 147.103 251.591C147.103 252.205 147.15 252.733 147.244 253.176C147.342 253.615 147.495 253.977 147.704 254.263C147.917 254.544 148.192 254.751 148.528 254.883C148.865 255.015 149.276 255.081 149.762 255.081C150.116 255.081 150.416 255.043 150.663 254.966C150.911 254.889 151.117 254.778 151.283 254.634C151.45 254.489 151.582 254.312 151.68 254.103C151.782 253.894 151.863 253.658 151.923 253.393H153.783C153.732 253.871 153.617 254.312 153.438 254.717C153.259 255.121 153.005 255.471 152.677 255.765C152.353 256.059 151.948 256.289 151.462 256.455C150.981 256.617 150.41 256.698 149.749 256.698C148.957 256.698 148.273 256.589 147.698 256.372C147.122 256.151 146.647 255.827 146.272 255.401C145.897 254.97 145.62 254.44 145.441 253.809C145.262 253.178 145.173 252.454 145.173 251.636ZM155.006 253.726C155.006 253.3 155.055 252.937 155.153 252.639C155.256 252.337 155.394 252.083 155.569 251.879C155.744 251.674 155.95 251.51 156.189 251.386C156.432 251.259 156.692 251.158 156.969 251.086C157.246 251.009 157.538 250.95 157.844 250.907C158.151 250.864 158.46 250.826 158.771 250.792C159.065 250.758 159.33 250.737 159.564 250.728C159.803 250.715 160.013 250.705 160.197 250.696C160.38 250.688 160.538 250.673 160.67 250.651C160.806 250.63 160.917 250.594 161.002 250.543C161.087 250.487 161.149 250.411 161.187 250.312C161.23 250.21 161.251 250.074 161.251 249.903V249.859C161.251 249.501 161.226 249.209 161.175 248.983C161.128 248.753 161.036 248.574 160.9 248.446C160.763 248.314 160.574 248.224 160.331 248.178C160.088 248.126 159.773 248.101 159.385 248.101C158.984 248.101 158.652 248.139 158.388 248.216C158.128 248.293 157.915 248.395 157.749 248.523C157.582 248.651 157.45 248.798 157.352 248.964C157.259 249.126 157.175 249.294 157.103 249.469L155.307 249.06C155.469 248.612 155.671 248.231 155.914 247.915C156.161 247.596 156.451 247.336 156.783 247.136C157.12 246.935 157.501 246.788 157.928 246.695C158.358 246.601 158.835 246.554 159.359 246.554C159.675 246.554 159.986 246.565 160.293 246.586C160.604 246.607 160.9 246.658 161.181 246.739C161.462 246.816 161.724 246.929 161.967 247.078C162.21 247.227 162.421 247.43 162.6 247.685C162.779 247.937 162.918 248.25 163.016 248.625C163.118 249 163.169 249.452 163.169 249.98V256.5H161.303V255.158H161.226C161.136 255.341 161.026 255.526 160.893 255.714C160.761 255.897 160.584 256.063 160.363 256.212C160.146 256.362 159.873 256.483 159.545 256.577C159.217 256.67 158.81 256.717 158.324 256.717C157.778 256.717 157.299 256.67 156.886 256.577C156.472 256.483 156.125 256.321 155.844 256.091C155.567 255.861 155.358 255.554 155.217 255.17C155.077 254.787 155.006 254.305 155.006 253.726ZM158.739 255.183C159.217 255.183 159.615 255.136 159.935 255.043C160.259 254.949 160.518 254.81 160.714 254.627C160.91 254.44 161.049 254.207 161.13 253.93C161.215 253.653 161.258 253.33 161.258 252.959V251.693C161.211 251.74 161.134 251.783 161.028 251.821C160.925 251.859 160.802 251.898 160.657 251.936C160.516 251.97 160.365 252.002 160.203 252.032C160.041 252.058 159.879 252.083 159.717 252.109C159.56 252.13 159.408 252.151 159.263 252.173C159.119 252.19 158.995 252.205 158.893 252.217C158.616 252.256 158.354 252.294 158.107 252.332C157.864 252.371 157.651 252.439 157.467 252.537C157.288 252.635 157.146 252.778 157.039 252.965C156.933 253.153 156.879 253.415 156.879 253.751C156.879 254.067 156.909 254.32 156.969 254.512C157.033 254.7 157.137 254.844 157.282 254.947C157.427 255.045 157.619 255.109 157.857 255.138C158.096 255.168 158.39 255.183 158.739 255.183ZM164.575 254.844H164.926C165.28 254.844 165.555 254.789 165.751 254.678C165.947 254.563 166.094 254.363 166.192 254.077C166.29 253.788 166.356 253.398 166.39 252.908C166.424 252.413 166.456 251.787 166.486 251.028L166.659 246.682H173.511V256.5H171.638V248.331H168.429L168.276 251.668C168.25 252.209 168.212 252.705 168.161 253.157C168.114 253.604 168.044 254.007 167.95 254.365C167.86 254.723 167.743 255.036 167.598 255.305C167.453 255.569 167.27 255.79 167.049 255.969C166.831 256.148 166.569 256.283 166.262 256.372C165.96 256.457 165.604 256.5 165.195 256.5H164.581L164.575 254.844ZM175.259 251.636C175.259 249.948 175.636 248.68 176.39 247.832C177.144 246.98 178.293 246.554 179.835 246.554C181.378 246.554 182.526 246.98 183.281 247.832C184.035 248.68 184.412 249.948 184.412 251.636C184.412 253.315 184.035 254.578 183.281 255.426C182.526 256.274 181.378 256.698 179.835 256.698C178.293 256.698 177.144 256.274 176.39 255.426C175.636 254.578 175.259 253.315 175.259 251.636ZM177.189 251.629C177.189 252.179 177.227 252.669 177.304 253.099C177.381 253.53 177.517 253.894 177.713 254.192C177.914 254.487 178.184 254.71 178.525 254.864C178.87 255.017 179.309 255.094 179.842 255.094C180.37 255.094 180.805 255.017 181.146 254.864C181.487 254.71 181.755 254.487 181.951 254.192C182.151 253.894 182.29 253.53 182.367 253.099C182.443 252.669 182.482 252.179 182.482 251.629C182.482 251.08 182.443 250.589 182.367 250.159C182.29 249.729 182.151 249.364 181.951 249.066C181.755 248.768 181.487 248.542 181.146 248.388C180.805 248.231 180.37 248.152 179.842 248.152C179.309 248.152 178.87 248.231 178.525 248.388C178.184 248.542 177.914 248.768 177.713 249.066C177.517 249.364 177.381 249.729 177.304 250.159C177.227 250.589 177.189 251.08 177.189 251.629ZM186.185 256.5V246.682H188.058V250.766H192.309V246.682H194.175V256.5H192.309V252.422H188.058V256.5H186.185ZM195.931 251.636C195.931 249.948 196.308 248.68 197.063 247.832C197.817 246.98 198.965 246.554 200.508 246.554C202.051 246.554 203.199 246.98 203.953 247.832C204.708 248.68 205.085 249.948 205.085 251.636C205.085 253.315 204.708 254.578 203.953 255.426C203.199 256.274 202.051 256.698 200.508 256.698C198.965 256.698 197.817 256.274 197.063 255.426C196.308 254.578 195.931 253.315 195.931 251.636ZM197.862 251.629C197.862 252.179 197.9 252.669 197.977 253.099C198.053 253.53 198.19 253.894 198.386 254.192C198.586 254.487 198.857 254.71 199.198 254.864C199.543 255.017 199.982 255.094 200.514 255.094C201.043 255.094 201.477 255.017 201.818 254.864C202.159 254.71 202.428 254.487 202.624 254.192C202.824 253.894 202.963 253.53 203.039 253.099C203.116 252.669 203.154 252.179 203.154 251.629C203.154 251.08 203.116 250.589 203.039 250.159C202.963 249.729 202.824 249.364 202.624 249.066C202.428 248.768 202.159 248.542 201.818 248.388C201.477 248.231 201.043 248.152 200.514 248.152C199.982 248.152 199.543 248.231 199.198 248.388C198.857 248.542 198.586 248.768 198.386 249.066C198.19 249.364 198.053 249.729 197.977 250.159C197.9 250.589 197.862 251.08 197.862 251.629ZM206.858 246.682H210.93C211.565 246.682 212.108 246.729 212.56 246.822C213.016 246.912 213.389 247.061 213.678 247.27C213.972 247.474 214.188 247.745 214.324 248.082C214.465 248.414 214.535 248.821 214.535 249.303C214.535 249.669 214.486 249.978 214.388 250.229C214.294 250.481 214.16 250.69 213.985 250.856C213.81 251.022 213.599 251.152 213.352 251.246C213.105 251.339 212.83 251.416 212.528 251.476C212.856 251.514 213.167 251.576 213.461 251.661C213.755 251.746 214.013 251.879 214.234 252.058C214.456 252.232 214.631 252.464 214.759 252.754C214.891 253.044 214.957 253.411 214.957 253.854C214.957 254.322 214.895 254.725 214.771 255.062C214.648 255.394 214.45 255.667 214.177 255.88C213.908 256.093 213.557 256.251 213.122 256.353C212.692 256.451 212.168 256.5 211.55 256.5H206.858V246.682ZM208.654 252.173V254.902H211.55C211.865 254.902 212.121 254.889 212.317 254.864C212.517 254.834 212.673 254.774 212.783 254.685C212.894 254.595 212.969 254.467 213.007 254.301C213.046 254.135 213.065 253.915 213.065 253.643C213.065 253.336 213.046 253.087 213.007 252.895C212.969 252.703 212.894 252.554 212.783 252.447C212.673 252.341 212.517 252.268 212.317 252.23C212.121 252.192 211.865 252.173 211.55 252.173H208.654ZM208.654 248.299V250.773H210.949C211.294 250.773 211.577 250.76 211.799 250.734C212.025 250.705 212.202 250.645 212.33 250.555C212.462 250.466 212.551 250.338 212.598 250.172C212.649 250.006 212.675 249.784 212.675 249.507C212.675 249.239 212.649 249.026 212.598 248.868C212.551 248.706 212.462 248.585 212.33 248.504C212.197 248.418 212.019 248.363 211.793 248.337C211.571 248.312 211.283 248.299 210.93 248.299H208.654ZM221.097 256.5V246.682H223.008V250.798H223.929L227.169 246.682H229.534L225.731 251.457L229.579 256.5H227.208L224.248 252.575H223.008V256.5H221.097ZM230.704 260.182V246.682H232.57V248.273H232.73C232.785 248.171 232.843 248.058 232.903 247.935C232.967 247.811 233.043 247.685 233.133 247.558C233.227 247.43 233.337 247.306 233.465 247.187C233.593 247.067 233.751 246.961 233.938 246.867C234.13 246.773 234.356 246.699 234.616 246.643C234.88 246.584 235.191 246.554 235.549 246.554C236.222 246.554 236.815 246.669 237.326 246.899C237.842 247.125 238.272 247.455 238.617 247.89C238.967 248.32 239.229 248.849 239.403 249.475C239.582 250.102 239.672 250.813 239.672 251.61C239.672 252.403 239.584 253.114 239.41 253.745C239.235 254.371 238.975 254.904 238.63 255.343C238.285 255.778 237.856 256.112 237.345 256.347C236.834 256.577 236.241 256.692 235.568 256.692C235.219 256.692 234.912 256.664 234.648 256.609C234.388 256.553 234.162 256.479 233.97 256.385C233.778 256.291 233.616 256.185 233.484 256.065C233.356 255.946 233.246 255.822 233.152 255.695C233.058 255.567 232.977 255.441 232.909 255.317C232.845 255.19 232.785 255.075 232.73 254.972H232.615V260.182H230.704ZM232.73 251.591C232.73 252.187 232.762 252.705 232.826 253.144C232.894 253.579 233.018 253.939 233.197 254.224C233.376 254.506 233.621 254.717 233.932 254.857C234.247 254.994 234.65 255.062 235.14 255.062C235.647 255.062 236.067 254.989 236.399 254.844C236.736 254.695 237.002 254.476 237.198 254.186C237.398 253.892 237.539 253.53 237.62 253.099C237.701 252.665 237.741 252.162 237.741 251.591C237.741 251.024 237.701 250.528 237.62 250.102C237.543 249.675 237.407 249.32 237.211 249.034C237.015 248.749 236.749 248.536 236.412 248.395C236.075 248.25 235.651 248.178 235.14 248.178C234.641 248.178 234.234 248.246 233.919 248.382C233.608 248.514 233.363 248.719 233.184 248.996C233.009 249.273 232.89 249.626 232.826 250.057C232.762 250.487 232.73 250.999 232.73 251.591ZM240.993 253.726C240.993 253.3 241.042 252.937 241.14 252.639C241.242 252.337 241.381 252.083 241.555 251.879C241.73 251.674 241.937 251.51 242.175 251.386C242.418 251.259 242.678 251.158 242.955 251.086C243.232 251.009 243.524 250.95 243.831 250.907C244.138 250.864 244.447 250.826 244.758 250.792C245.052 250.758 245.316 250.737 245.55 250.728C245.789 250.715 246 250.705 246.183 250.696C246.367 250.688 246.524 250.673 246.656 250.651C246.793 250.63 246.903 250.594 246.989 250.543C247.074 250.487 247.136 250.411 247.174 250.312C247.217 250.21 247.238 250.074 247.238 249.903V249.859C247.238 249.501 247.212 249.209 247.161 248.983C247.114 248.753 247.023 248.574 246.886 248.446C246.75 248.314 246.56 248.224 246.318 248.178C246.075 248.126 245.759 248.101 245.371 248.101C244.971 248.101 244.639 248.139 244.374 248.216C244.114 248.293 243.901 248.395 243.735 248.523C243.569 248.651 243.437 248.798 243.339 248.964C243.245 249.126 243.162 249.294 243.09 249.469L241.293 249.06C241.455 248.612 241.658 248.231 241.901 247.915C242.148 247.596 242.438 247.336 242.77 247.136C243.107 246.935 243.488 246.788 243.914 246.695C244.345 246.601 244.822 246.554 245.346 246.554C245.661 246.554 245.972 246.565 246.279 246.586C246.59 246.607 246.886 246.658 247.168 246.739C247.449 246.816 247.711 246.929 247.954 247.078C248.197 247.227 248.408 247.43 248.587 247.685C248.766 247.937 248.904 248.25 249.002 248.625C249.104 249 249.156 249.452 249.156 249.98V256.5H247.289V255.158H247.212C247.123 255.341 247.012 255.526 246.88 255.714C246.748 255.897 246.571 256.063 246.349 256.212C246.132 256.362 245.859 256.483 245.531 256.577C245.203 256.67 244.796 256.717 244.31 256.717C243.765 256.717 243.286 256.67 242.872 256.577C242.459 256.483 242.112 256.321 241.83 256.091C241.553 255.861 241.345 255.554 241.204 255.17C241.063 254.787 240.993 254.305 240.993 253.726ZM244.726 255.183C245.203 255.183 245.602 255.136 245.921 255.043C246.245 254.949 246.505 254.81 246.701 254.627C246.897 254.44 247.036 254.207 247.117 253.93C247.202 253.653 247.244 253.33 247.244 252.959V251.693C247.197 251.74 247.121 251.783 247.014 251.821C246.912 251.859 246.788 251.898 246.644 251.936C246.503 251.97 246.352 252.002 246.19 252.032C246.028 252.058 245.866 252.083 245.704 252.109C245.546 252.13 245.395 252.151 245.25 252.173C245.105 252.19 244.982 252.205 244.879 252.217C244.602 252.256 244.34 252.294 244.093 252.332C243.85 252.371 243.637 252.439 243.454 252.537C243.275 252.635 243.132 252.778 243.026 252.965C242.919 253.153 242.866 253.415 242.866 253.751C242.866 254.067 242.896 254.32 242.955 254.512C243.019 254.7 243.124 254.844 243.269 254.947C243.413 255.045 243.605 255.109 243.844 255.138C244.082 255.168 244.376 255.183 244.726 255.183ZM250.9 251.636C250.9 250.805 250.992 250.074 251.175 249.443C251.363 248.808 251.644 248.278 252.019 247.852C252.398 247.421 252.873 247.097 253.444 246.88C254.015 246.663 254.686 246.554 255.458 246.554C256.097 246.554 256.657 246.633 257.139 246.79C257.62 246.948 258.027 247.172 258.36 247.462C258.696 247.747 258.958 248.094 259.146 248.504C259.338 248.908 259.459 249.358 259.51 249.852H257.65C257.599 249.622 257.529 249.405 257.439 249.2C257.354 248.996 257.23 248.817 257.068 248.663C256.907 248.51 256.698 248.388 256.442 248.299C256.191 248.21 255.873 248.165 255.49 248.165C255.012 248.165 254.603 248.231 254.262 248.363C253.926 248.491 253.651 248.693 253.438 248.97C253.229 249.247 253.076 249.603 252.978 250.038C252.88 250.468 252.831 250.986 252.831 251.591C252.831 252.205 252.877 252.733 252.971 253.176C253.069 253.615 253.223 253.977 253.431 254.263C253.644 254.544 253.919 254.751 254.256 254.883C254.593 255.015 255.004 255.081 255.49 255.081C255.843 255.081 256.144 255.043 256.391 254.966C256.638 254.889 256.845 254.778 257.011 254.634C257.177 254.489 257.309 254.312 257.407 254.103C257.51 253.894 257.591 253.658 257.65 253.393H259.51C259.459 253.871 259.344 254.312 259.165 254.717C258.986 255.121 258.733 255.471 258.404 255.765C258.081 256.059 257.676 256.289 257.19 256.455C256.708 256.617 256.137 256.698 255.477 256.698C254.684 256.698 254 256.589 253.425 256.372C252.85 256.151 252.375 255.827 252 255.401C251.625 254.97 251.348 254.44 251.169 253.809C250.99 253.178 250.9 252.454 250.9 251.636ZM260.753 251.636C260.753 249.948 261.13 248.68 261.884 247.832C262.639 246.98 263.787 246.554 265.33 246.554C266.872 246.554 268.021 246.98 268.775 247.832C269.529 248.68 269.906 249.948 269.906 251.636C269.906 253.315 269.529 254.578 268.775 255.426C268.021 256.274 266.872 256.698 265.33 256.698C263.787 256.698 262.639 256.274 261.884 255.426C261.13 254.578 260.753 253.315 260.753 251.636ZM262.683 251.629C262.683 252.179 262.722 252.669 262.799 253.099C262.875 253.53 263.012 253.894 263.208 254.192C263.408 254.487 263.678 254.71 264.019 254.864C264.365 255.017 264.803 255.094 265.336 255.094C265.865 255.094 266.299 255.017 266.64 254.864C266.981 254.71 267.25 254.487 267.446 254.192C267.646 253.894 267.784 253.53 267.861 253.099C267.938 252.669 267.976 252.179 267.976 251.629C267.976 251.08 267.938 250.589 267.861 250.159C267.784 249.729 267.646 249.364 267.446 249.066C267.25 248.768 266.981 248.542 266.64 248.388C266.299 248.231 265.865 248.152 265.336 248.152C264.803 248.152 264.365 248.231 264.019 248.388C263.678 248.542 263.408 248.768 263.208 249.066C263.012 249.364 262.875 249.729 262.799 250.159C262.722 250.589 262.683 251.08 262.683 251.629ZM271.13 248.331V246.682H279.414V248.331H276.212V256.5H274.345V248.331H271.13ZM281.076 246.682H282.949V250.057H285.365C286.047 250.057 286.624 250.121 287.097 250.249C287.574 250.376 287.962 250.572 288.26 250.837C288.559 251.097 288.774 251.429 288.906 251.834C289.042 252.234 289.11 252.71 289.11 253.259C289.11 253.8 289.042 254.273 288.906 254.678C288.774 255.083 288.559 255.422 288.26 255.695C287.962 255.963 287.574 256.165 287.097 256.302C286.624 256.434 286.047 256.5 285.365 256.5H281.076V246.682ZM290.504 246.682H292.415V256.5H290.504V246.682ZM282.949 251.706V254.851H285.365C285.718 254.851 286.015 254.827 286.253 254.781C286.496 254.734 286.69 254.653 286.835 254.538C286.984 254.423 287.091 254.267 287.154 254.071C287.218 253.871 287.25 253.619 287.25 253.317C287.25 253.001 287.218 252.739 287.154 252.531C287.091 252.322 286.984 252.158 286.835 252.038C286.69 251.915 286.496 251.83 286.253 251.783C286.015 251.732 285.718 251.706 285.365 251.706H282.949ZM298.065 259.332V254.844H298.864C299.068 254.661 299.241 254.44 299.382 254.18C299.526 253.92 299.648 253.609 299.746 253.246C299.848 252.884 299.933 252.464 300.002 251.987C300.07 251.51 300.129 250.962 300.181 250.344L300.487 246.682H307.161V254.844H308.669V259.332H306.803V256.5H299.957V259.332H298.065ZM300.909 254.844H305.294V248.318H302.2L301.996 250.344C301.949 250.86 301.896 251.342 301.836 251.789C301.781 252.237 301.71 252.65 301.625 253.029C301.544 253.404 301.444 253.743 301.325 254.045C301.21 254.348 301.071 254.614 300.909 254.844ZM309.736 251.636C309.736 249.948 310.113 248.68 310.868 247.832C311.622 246.98 312.77 246.554 314.313 246.554C315.856 246.554 317.004 246.98 317.758 247.832C318.513 248.68 318.89 249.948 318.89 251.636C318.89 253.315 318.513 254.578 317.758 255.426C317.004 256.274 315.856 256.698 314.313 256.698C312.77 256.698 311.622 256.274 310.868 255.426C310.113 254.578 309.736 253.315 309.736 251.636ZM311.667 251.629C311.667 252.179 311.705 252.669 311.782 253.099C311.858 253.53 311.995 253.894 312.191 254.192C312.391 254.487 312.662 254.71 313.003 254.864C313.348 255.017 313.787 255.094 314.319 255.094C314.848 255.094 315.282 255.017 315.623 254.864C315.964 254.71 316.233 254.487 316.429 254.192C316.629 253.894 316.768 253.53 316.844 253.099C316.921 252.669 316.959 252.179 316.959 251.629C316.959 251.08 316.921 250.589 316.844 250.159C316.768 249.729 316.629 249.364 316.429 249.066C316.233 248.768 315.964 248.542 315.623 248.388C315.282 248.231 314.848 248.152 314.319 248.152C313.787 248.152 313.348 248.231 313.003 248.388C312.662 248.542 312.391 248.768 312.191 249.066C311.995 249.364 311.858 249.729 311.782 250.159C311.705 250.589 311.667 251.08 311.667 251.629ZM98.8438 278.636C98.8438 277.805 98.9354 277.074 99.1186 276.443C99.3061 275.808 99.5874 275.278 99.9624 274.852C100.342 274.421 100.817 274.097 101.388 273.88C101.959 273.663 102.63 273.554 103.401 273.554C104.04 273.554 104.601 273.633 105.082 273.79C105.564 273.948 105.971 274.172 106.303 274.462C106.64 274.747 106.902 275.094 107.089 275.504C107.281 275.908 107.403 276.358 107.454 276.852H105.594C105.543 276.622 105.472 276.405 105.383 276.2C105.298 275.996 105.174 275.817 105.012 275.663C104.85 275.51 104.641 275.388 104.386 275.299C104.134 275.21 103.817 275.165 103.433 275.165C102.956 275.165 102.547 275.231 102.206 275.363C101.869 275.491 101.594 275.693 101.381 275.97C101.173 276.247 101.019 276.603 100.921 277.038C100.823 277.468 100.774 277.986 100.774 278.591C100.774 279.205 100.821 279.733 100.915 280.176C101.013 280.615 101.166 280.977 101.375 281.263C101.588 281.544 101.863 281.751 102.2 281.883C102.536 282.015 102.947 282.081 103.433 282.081C103.787 282.081 104.087 282.043 104.335 281.966C104.582 281.889 104.788 281.778 104.955 281.634C105.121 281.489 105.253 281.312 105.351 281.103C105.453 280.894 105.534 280.658 105.594 280.393H107.454C107.403 280.871 107.288 281.312 107.109 281.717C106.93 282.121 106.676 282.471 106.348 282.765C106.024 283.059 105.619 283.289 105.134 283.455C104.652 283.617 104.081 283.698 103.42 283.698C102.628 283.698 101.944 283.589 101.369 283.372C100.793 283.151 100.318 282.827 99.9432 282.401C99.5682 281.97 99.2912 281.44 99.1122 280.809C98.9332 280.178 98.8438 279.454 98.8438 278.636ZM108.588 275.331V273.682H116.872V275.331H113.67V283.5H111.803V275.331H108.588ZM118.534 287.182V273.682H120.4V275.273H120.56C120.615 275.171 120.673 275.058 120.732 274.935C120.796 274.811 120.873 274.685 120.963 274.558C121.056 274.43 121.167 274.306 121.295 274.187C121.423 274.067 121.58 273.961 121.768 273.867C121.96 273.773 122.186 273.699 122.445 273.643C122.71 273.584 123.021 273.554 123.379 273.554C124.052 273.554 124.644 273.669 125.156 273.899C125.671 274.125 126.102 274.455 126.447 274.89C126.796 275.32 127.058 275.849 127.233 276.475C127.412 277.102 127.502 277.813 127.502 278.61C127.502 279.403 127.414 280.114 127.24 280.745C127.065 281.371 126.805 281.904 126.46 282.343C126.115 282.778 125.686 283.112 125.175 283.347C124.664 283.577 124.071 283.692 123.398 283.692C123.048 283.692 122.742 283.664 122.477 283.609C122.218 283.553 121.992 283.479 121.8 283.385C121.608 283.291 121.446 283.185 121.314 283.065C121.186 282.946 121.075 282.822 120.982 282.695C120.888 282.567 120.807 282.441 120.739 282.317C120.675 282.19 120.615 282.075 120.56 281.972H120.445V287.182H118.534ZM120.56 278.591C120.56 279.187 120.592 279.705 120.656 280.144C120.724 280.579 120.847 280.939 121.026 281.224C121.205 281.506 121.45 281.717 121.762 281.857C122.077 281.994 122.48 282.062 122.97 282.062C123.477 282.062 123.896 281.989 124.229 281.844C124.566 281.695 124.832 281.476 125.028 281.186C125.228 280.892 125.369 280.53 125.45 280.099C125.531 279.665 125.571 279.162 125.571 278.591C125.571 278.024 125.531 277.528 125.45 277.102C125.373 276.675 125.237 276.32 125.041 276.034C124.845 275.749 124.578 275.536 124.242 275.395C123.905 275.25 123.481 275.178 122.97 275.178C122.471 275.178 122.064 275.246 121.749 275.382C121.438 275.514 121.193 275.719 121.014 275.996C120.839 276.273 120.72 276.626 120.656 277.057C120.592 277.487 120.56 277.999 120.56 278.591ZM128.842 278.636C128.842 276.948 129.219 275.68 129.973 274.832C130.728 273.98 131.876 273.554 133.419 273.554C134.961 273.554 136.11 273.98 136.864 274.832C137.618 275.68 137.995 276.948 137.995 278.636C137.995 280.315 137.618 281.578 136.864 282.426C136.11 283.274 134.961 283.698 133.419 283.698C131.876 283.698 130.728 283.274 129.973 282.426C129.219 281.578 128.842 280.315 128.842 278.636ZM130.772 278.629C130.772 279.179 130.811 279.669 130.887 280.099C130.964 280.53 131.1 280.894 131.296 281.192C131.497 281.487 131.767 281.71 132.108 281.864C132.453 282.017 132.892 282.094 133.425 282.094C133.953 282.094 134.388 282.017 134.729 281.864C135.07 281.71 135.338 281.487 135.534 281.192C135.735 280.894 135.873 280.53 135.95 280.099C136.027 279.669 136.065 279.179 136.065 278.629C136.065 278.08 136.027 277.589 135.95 277.159C135.873 276.729 135.735 276.364 135.534 276.066C135.338 275.768 135.07 275.542 134.729 275.388C134.388 275.231 133.953 275.152 133.425 275.152C132.892 275.152 132.453 275.231 132.108 275.388C131.767 275.542 131.497 275.768 131.296 276.066C131.1 276.364 130.964 276.729 130.887 277.159C130.811 277.589 130.772 278.08 130.772 278.629ZM139.769 273.682H141.642V280.822L145.969 273.682H148.027V283.5H146.154V276.354L141.846 283.5H139.769V273.682ZM149.687 275.331V273.682H157.971V275.331H154.769V283.5H152.902V275.331H149.687ZM159.192 278.655C159.192 276.984 159.567 275.717 160.317 274.852C161.067 273.987 162.204 273.554 163.73 273.554C164.365 273.554 164.949 273.631 165.481 273.784C166.014 273.933 166.472 274.195 166.856 274.57C167.239 274.945 167.537 275.45 167.751 276.085C167.968 276.72 168.077 277.521 168.077 278.489V279.166H161.096C161.109 279.686 161.169 280.134 161.275 280.509C161.386 280.879 161.552 281.184 161.774 281.423C162 281.661 162.285 281.838 162.63 281.953C162.976 282.064 163.393 282.119 163.883 282.119C164.237 282.119 164.537 282.089 164.785 282.03C165.032 281.97 165.241 281.883 165.411 281.768C165.586 281.648 165.731 281.501 165.846 281.327C165.961 281.152 166.061 280.95 166.146 280.719L167.955 281.045C167.849 281.446 167.689 281.81 167.476 282.138C167.267 282.462 166.996 282.741 166.664 282.976C166.336 283.206 165.939 283.383 165.475 283.506C165.015 283.634 164.478 283.698 163.864 283.698C163.059 283.698 162.362 283.587 161.774 283.366C161.19 283.144 160.706 282.82 160.323 282.394C159.939 281.964 159.654 281.435 159.466 280.809C159.283 280.183 159.192 279.464 159.192 278.655ZM161.103 277.734H166.204C166.204 277.278 166.159 276.886 166.069 276.558C165.984 276.23 165.844 275.962 165.648 275.753C165.452 275.54 165.198 275.384 164.887 275.286C164.576 275.184 164.194 275.133 163.743 275.133C163.274 275.133 162.876 275.188 162.547 275.299C162.224 275.41 161.957 275.574 161.748 275.791C161.54 276.009 161.384 276.279 161.282 276.603C161.184 276.927 161.124 277.304 161.103 277.734ZM169.057 281.844H169.409C169.762 281.844 170.037 281.789 170.233 281.678C170.429 281.563 170.576 281.363 170.674 281.077C170.772 280.788 170.838 280.398 170.873 279.908C170.907 279.413 170.939 278.787 170.968 278.028L171.141 273.682H177.993V283.5H176.12V275.331H172.912L172.758 278.668C172.733 279.209 172.694 279.705 172.643 280.157C172.596 280.604 172.526 281.007 172.432 281.365C172.343 281.723 172.226 282.036 172.081 282.305C171.936 282.569 171.753 282.79 171.531 282.969C171.314 283.148 171.052 283.283 170.745 283.372C170.442 283.457 170.086 283.5 169.677 283.5H169.064L169.057 281.844ZM182.055 273.682V277.057H184.471C185.153 277.057 185.73 277.121 186.203 277.249C186.681 277.376 187.069 277.572 187.367 277.837C187.665 278.097 187.88 278.429 188.012 278.834C188.149 279.234 188.217 279.71 188.217 280.259C188.217 280.8 188.149 281.273 188.012 281.678C187.88 282.083 187.665 282.422 187.367 282.695C187.069 282.963 186.681 283.165 186.203 283.302C185.73 283.434 185.153 283.5 184.471 283.5H180.182V273.682H182.055ZM182.055 281.851H184.471C184.825 281.851 185.121 281.827 185.36 281.781C185.603 281.734 185.796 281.653 185.941 281.538C186.091 281.423 186.197 281.267 186.261 281.071C186.325 280.871 186.357 280.619 186.357 280.317C186.357 280.001 186.325 279.739 186.261 279.531C186.197 279.322 186.091 279.158 185.941 279.038C185.796 278.915 185.603 278.83 185.36 278.783C185.121 278.732 184.825 278.706 184.471 278.706H182.055V281.851ZM190 283.5V273.682H191.873V277.766H196.123V273.682H197.99V283.5H196.123V279.422H191.873V283.5H190ZM200.187 273.682H202.06V277.057H204.476C205.158 277.057 205.735 277.121 206.208 277.249C206.685 277.376 207.073 277.572 207.371 277.837C207.67 278.097 207.885 278.429 208.017 278.834C208.153 279.234 208.222 279.71 208.222 280.259C208.222 280.8 208.153 281.273 208.017 281.678C207.885 282.083 207.67 282.422 207.371 282.695C207.073 282.963 206.685 283.165 206.208 283.302C205.735 283.434 205.158 283.5 204.476 283.5H200.187V273.682ZM209.615 273.682H211.526V283.5H209.615V273.682ZM202.06 278.706V281.851H204.476C204.83 281.851 205.126 281.827 205.364 281.781C205.607 281.734 205.801 281.653 205.946 281.538C206.095 281.423 206.202 281.267 206.266 281.071C206.33 280.871 206.361 280.619 206.361 280.317C206.361 280.001 206.33 279.739 206.266 279.531C206.202 279.322 206.095 279.158 205.946 279.038C205.801 278.915 205.607 278.83 205.364 278.783C205.126 278.732 204.83 278.706 204.476 278.706H202.06ZM213.105 283.5L216.16 278.591L213.143 273.682H215.24L217.406 277.504L219.593 273.682H221.683L218.621 278.591L221.708 283.5H219.618L217.406 279.831L215.201 283.5H213.105ZM227.689 283.5V273.682H229.6V277.798H230.52L233.761 273.682H236.126L232.323 278.457L236.171 283.5H233.8L230.84 279.575H229.6V283.5H227.689ZM236.855 278.636C236.855 276.948 237.232 275.68 237.986 274.832C238.74 273.98 239.889 273.554 241.431 273.554C242.974 273.554 244.122 273.98 244.877 274.832C245.631 275.68 246.008 276.948 246.008 278.636C246.008 280.315 245.631 281.578 244.877 282.426C244.122 283.274 242.974 283.698 241.431 283.698C239.889 283.698 238.74 283.274 237.986 282.426C237.232 281.578 236.855 280.315 236.855 278.636ZM238.785 278.629C238.785 279.179 238.823 279.669 238.9 280.099C238.977 280.53 239.113 280.894 239.309 281.192C239.509 281.487 239.78 281.71 240.121 281.864C240.466 282.017 240.905 282.094 241.438 282.094C241.966 282.094 242.401 282.017 242.742 281.864C243.083 281.71 243.351 281.487 243.547 281.192C243.747 280.894 243.886 280.53 243.962 280.099C244.039 279.669 244.078 279.179 244.078 278.629C244.078 278.08 244.039 277.589 243.962 277.159C243.886 276.729 243.747 276.364 243.547 276.066C243.351 275.768 243.083 275.542 242.742 275.388C242.401 275.231 241.966 275.152 241.438 275.152C240.905 275.152 240.466 275.231 240.121 275.388C239.78 275.542 239.509 275.768 239.309 276.066C239.113 276.364 238.977 276.729 238.9 277.159C238.823 277.589 238.785 278.08 238.785 278.629ZM250.185 273.682L253.291 281.135L256.462 273.682H258.84V283.5H256.979V276.386L254.001 283.5H252.582L249.654 276.36V283.5H247.781V273.682H250.185ZM261.027 283.5V273.682H269.036V283.5H267.163V275.331H262.887V283.5H261.027ZM270.771 280.726C270.771 280.3 270.82 279.937 270.918 279.639C271.02 279.337 271.159 279.083 271.333 278.879C271.508 278.674 271.715 278.51 271.954 278.386C272.196 278.259 272.456 278.158 272.733 278.086C273.01 278.009 273.302 277.95 273.609 277.907C273.916 277.864 274.225 277.826 274.536 277.792C274.83 277.758 275.094 277.737 275.329 277.728C275.567 277.715 275.778 277.705 275.961 277.696C276.145 277.688 276.302 277.673 276.434 277.651C276.571 277.63 276.681 277.594 276.767 277.543C276.852 277.487 276.914 277.411 276.952 277.312C276.995 277.21 277.016 277.074 277.016 276.903V276.859C277.016 276.501 276.99 276.209 276.939 275.983C276.892 275.753 276.801 275.574 276.664 275.446C276.528 275.314 276.338 275.224 276.096 275.178C275.853 275.126 275.537 275.101 275.15 275.101C274.749 275.101 274.417 275.139 274.152 275.216C273.892 275.293 273.679 275.395 273.513 275.523C273.347 275.651 273.215 275.798 273.117 275.964C273.023 276.126 272.94 276.294 272.868 276.469L271.071 276.06C271.233 275.612 271.436 275.231 271.679 274.915C271.926 274.596 272.216 274.336 272.548 274.136C272.885 273.935 273.266 273.788 273.692 273.695C274.123 273.601 274.6 273.554 275.124 273.554C275.439 273.554 275.75 273.565 276.057 273.586C276.368 273.607 276.664 273.658 276.946 273.739C277.227 273.816 277.489 273.929 277.732 274.078C277.975 274.227 278.186 274.43 278.365 274.685C278.544 274.937 278.682 275.25 278.78 275.625C278.882 276 278.934 276.452 278.934 276.98V283.5H277.067V282.158H276.99C276.901 282.341 276.79 282.526 276.658 282.714C276.526 282.897 276.349 283.063 276.128 283.212C275.91 283.362 275.637 283.483 275.309 283.577C274.981 283.67 274.574 283.717 274.088 283.717C273.543 283.717 273.064 283.67 272.65 283.577C272.237 283.483 271.89 283.321 271.608 283.091C271.331 282.861 271.123 282.554 270.982 282.17C270.841 281.787 270.771 281.305 270.771 280.726ZM274.504 282.183C274.981 282.183 275.38 282.136 275.699 282.043C276.023 281.949 276.283 281.81 276.479 281.627C276.675 281.44 276.814 281.207 276.895 280.93C276.98 280.653 277.022 280.33 277.022 279.959V278.693C276.976 278.74 276.899 278.783 276.792 278.821C276.69 278.859 276.566 278.898 276.422 278.936C276.281 278.97 276.13 279.002 275.968 279.032C275.806 279.058 275.644 279.083 275.482 279.109C275.324 279.13 275.173 279.151 275.028 279.173C274.883 279.19 274.76 279.205 274.657 279.217C274.38 279.256 274.118 279.294 273.871 279.332C273.628 279.371 273.415 279.439 273.232 279.537C273.053 279.635 272.91 279.778 272.804 279.965C272.697 280.153 272.644 280.415 272.644 280.751C272.644 281.067 272.674 281.32 272.733 281.512C272.797 281.7 272.902 281.844 273.047 281.947C273.191 282.045 273.383 282.109 273.622 282.138C273.86 282.168 274.155 282.183 274.504 282.183ZM281.119 283.5V273.682H282.992V277.766H287.243V273.682H289.109V283.5H287.243V279.422H282.992V283.5H281.119ZM291.306 273.682H293.179V280.822L297.506 273.682H299.565V283.5H297.692V276.354L293.384 283.5H291.306V273.682ZM301.774 283.5V273.682H303.647V280.822L307.975 273.682H310.033V283.5H308.16V276.354L303.852 283.5H301.774ZM304.657 270.358C304.657 270.516 304.678 270.669 304.721 270.818C304.768 270.963 304.84 271.093 304.938 271.208C305.041 271.319 305.171 271.408 305.328 271.477C305.486 271.54 305.678 271.572 305.904 271.572C306.129 271.572 306.321 271.54 306.479 271.477C306.636 271.408 306.764 271.319 306.862 271.208C306.965 271.097 307.039 270.969 307.086 270.825C307.133 270.675 307.156 270.52 307.156 270.358H308.729C308.729 270.716 308.663 271.044 308.531 271.342C308.399 271.641 308.209 271.898 307.962 272.116C307.719 272.329 307.423 272.495 307.073 272.614C306.728 272.729 306.338 272.787 305.904 272.787C305.473 272.787 305.083 272.729 304.734 272.614C304.389 272.495 304.095 272.329 303.852 272.116C303.609 271.898 303.421 271.641 303.289 271.342C303.157 271.044 303.091 270.716 303.091 270.358H304.657ZM312.223 282.343C312.223 282.168 312.257 282.004 312.325 281.851C312.394 281.697 312.485 281.563 312.6 281.448C312.715 281.333 312.85 281.241 313.003 281.173C313.161 281.105 313.327 281.071 313.502 281.071C313.676 281.071 313.84 281.105 313.994 281.173C314.151 281.241 314.288 281.333 314.403 281.448C314.518 281.563 314.61 281.697 314.678 281.851C314.746 282.004 314.78 282.168 314.78 282.343C314.78 282.522 314.746 282.69 314.678 282.848C314.61 283.001 314.518 283.136 314.403 283.251C314.288 283.366 314.151 283.455 313.994 283.519C313.84 283.587 313.676 283.621 313.502 283.621C313.327 283.621 313.161 283.587 313.003 283.519C312.85 283.455 312.715 283.366 312.6 283.251C312.485 283.136 312.394 283.001 312.325 282.848C312.257 282.69 312.223 282.522 312.223 282.343Z" fill="#AAADB5"/>
<defs>
<filter id="filter0_i_2765_7320" x="0" y="0" width="423.002" height="425" filterUnits="userSpaceOnUse" color-interpolation-filters="sRGB">
<feFlood flood-opacity="0" result="BackgroundImageFix"/>
<feBlend mode="normal" in="SourceGraphic" in2="BackgroundImageFix" result="shape"/>
<feColorMatrix in="SourceAlpha" type="matrix" values="0 0 0 0 0 0 0 0 0 0 0 0 0 0 0 0 0 0 127 0" result="hardAlpha"/>
<feOffset dy="2"/>
<feGaussianBlur stdDeviation="1"/>
<feComposite in2="hardAlpha" operator="arithmetic" k2="-1" k3="1"/>
<feColorMatrix type="matrix" values="0 0 0 0 0 0 0 0 0 0 0 0 0 0 0 0 0 0 0.25 0"/>
<feBlend mode="normal" in2="shape" result="effect1_innerShadow_2765_7320"/>
</filter>
</defs>
</svg>