<svg width="421" height="421" viewBox="0 0 421 421" fill="none" xmlns="http://www.w3.org/2000/svg">
<circle cx="211" cy="211" r="176" stroke="#282829" stroke-width="8"/>
<g filter="url(#filter0_i_2765_7290)">
<rect x="196.582" width="5.21901" height="19.0576" rx="2.6095" fill="#FF2B44"/>
<rect width="5.12821" height="17.8848" rx="2.56411" transform="matrix(0.966192 0.257825 -0.259816 0.965658 252.34 4.17578)" fill="#FF2B44"/>
<rect width="5.12436" height="17.8983" rx="2.56218" transform="matrix(0.866916 0.498454 -0.501547 0.86513 304.461 22.0547)" fill="#FF2B44"/>
<rect width="5.11908" height="17.9168" rx="2.55954" transform="matrix(0.708563 0.705647 -0.708563 0.705647 350.156 52.7539)" fill="#FF2B44"/>
<rect width="5.1138" height="17.9352" rx="2.5569" transform="matrix(0.501547 0.86513 -0.866916 0.498454 386.32 94.1875)" fill="#FF2B44"/>
<rect width="5.10993" height="17.9487" rx="2.55497" transform="matrix(0.259816 0.965658 -0.966192 0.257825 410.484 143.523)" fill="#FF2B44"/>
<rect x="421" y="197.508" width="5.19753" height="17.3967" rx="2.59877" transform="rotate(90 421 197.508)" fill="#FF2B44"/>
<rect width="5.10993" height="17.9487" rx="2.55497" transform="matrix(-0.259816 0.965658 -0.966192 -0.257825 417.152 252.176)" fill="#FF2B44"/>
<rect width="5.1138" height="17.9352" rx="2.5569" transform="matrix(-0.501547 0.86513 -0.866916 -0.498454 399.205 304.082)" fill="#FF2B44"/>
<rect width="5.11908" height="17.9168" rx="2.55954" transform="matrix(-0.708563 0.705647 -0.708563 -0.705647 368.377 349.594)" fill="#FF2B44"/>
<rect width="5.12436" height="17.8983" rx="2.56218" transform="matrix(-0.866916 0.498454 -0.501547 -0.86513 326.773 385.605)" fill="#FF2B44"/>
<rect width="5.12821" height="17.8848" rx="2.56411" transform="matrix(-0.966192 0.257825 -0.259816 -0.965658 277.23 409.672)" fill="#FF2B44"/>
<rect x="222.678" y="421" width="5.21901" height="19.0576" rx="2.6095" transform="rotate(-180 222.678 421)" fill="#FF2B44"/>
<rect width="5.12821" height="17.8848" rx="2.56411" transform="matrix(-0.966192 -0.257825 0.259816 -0.965658 168.129 416.312)" fill="#696B74"/>
<rect width="5.12436" height="17.8983" rx="2.56218" transform="matrix(-0.866916 -0.498454 0.501547 -0.86513 116.008 398.438)" fill="#696B74"/>
<rect width="5.11908" height="17.9168" rx="2.55954" transform="matrix(-0.708563 -0.705647 0.708563 -0.705647 70.3086 367.738)" fill="#696B74"/>
<rect width="5.1138" height="17.9352" rx="2.5569" transform="matrix(-0.501547 -0.86513 0.866916 -0.498454 34.1465 326.309)" fill="#696B74"/>
<rect width="5.10993" height="17.9487" rx="2.55497" transform="matrix(-0.259816 -0.965658 0.966191 -0.257825 9.98438 276.965)" fill="#696B74"/>
<rect y="223.492" width="5.19753" height="17.3967" rx="2.59877" transform="rotate(-90 0 223.492)" fill="#696B74"/>
<rect width="5.10993" height="17.9487" rx="2.55497" transform="matrix(0.259816 -0.965658 0.966191 0.257825 3.31445 168.312)" fill="#696B74"/>
<rect width="5.1138" height="17.9352" rx="2.5569" transform="matrix(0.501547 -0.86513 0.866916 0.498454 21.2617 116.406)" fill="#696B74"/>
<rect width="5.11908" height="17.9168" rx="2.55954" transform="matrix(0.708563 -0.705647 0.708563 0.705647 52.0898 70.8984)" fill="#696B74"/>
<rect width="5.12436" height="17.8983" rx="2.56218" transform="matrix(0.866916 -0.498454 0.501547 0.86513 93.6914 34.8828)" fill="#696B74"/>
<rect width="5.12821" height="17.8848" rx="2.56411" transform="matrix(0.966191 -0.257825 0.259816 0.965658 143.238 10.8203)" fill="#696B74"/>
</g>
<path d="M100.045 153.273C100.076 144.818 101.659 138.523 104.795 134.386C107.932 130.25 112.659 128.182 118.977 128.182C121.583 128.182 123.871 128.538 125.841 129.25C127.811 129.947 129.477 130.909 130.841 132.136C132.205 133.364 133.273 134.818 134.045 136.5C134.833 138.182 135.341 140 135.568 141.955H125.864C125.682 141.106 125.439 140.348 125.136 139.682C124.833 139.015 124.417 138.455 123.886 138C123.371 137.545 122.72 137.205 121.932 136.977C121.144 136.735 120.159 136.614 118.977 136.614C117.174 136.614 115.674 136.955 114.477 137.636C113.295 138.318 112.348 139.303 111.636 140.591C110.939 141.864 110.439 143.417 110.136 145.25C109.848 147.083 109.697 149.152 109.682 151.455H110C110.53 150.424 111.144 149.508 111.841 148.705C112.538 147.886 113.356 147.197 114.295 146.636C115.25 146.061 116.333 145.629 117.545 145.341C118.773 145.038 120.167 144.886 121.727 144.886C126.424 144.886 129.985 146.159 132.409 148.705C134.848 151.235 136.061 154.97 136.045 159.909C136.061 165.212 134.598 169.25 131.659 172.023C128.735 174.795 124.394 176.167 118.636 176.136C116.848 176.136 115.152 175.985 113.545 175.682C111.939 175.394 110.447 174.909 109.068 174.227C107.689 173.545 106.447 172.644 105.341 171.523C104.235 170.386 103.288 168.97 102.5 167.273C101.727 165.576 101.121 163.576 100.682 161.273C100.258 158.97 100.045 156.303 100.045 153.273ZM118.591 168.409C120.015 168.409 121.227 168.258 122.227 167.955C123.227 167.636 124.045 167.144 124.682 166.477C125.318 165.811 125.78 164.962 126.068 163.932C126.356 162.886 126.5 161.636 126.5 160.182C126.5 158.742 126.356 157.508 126.068 156.477C125.795 155.447 125.341 154.598 124.705 153.932C124.083 153.265 123.273 152.78 122.273 152.477C121.288 152.159 120.083 152 118.659 152C117.25 152 116.038 152.167 115.023 152.5C114.023 152.818 113.197 153.311 112.545 153.977C111.909 154.644 111.439 155.5 111.136 156.545C110.833 157.576 110.682 158.795 110.682 160.205C110.682 161.629 110.826 162.856 111.114 163.886C111.402 164.917 111.864 165.765 112.5 166.432C113.136 167.098 113.955 167.598 114.955 167.932C115.955 168.25 117.167 168.409 118.591 168.409ZM141.197 152.273C141.197 148.182 141.576 144.636 142.334 141.636C143.091 138.621 144.243 136.129 145.788 134.159C147.334 132.189 149.281 130.727 151.629 129.773C153.993 128.803 156.781 128.318 159.993 128.318C163.205 128.318 165.993 128.803 168.356 129.773C170.72 130.727 172.675 132.189 174.22 134.159C175.765 136.129 176.909 138.621 177.652 141.636C178.409 144.636 178.788 148.182 178.788 152.273C178.788 156.394 178.409 159.977 177.652 163.023C176.894 166.053 175.743 168.568 174.197 170.568C172.652 172.568 170.697 174.061 168.334 175.045C165.985 176.03 163.205 176.523 159.993 176.523C156.781 176.523 153.993 176.03 151.629 175.045C149.265 174.061 147.311 172.568 145.765 170.568C144.22 168.568 143.068 166.053 142.311 163.023C141.568 159.977 141.197 156.394 141.197 152.273ZM159.993 168.364C161.614 168.364 162.978 168.083 164.084 167.523C165.205 166.962 166.106 166.045 166.788 164.773C167.485 163.5 167.985 161.841 168.288 159.795C168.591 157.75 168.743 155.242 168.743 152.273C168.743 149.348 168.591 146.879 168.288 144.864C167.985 142.833 167.485 141.197 166.788 139.955C166.091 138.697 165.19 137.788 164.084 137.227C162.978 136.667 161.614 136.386 159.993 136.386C158.372 136.386 157 136.667 155.879 137.227C154.773 137.788 153.872 138.697 153.175 139.955C152.493 141.197 151.993 142.833 151.675 144.864C151.372 146.879 151.22 149.348 151.22 152.273C151.22 155.242 151.372 157.75 151.675 159.795C151.978 161.841 152.478 163.5 153.175 164.773C153.872 166.045 154.773 166.962 155.879 167.523C157 168.083 158.372 168.364 159.993 168.364ZM186.412 148.25H198.434V136.227H206.571V148.25H218.593V156.386H206.571V168.409H198.434V156.386H186.412V148.25Z" fill="white"/>
<path d="M99.5568 205.682L102.043 213.301H102.146L104.632 205.682L106.697 205.701L102.638 216.81C102.357 217.573 101.958 218.155 101.442 218.555C100.931 218.956 100.281 219.156 99.4929 219.156C99.2031 219.156 98.9411 219.135 98.7067 219.092C98.4766 219.05 98.304 219.001 98.1889 218.945L98.6491 217.379C98.9517 217.464 99.2202 217.507 99.4545 217.507C99.608 217.507 99.7507 217.486 99.8828 217.443C100.019 217.401 100.145 217.33 100.26 217.232C100.375 217.138 100.482 217.013 100.58 216.855C100.682 216.702 100.778 216.51 100.867 216.28L101.104 215.628L97.5114 205.682H99.5568ZM107.697 210.636C107.697 209.805 107.788 209.074 107.971 208.443C108.159 207.808 108.44 207.278 108.815 206.852C109.195 206.421 109.67 206.097 110.241 205.88C110.812 205.663 111.483 205.554 112.254 205.554C112.893 205.554 113.454 205.633 113.935 205.79C114.417 205.948 114.824 206.172 115.156 206.462C115.493 206.747 115.755 207.094 115.942 207.504C116.134 207.908 116.256 208.358 116.307 208.852H114.447C114.396 208.622 114.325 208.405 114.236 208.2C114.15 207.996 114.027 207.817 113.865 207.663C113.703 207.51 113.494 207.388 113.239 207.299C112.987 207.21 112.67 207.165 112.286 207.165C111.809 207.165 111.4 207.231 111.059 207.363C110.722 207.491 110.447 207.693 110.234 207.97C110.025 208.247 109.872 208.603 109.774 209.038C109.676 209.468 109.627 209.986 109.627 210.591C109.627 211.205 109.674 211.733 109.768 212.176C109.866 212.615 110.019 212.977 110.228 213.263C110.441 213.544 110.716 213.751 111.052 213.883C111.389 214.015 111.8 214.081 112.286 214.081C112.64 214.081 112.94 214.043 113.187 213.966C113.435 213.889 113.641 213.778 113.807 213.634C113.974 213.489 114.106 213.312 114.204 213.103C114.306 212.894 114.387 212.658 114.447 212.393H116.307C116.256 212.871 116.141 213.312 115.962 213.717C115.783 214.121 115.529 214.471 115.201 214.765C114.877 215.059 114.472 215.289 113.986 215.455C113.505 215.617 112.934 215.698 112.273 215.698C111.481 215.698 110.797 215.589 110.221 215.372C109.646 215.151 109.171 214.827 108.796 214.401C108.421 213.97 108.144 213.44 107.965 212.809C107.786 212.178 107.697 211.454 107.697 210.636ZM117.991 215.5V205.682H126V215.5H124.127V207.331H119.851V215.5H117.991ZM127.754 210.655C127.754 208.984 128.129 207.717 128.879 206.852C129.629 205.987 130.767 205.554 132.292 205.554C132.927 205.554 133.511 205.631 134.044 205.784C134.576 205.933 135.035 206.195 135.418 206.57C135.802 206.945 136.1 207.45 136.313 208.085C136.53 208.72 136.639 209.521 136.639 210.489V211.166H129.659C129.672 211.686 129.731 212.134 129.838 212.509C129.949 212.879 130.115 213.184 130.336 213.423C130.562 213.661 130.848 213.838 131.193 213.953C131.538 214.064 131.956 214.119 132.446 214.119C132.799 214.119 133.1 214.089 133.347 214.03C133.594 213.97 133.803 213.883 133.973 213.768C134.148 213.648 134.293 213.501 134.408 213.327C134.523 213.152 134.623 212.95 134.709 212.719L136.517 213.045C136.411 213.446 136.251 213.81 136.038 214.138C135.829 214.462 135.559 214.741 135.226 214.976C134.898 215.206 134.502 215.383 134.037 215.506C133.577 215.634 133.04 215.698 132.427 215.698C131.621 215.698 130.924 215.587 130.336 215.366C129.753 215.144 129.269 214.82 128.885 214.394C128.502 213.964 128.216 213.435 128.029 212.809C127.846 212.183 127.754 211.464 127.754 210.655ZM129.665 209.734H134.766C134.766 209.278 134.721 208.886 134.632 208.558C134.547 208.23 134.406 207.962 134.21 207.753C134.014 207.54 133.76 207.384 133.449 207.286C133.138 207.184 132.757 207.133 132.305 207.133C131.836 207.133 131.438 207.188 131.11 207.299C130.786 207.41 130.52 207.574 130.311 207.791C130.102 208.009 129.946 208.279 129.844 208.603C129.746 208.927 129.687 209.304 129.665 209.734ZM138.399 205.682H140.272V213.844H143.667V205.682H145.539V213.844H148.934V205.682H150.806V215.5H138.399V205.682ZM152.998 215.5V205.682H154.871V209.766H159.122V205.682H160.989V215.5H159.122V211.422H154.871V215.5H152.998ZM163.185 205.682H165.058V209.057H167.474C168.156 209.057 168.734 209.121 169.207 209.249C169.684 209.376 170.072 209.572 170.37 209.837C170.668 210.097 170.883 210.429 171.016 210.834C171.152 211.234 171.22 211.71 171.22 212.259C171.22 212.8 171.152 213.273 171.016 213.678C170.883 214.083 170.668 214.422 170.37 214.695C170.072 214.963 169.684 215.165 169.207 215.302C168.734 215.434 168.156 215.5 167.474 215.5H163.185V205.682ZM172.614 205.682H174.525V215.5H172.614V205.682ZM165.058 210.706V213.851H167.474C167.828 213.851 168.124 213.827 168.363 213.781C168.606 213.734 168.8 213.653 168.945 213.538C169.094 213.423 169.2 213.267 169.264 213.071C169.328 212.871 169.36 212.619 169.36 212.317C169.36 212.001 169.328 211.739 169.264 211.531C169.2 211.322 169.094 211.158 168.945 211.038C168.8 210.915 168.606 210.83 168.363 210.783C168.124 210.732 167.828 210.706 167.474 210.706H165.058ZM176.103 215.5L179.159 210.591L176.142 205.682H178.238L180.405 209.504L182.591 205.682H184.681L181.62 210.591L184.707 215.5H182.617L180.405 211.831L178.2 215.5H176.103ZM190.687 215.5V205.682H198.697V215.5H196.824V207.331H192.547V215.5H190.687ZM200.892 219.182V205.682H202.758V207.273H202.918C202.974 207.171 203.031 207.058 203.091 206.935C203.155 206.811 203.231 206.685 203.321 206.558C203.415 206.43 203.525 206.306 203.653 206.187C203.781 206.067 203.939 205.961 204.126 205.867C204.318 205.773 204.544 205.699 204.804 205.643C205.068 205.584 205.379 205.554 205.737 205.554C206.41 205.554 207.003 205.669 207.514 205.899C208.03 206.125 208.46 206.455 208.805 206.89C209.155 207.32 209.417 207.849 209.591 208.475C209.77 209.102 209.86 209.813 209.86 210.61C209.86 211.403 209.773 212.114 209.598 212.745C209.423 213.371 209.163 213.904 208.818 214.343C208.473 214.778 208.045 215.112 207.533 215.347C207.022 215.577 206.429 215.692 205.756 215.692C205.407 215.692 205.1 215.664 204.836 215.609C204.576 215.553 204.35 215.479 204.158 215.385C203.966 215.291 203.804 215.185 203.672 215.065C203.545 214.946 203.434 214.822 203.34 214.695C203.246 214.567 203.165 214.441 203.097 214.317C203.033 214.19 202.974 214.075 202.918 213.972H202.803V219.182H200.892ZM202.918 210.591C202.918 211.187 202.95 211.705 203.014 212.144C203.082 212.579 203.206 212.939 203.385 213.224C203.564 213.506 203.809 213.717 204.12 213.857C204.435 213.994 204.838 214.062 205.328 214.062C205.835 214.062 206.255 213.989 206.587 213.844C206.924 213.695 207.19 213.476 207.386 213.186C207.586 212.892 207.727 212.53 207.808 212.099C207.889 211.665 207.929 211.162 207.929 210.591C207.929 210.024 207.889 209.528 207.808 209.102C207.731 208.675 207.595 208.32 207.399 208.034C207.203 207.749 206.937 207.536 206.6 207.395C206.263 207.25 205.839 207.178 205.328 207.178C204.829 207.178 204.422 207.246 204.107 207.382C203.796 207.514 203.551 207.719 203.372 207.996C203.197 208.273 203.078 208.626 203.014 209.057C202.95 209.487 202.918 209.999 202.918 210.591ZM211.2 210.636C211.2 208.948 211.577 207.68 212.332 206.832C213.086 205.98 214.234 205.554 215.777 205.554C217.319 205.554 218.468 205.98 219.222 206.832C219.976 207.68 220.354 208.948 220.354 210.636C220.354 212.315 219.976 213.578 219.222 214.426C218.468 215.274 217.319 215.698 215.777 215.698C214.234 215.698 213.086 215.274 212.332 214.426C211.577 213.578 211.2 212.315 211.2 210.636ZM213.131 210.629C213.131 211.179 213.169 211.669 213.246 212.099C213.322 212.53 213.459 212.894 213.655 213.192C213.855 213.487 214.126 213.71 214.466 213.864C214.812 214.017 215.251 214.094 215.783 214.094C216.312 214.094 216.746 214.017 217.087 213.864C217.428 213.71 217.697 213.487 217.893 213.192C218.093 212.894 218.231 212.53 218.308 212.099C218.385 211.669 218.423 211.179 218.423 210.629C218.423 210.08 218.385 209.589 218.308 209.159C218.231 208.729 218.093 208.364 217.893 208.066C217.697 207.768 217.428 207.542 217.087 207.388C216.746 207.231 216.312 207.152 215.783 207.152C215.251 207.152 214.812 207.231 214.466 207.388C214.126 207.542 213.855 207.768 213.655 208.066C213.459 208.364 213.322 208.729 213.246 209.159C213.169 209.589 213.131 210.08 213.131 210.629ZM221.686 210.655C221.686 208.984 222.061 207.717 222.811 206.852C223.561 205.987 224.699 205.554 226.224 205.554C226.859 205.554 227.443 205.631 227.976 205.784C228.508 205.933 228.966 206.195 229.35 206.57C229.733 206.945 230.032 207.45 230.245 208.085C230.462 208.72 230.571 209.521 230.571 210.489V211.166H223.591C223.603 211.686 223.663 212.134 223.77 212.509C223.88 212.879 224.047 213.184 224.268 213.423C224.494 213.661 224.78 213.838 225.125 213.953C225.47 214.064 225.888 214.119 226.378 214.119C226.731 214.119 227.032 214.089 227.279 214.03C227.526 213.97 227.735 213.883 227.905 213.768C228.08 213.648 228.225 213.501 228.34 213.327C228.455 213.152 228.555 212.95 228.64 212.719L230.449 213.045C230.343 213.446 230.183 213.81 229.97 214.138C229.761 214.462 229.491 214.741 229.158 214.976C228.83 215.206 228.434 215.383 227.969 215.506C227.509 215.634 226.972 215.698 226.358 215.698C225.553 215.698 224.856 215.587 224.268 215.366C223.684 215.144 223.201 214.82 222.817 214.394C222.434 213.964 222.148 213.435 221.961 212.809C221.777 212.183 221.686 211.464 221.686 210.655ZM223.597 209.734H228.698C228.698 209.278 228.653 208.886 228.564 208.558C228.478 208.23 228.338 207.962 228.142 207.753C227.946 207.54 227.692 207.384 227.381 207.286C227.07 207.184 226.689 207.133 226.237 207.133C225.768 207.133 225.37 207.188 225.042 207.299C224.718 207.41 224.451 207.574 224.243 207.791C224.034 208.009 223.878 208.279 223.776 208.603C223.678 208.927 223.618 209.304 223.597 209.734ZM232.331 215.5V205.682H234.243V209.798H235.163L238.404 205.682H240.769L236.966 210.457L240.814 215.5H238.442L235.483 211.575H234.243V215.5H232.331ZM241.388 207.331V205.682H249.673V207.331H246.47V215.5H244.604V207.331H241.388ZM250.893 210.636C250.893 208.948 251.27 207.68 252.024 206.832C252.779 205.98 253.927 205.554 255.47 205.554C257.012 205.554 258.161 205.98 258.915 206.832C259.669 207.68 260.046 208.948 260.046 210.636C260.046 212.315 259.669 213.578 258.915 214.426C258.161 215.274 257.012 215.698 255.47 215.698C253.927 215.698 252.779 215.274 252.024 214.426C251.27 213.578 250.893 212.315 250.893 210.636ZM252.823 210.629C252.823 211.179 252.862 211.669 252.938 212.099C253.015 212.53 253.151 212.894 253.348 213.192C253.548 213.487 253.818 213.71 254.159 213.864C254.504 214.017 254.943 214.094 255.476 214.094C256.004 214.094 256.439 214.017 256.78 213.864C257.121 213.71 257.389 213.487 257.585 213.192C257.786 212.894 257.924 212.53 258.001 212.099C258.078 211.669 258.116 211.179 258.116 210.629C258.116 210.08 258.078 209.589 258.001 209.159C257.924 208.729 257.786 208.364 257.585 208.066C257.389 207.768 257.121 207.542 256.78 207.388C256.439 207.231 256.004 207.152 255.476 207.152C254.943 207.152 254.504 207.231 254.159 207.388C253.818 207.542 253.548 207.768 253.348 208.066C253.151 208.364 253.015 208.729 252.938 209.159C252.862 209.589 252.823 210.08 252.823 210.629ZM261.82 205.682H265.891C266.526 205.682 267.07 205.729 267.521 205.822C267.977 205.912 268.35 206.061 268.64 206.27C268.934 206.474 269.149 206.745 269.286 207.082C269.426 207.414 269.497 207.821 269.497 208.303C269.497 208.669 269.448 208.978 269.35 209.229C269.256 209.481 269.122 209.69 268.947 209.856C268.772 210.022 268.561 210.152 268.314 210.246C268.067 210.339 267.792 210.416 267.489 210.476C267.818 210.514 268.129 210.576 268.423 210.661C268.717 210.746 268.975 210.879 269.196 211.058C269.418 211.232 269.592 211.464 269.72 211.754C269.852 212.044 269.918 212.411 269.918 212.854C269.918 213.322 269.857 213.725 269.733 214.062C269.61 214.394 269.411 214.667 269.139 214.88C268.87 215.093 268.519 215.251 268.084 215.353C267.654 215.451 267.129 215.5 266.511 215.5H261.82V205.682ZM263.616 211.173V213.902H266.511C266.827 213.902 267.083 213.889 267.279 213.864C267.479 213.834 267.634 213.774 267.745 213.685C267.856 213.595 267.931 213.467 267.969 213.301C268.007 213.135 268.026 212.915 268.026 212.643C268.026 212.336 268.007 212.087 267.969 211.895C267.931 211.703 267.856 211.554 267.745 211.447C267.634 211.341 267.479 211.268 267.279 211.23C267.083 211.192 266.827 211.173 266.511 211.173H263.616ZM263.616 207.299V209.773H265.911C266.256 209.773 266.539 209.76 266.761 209.734C266.987 209.705 267.163 209.645 267.291 209.555C267.423 209.466 267.513 209.338 267.56 209.172C267.611 209.006 267.636 208.784 267.636 208.507C267.636 208.239 267.611 208.026 267.56 207.868C267.513 207.706 267.423 207.585 267.291 207.504C267.159 207.418 266.98 207.363 266.754 207.337C266.533 207.312 266.245 207.299 265.891 207.299H263.616ZM271.508 218.696C271.551 218.5 271.606 218.246 271.674 217.935C271.742 217.629 271.811 217.288 271.879 216.913C271.951 216.538 272.019 216.137 272.083 215.711C272.147 215.289 272.198 214.861 272.237 214.426L272.301 213.71H274.142L274.046 214.407C274.012 214.663 273.965 214.927 273.905 215.2C273.85 215.472 273.786 215.743 273.713 216.011C273.645 216.284 273.571 216.55 273.49 216.81C273.413 217.075 273.336 217.322 273.259 217.552C273.183 217.786 273.11 217.999 273.042 218.191C272.974 218.387 272.914 218.555 272.863 218.696H271.508ZM98.2848 242.5V232.682H100.196V236.798H101.116L104.357 232.682H106.722L102.919 237.457L106.767 242.5H104.396L101.436 238.575H100.196V242.5H98.2848ZM107.451 237.636C107.451 235.948 107.828 234.68 108.582 233.832C109.336 232.98 110.485 232.554 112.027 232.554C113.57 232.554 114.718 232.98 115.473 233.832C116.227 234.68 116.604 235.948 116.604 237.636C116.604 239.315 116.227 240.578 115.473 241.426C114.718 242.274 113.57 242.698 112.027 242.698C110.485 242.698 109.336 242.274 108.582 241.426C107.828 240.578 107.451 239.315 107.451 237.636ZM109.381 237.629C109.381 238.179 109.419 238.669 109.496 239.099C109.573 239.53 109.709 239.894 109.905 240.192C110.105 240.487 110.376 240.71 110.717 240.864C111.062 241.017 111.501 241.094 112.034 241.094C112.562 241.094 112.997 241.017 113.338 240.864C113.679 240.71 113.947 240.487 114.143 240.192C114.343 239.894 114.482 239.53 114.559 239.099C114.635 238.669 114.674 238.179 114.674 237.629C114.674 237.08 114.635 236.589 114.559 236.159C114.482 235.729 114.343 235.364 114.143 235.066C113.947 234.768 113.679 234.542 113.338 234.388C112.997 234.231 112.562 234.152 112.034 234.152C111.501 234.152 111.062 234.231 110.717 234.388C110.376 234.542 110.105 234.768 109.905 235.066C109.709 235.364 109.573 235.729 109.496 236.159C109.419 236.589 109.381 237.08 109.381 237.629ZM117.828 234.331V232.682H126.112V234.331H122.909V242.5H121.043V234.331H117.828ZM127.332 237.636C127.332 235.948 127.709 234.68 128.464 233.832C129.218 232.98 130.366 232.554 131.909 232.554C133.451 232.554 134.6 232.98 135.354 233.832C136.108 234.68 136.486 235.948 136.486 237.636C136.486 239.315 136.108 240.578 135.354 241.426C134.6 242.274 133.451 242.698 131.909 242.698C130.366 242.698 129.218 242.274 128.464 241.426C127.709 240.578 127.332 239.315 127.332 237.636ZM129.263 237.629C129.263 238.179 129.301 238.669 129.378 239.099C129.454 239.53 129.591 239.894 129.787 240.192C129.987 240.487 130.258 240.71 130.598 240.864C130.944 241.017 131.383 241.094 131.915 241.094C132.444 241.094 132.878 241.017 133.219 240.864C133.56 240.71 133.829 240.487 134.025 240.192C134.225 239.894 134.363 239.53 134.44 239.099C134.517 238.669 134.555 238.179 134.555 237.629C134.555 237.08 134.517 236.589 134.44 236.159C134.363 235.729 134.225 235.364 134.025 235.066C133.829 234.768 133.56 234.542 133.219 234.388C132.878 234.231 132.444 234.152 131.915 234.152C131.383 234.152 130.944 234.231 130.598 234.388C130.258 234.542 129.987 234.768 129.787 235.066C129.591 235.364 129.454 235.729 129.378 236.159C129.301 236.589 129.263 237.08 129.263 237.629ZM138.259 246.182V232.682H140.125V234.273H140.285C140.341 234.171 140.398 234.058 140.458 233.935C140.522 233.811 140.598 233.685 140.688 233.558C140.782 233.43 140.892 233.306 141.02 233.187C141.148 233.067 141.306 232.961 141.493 232.867C141.685 232.773 141.911 232.699 142.171 232.643C142.435 232.584 142.746 232.554 143.104 232.554C143.777 232.554 144.37 232.669 144.881 232.899C145.397 233.125 145.827 233.455 146.172 233.89C146.522 234.32 146.784 234.849 146.958 235.475C147.137 236.102 147.227 236.813 147.227 237.61C147.227 238.403 147.14 239.114 146.965 239.745C146.79 240.371 146.53 240.904 146.185 241.343C145.84 241.778 145.412 242.112 144.9 242.347C144.389 242.577 143.797 242.692 143.123 242.692C142.774 242.692 142.467 242.664 142.203 242.609C141.943 242.553 141.717 242.479 141.525 242.385C141.333 242.291 141.172 242.185 141.039 242.065C140.912 241.946 140.801 241.822 140.707 241.695C140.613 241.567 140.532 241.441 140.464 241.317C140.4 241.19 140.341 241.075 140.285 240.972H140.17V246.182H138.259ZM140.285 237.591C140.285 238.187 140.317 238.705 140.381 239.144C140.449 239.579 140.573 239.939 140.752 240.224C140.931 240.506 141.176 240.717 141.487 240.857C141.802 240.994 142.205 241.062 142.695 241.062C143.202 241.062 143.622 240.989 143.954 240.844C144.291 240.695 144.557 240.476 144.753 240.186C144.953 239.892 145.094 239.53 145.175 239.099C145.256 238.665 145.297 238.162 145.297 237.591C145.297 237.024 145.256 236.528 145.175 236.102C145.098 235.675 144.962 235.32 144.766 235.034C144.57 234.749 144.304 234.536 143.967 234.395C143.63 234.25 143.206 234.178 142.695 234.178C142.196 234.178 141.789 234.246 141.474 234.382C141.163 234.514 140.918 234.719 140.739 234.996C140.564 235.273 140.445 235.626 140.381 236.057C140.317 236.487 140.285 236.999 140.285 237.591ZM149.008 232.682H150.881V236.057H153.297C153.979 236.057 154.557 236.121 155.03 236.249C155.507 236.376 155.895 236.572 156.193 236.837C156.491 237.097 156.706 237.429 156.838 237.834C156.975 238.234 157.043 238.71 157.043 239.259C157.043 239.8 156.975 240.273 156.838 240.678C156.706 241.083 156.491 241.422 156.193 241.695C155.895 241.963 155.507 242.165 155.03 242.302C154.557 242.434 153.979 242.5 153.297 242.5H149.008V232.682ZM158.437 232.682H160.348V242.5H158.437V232.682ZM150.881 237.706V240.851H153.297C153.651 240.851 153.947 240.827 154.186 240.781C154.429 240.734 154.623 240.653 154.767 240.538C154.917 240.423 155.023 240.267 155.087 240.071C155.151 239.871 155.183 239.619 155.183 239.317C155.183 239.001 155.151 238.739 155.087 238.531C155.023 238.322 154.917 238.158 154.767 238.038C154.623 237.915 154.429 237.83 154.186 237.783C153.947 237.732 153.651 237.706 153.297 237.706H150.881ZM162.111 237.655C162.111 235.984 162.486 234.717 163.236 233.852C163.986 232.987 165.124 232.554 166.65 232.554C167.285 232.554 167.869 232.631 168.401 232.784C168.934 232.933 169.392 233.195 169.776 233.57C170.159 233.945 170.457 234.45 170.67 235.085C170.888 235.72 170.996 236.521 170.996 237.489V238.166H164.016C164.029 238.686 164.089 239.134 164.195 239.509C164.306 239.879 164.472 240.184 164.694 240.423C164.92 240.661 165.205 240.838 165.55 240.953C165.896 241.064 166.313 241.119 166.803 241.119C167.157 241.119 167.457 241.089 167.705 241.03C167.952 240.97 168.16 240.883 168.331 240.768C168.506 240.648 168.651 240.501 168.766 240.327C168.881 240.152 168.981 239.95 169.066 239.719L170.875 240.045C170.768 240.446 170.609 240.81 170.396 241.138C170.187 241.462 169.916 241.741 169.584 241.976C169.256 242.206 168.859 242.383 168.395 242.506C167.935 242.634 167.398 242.698 166.784 242.698C165.979 242.698 165.282 242.587 164.694 242.366C164.11 242.144 163.626 241.82 163.243 241.394C162.859 240.964 162.574 240.435 162.386 239.809C162.203 239.183 162.111 238.464 162.111 237.655ZM164.023 236.734H169.124C169.124 236.278 169.079 235.886 168.989 235.558C168.904 235.23 168.763 234.962 168.567 234.753C168.371 234.54 168.118 234.384 167.807 234.286C167.496 234.184 167.114 234.133 166.663 234.133C166.194 234.133 165.795 234.188 165.467 234.299C165.143 234.41 164.877 234.574 164.668 234.791C164.459 235.009 164.304 235.279 164.202 235.603C164.104 235.927 164.044 236.304 164.023 236.734ZM177.161 242.5V232.682H185.17V242.5H183.297V234.331H179.021V242.5H177.161ZM186.924 237.636C186.924 235.948 187.301 234.68 188.055 233.832C188.81 232.98 189.958 232.554 191.501 232.554C193.043 232.554 194.192 232.98 194.946 233.832C195.7 234.68 196.077 235.948 196.077 237.636C196.077 239.315 195.7 240.578 194.946 241.426C194.192 242.274 193.043 242.698 191.501 242.698C189.958 242.698 188.81 242.274 188.055 241.426C187.301 240.578 186.924 239.315 186.924 237.636ZM188.854 237.629C188.854 238.179 188.893 238.669 188.97 239.099C189.046 239.53 189.183 239.894 189.379 240.192C189.579 240.487 189.849 240.71 190.19 240.864C190.536 241.017 190.974 241.094 191.507 241.094C192.036 241.094 192.47 241.017 192.811 240.864C193.152 240.71 193.421 240.487 193.617 240.192C193.817 239.894 193.955 239.53 194.032 239.099C194.109 238.669 194.147 238.179 194.147 237.629C194.147 237.08 194.109 236.589 194.032 236.159C193.955 235.729 193.817 235.364 193.617 235.066C193.421 234.768 193.152 234.542 192.811 234.388C192.47 234.231 192.036 234.152 191.507 234.152C190.974 234.152 190.536 234.231 190.19 234.388C189.849 234.542 189.579 234.768 189.379 235.066C189.183 235.364 189.046 235.729 188.97 236.159C188.893 236.589 188.854 237.08 188.854 237.629ZM200.254 232.682L203.361 240.135L206.531 232.682H208.909V242.5H207.049V235.386L204.07 242.5H202.651L199.724 235.36V242.5H197.851V232.682H200.254ZM210.655 237.636C210.655 235.948 211.032 234.68 211.787 233.832C212.541 232.98 213.689 232.554 215.232 232.554C216.775 232.554 217.923 232.98 218.677 233.832C219.432 234.68 219.809 235.948 219.809 237.636C219.809 239.315 219.432 240.578 218.677 241.426C217.923 242.274 216.775 242.698 215.232 242.698C213.689 242.698 212.541 242.274 211.787 241.426C211.032 240.578 210.655 239.315 210.655 237.636ZM212.586 237.629C212.586 238.179 212.624 238.669 212.701 239.099C212.777 239.53 212.914 239.894 213.11 240.192C213.31 240.487 213.581 240.71 213.922 240.864C214.267 241.017 214.706 241.094 215.238 241.094C215.767 241.094 216.201 241.017 216.542 240.864C216.883 240.71 217.152 240.487 217.348 240.192C217.548 239.894 217.686 239.53 217.763 239.099C217.84 238.669 217.878 238.179 217.878 237.629C217.878 237.08 217.84 236.589 217.763 236.159C217.686 235.729 217.548 235.364 217.348 235.066C217.152 234.768 216.883 234.542 216.542 234.388C216.201 234.231 215.767 234.152 215.238 234.152C214.706 234.152 214.267 234.231 213.922 234.388C213.581 234.542 213.31 234.768 213.11 235.066C212.914 235.364 212.777 235.729 212.701 236.159C212.624 236.589 212.586 237.08 212.586 237.629ZM227.859 234.331H223.468V242.5H221.582V232.682H227.859V234.331ZM228.739 240.844H229.091C229.444 240.844 229.719 240.789 229.915 240.678C230.111 240.563 230.258 240.363 230.356 240.077C230.454 239.788 230.52 239.398 230.554 238.908C230.588 238.413 230.62 237.787 230.65 237.028L230.823 232.682H237.675V242.5H235.802V234.331H232.593L232.44 237.668C232.414 238.209 232.376 238.705 232.325 239.157C232.278 239.604 232.208 240.007 232.114 240.365C232.025 240.723 231.907 241.036 231.762 241.305C231.618 241.569 231.434 241.79 231.213 241.969C230.995 242.148 230.733 242.283 230.427 242.372C230.124 242.457 229.768 242.5 229.359 242.5H228.745L228.739 240.844ZM239.864 232.682H241.737V239.822L246.064 232.682H248.122V242.5H246.25V235.354L241.941 242.5H239.864V232.682ZM254.736 242.5V232.682H256.609V236.766H260.859V232.682H262.726V242.5H260.859V238.422H256.609V242.5H254.736ZM264.462 239.726C264.462 239.3 264.511 238.937 264.609 238.639C264.712 238.337 264.85 238.083 265.025 237.879C265.2 237.674 265.406 237.51 265.645 237.386C265.888 237.259 266.148 237.158 266.425 237.086C266.702 237.009 266.994 236.95 267.3 236.907C267.607 236.864 267.916 236.826 268.227 236.792C268.521 236.758 268.786 236.737 269.02 236.728C269.259 236.715 269.469 236.705 269.653 236.696C269.836 236.688 269.994 236.673 270.126 236.651C270.262 236.63 270.373 236.594 270.458 236.543C270.543 236.487 270.605 236.411 270.643 236.312C270.686 236.21 270.707 236.074 270.707 235.903V235.859C270.707 235.501 270.682 235.209 270.631 234.983C270.584 234.753 270.492 234.574 270.356 234.446C270.219 234.314 270.03 234.224 269.787 234.178C269.544 234.126 269.229 234.101 268.841 234.101C268.44 234.101 268.108 234.139 267.844 234.216C267.584 234.293 267.371 234.395 267.205 234.523C267.038 234.651 266.906 234.798 266.808 234.964C266.715 235.126 266.631 235.294 266.559 235.469L264.763 235.06C264.925 234.612 265.127 234.231 265.37 233.915C265.617 233.596 265.907 233.336 266.239 233.136C266.576 232.935 266.957 232.788 267.384 232.695C267.814 232.601 268.291 232.554 268.815 232.554C269.131 232.554 269.442 232.565 269.749 232.586C270.06 232.607 270.356 232.658 270.637 232.739C270.918 232.816 271.18 232.929 271.423 233.078C271.666 233.227 271.877 233.43 272.056 233.685C272.235 233.937 272.374 234.25 272.472 234.625C272.574 235 272.625 235.452 272.625 235.98V242.5H270.759V241.158H270.682C270.592 241.341 270.482 241.526 270.349 241.714C270.217 241.897 270.041 242.063 269.819 242.212C269.602 242.362 269.329 242.483 269.001 242.577C268.673 242.67 268.266 242.717 267.78 242.717C267.234 242.717 266.755 242.67 266.342 242.577C265.928 242.483 265.581 242.321 265.3 242.091C265.023 241.861 264.814 241.554 264.673 241.17C264.533 240.787 264.462 240.305 264.462 239.726ZM268.195 241.183C268.673 241.183 269.071 241.136 269.391 241.043C269.715 240.949 269.974 240.81 270.17 240.627C270.367 240.44 270.505 240.207 270.586 239.93C270.671 239.653 270.714 239.33 270.714 238.959V237.693C270.667 237.74 270.59 237.783 270.484 237.821C270.381 237.859 270.258 237.898 270.113 237.936C269.972 237.97 269.821 238.002 269.659 238.032C269.497 238.058 269.335 238.083 269.173 238.109C269.016 238.13 268.864 238.151 268.719 238.173C268.575 238.19 268.451 238.205 268.349 238.217C268.072 238.256 267.81 238.294 267.563 238.332C267.32 238.371 267.107 238.439 266.923 238.537C266.744 238.635 266.602 238.778 266.495 238.965C266.389 239.153 266.335 239.415 266.335 239.751C266.335 240.067 266.365 240.32 266.425 240.512C266.489 240.7 266.593 240.844 266.738 240.947C266.883 241.045 267.075 241.109 267.313 241.138C267.552 241.168 267.846 241.183 268.195 241.183ZM274.811 232.682H276.684V240.844H280.078V232.682H281.951V240.844H285.345V232.682H287.218V242.5H274.811V232.682ZM289.41 232.682H291.283V239.822L295.61 232.682H297.668V242.5H295.795V235.354L291.487 242.5H289.41V232.682ZM302.281 232.682L305.388 240.135L308.558 232.682H310.936V242.5H309.076V235.386L306.097 242.5H304.678L301.751 235.36V242.5H299.878V232.682H302.281ZM98.2848 269.5V259.682H100.196V263.798H101.116L104.357 259.682H106.722L102.919 264.457L106.767 269.5H104.396L101.436 265.575H100.196V269.5H98.2848ZM107.112 267.844H107.463C107.817 267.844 108.092 267.789 108.288 267.678C108.484 267.563 108.631 267.363 108.729 267.077C108.827 266.788 108.893 266.398 108.927 265.908C108.961 265.413 108.993 264.787 109.023 264.028L109.196 259.682H116.048V269.5H114.175V261.331H110.966L110.813 264.668C110.787 265.209 110.749 265.705 110.698 266.157C110.651 266.604 110.581 267.007 110.487 267.365C110.397 267.723 110.28 268.036 110.135 268.305C109.99 268.569 109.807 268.79 109.585 268.969C109.368 269.148 109.106 269.283 108.799 269.372C108.497 269.457 108.141 269.5 107.732 269.5H107.118L107.112 267.844ZM118.237 259.682H120.11V266.822L124.437 259.682H126.495V269.5H124.622V262.354L120.314 269.5H118.237V259.682ZM128.264 264.655C128.264 262.984 128.639 261.717 129.389 260.852C130.139 259.987 131.277 259.554 132.802 259.554C133.437 259.554 134.021 259.631 134.554 259.784C135.086 259.933 135.544 260.195 135.928 260.57C136.311 260.945 136.61 261.45 136.823 262.085C137.04 262.72 137.149 263.521 137.149 264.489V265.166H130.169C130.181 265.686 130.241 266.134 130.348 266.509C130.458 266.879 130.625 267.184 130.846 267.423C131.072 267.661 131.358 267.838 131.703 267.953C132.048 268.064 132.465 268.119 132.956 268.119C133.309 268.119 133.61 268.089 133.857 268.03C134.104 267.97 134.313 267.883 134.483 267.768C134.658 267.648 134.803 267.501 134.918 267.327C135.033 267.152 135.133 266.95 135.218 266.719L137.027 267.045C136.921 267.446 136.761 267.81 136.548 268.138C136.339 268.462 136.068 268.741 135.736 268.976C135.408 269.206 135.012 269.383 134.547 269.506C134.087 269.634 133.55 269.698 132.936 269.698C132.131 269.698 131.434 269.587 130.846 269.366C130.262 269.144 129.779 268.82 129.395 268.394C129.012 267.964 128.726 267.435 128.539 266.809C128.355 266.183 128.264 265.464 128.264 264.655ZM130.175 263.734H135.276C135.276 263.278 135.231 262.886 135.142 262.558C135.056 262.23 134.916 261.962 134.72 261.753C134.524 261.54 134.27 261.384 133.959 261.286C133.648 261.184 133.267 261.133 132.815 261.133C132.346 261.133 131.948 261.188 131.62 261.299C131.296 261.41 131.029 261.574 130.821 261.791C130.612 262.009 130.456 262.279 130.354 262.603C130.256 262.927 130.196 263.304 130.175 263.734ZM138.909 269.5V259.682H140.782V263.766H145.033V259.682H146.899V269.5H145.033V265.422H140.782V269.5H138.909ZM148.546 261.331V259.682H156.831V261.331H153.628V269.5H151.762V261.331H148.546ZM158.032 266.726C158.032 266.3 158.081 265.937 158.179 265.639C158.281 265.337 158.42 265.083 158.594 264.879C158.769 264.674 158.976 264.51 159.214 264.386C159.457 264.259 159.717 264.158 159.994 264.086C160.271 264.009 160.563 263.95 160.87 263.907C161.177 263.864 161.486 263.826 161.797 263.792C162.091 263.758 162.355 263.737 162.589 263.728C162.828 263.715 163.039 263.705 163.222 263.696C163.405 263.688 163.563 263.673 163.695 263.651C163.831 263.63 163.942 263.594 164.028 263.543C164.113 263.487 164.175 263.411 164.213 263.312C164.255 263.21 164.277 263.074 164.277 262.903V262.859C164.277 262.501 164.251 262.209 164.2 261.983C164.153 261.753 164.062 261.574 163.925 261.446C163.789 261.314 163.599 261.224 163.356 261.178C163.113 261.126 162.798 261.101 162.41 261.101C162.01 261.101 161.677 261.139 161.413 261.216C161.153 261.293 160.94 261.395 160.774 261.523C160.608 261.651 160.476 261.798 160.378 261.964C160.284 262.126 160.201 262.294 160.128 262.469L158.332 262.06C158.494 261.612 158.697 261.231 158.939 260.915C159.187 260.596 159.476 260.336 159.809 260.136C160.145 259.935 160.527 259.788 160.953 259.695C161.383 259.601 161.861 259.554 162.385 259.554C162.7 259.554 163.011 259.565 163.318 259.586C163.629 259.607 163.925 259.658 164.206 259.739C164.488 259.816 164.75 259.929 164.993 260.078C165.236 260.227 165.447 260.43 165.626 260.685C165.804 260.937 165.943 261.25 166.041 261.625C166.143 262 166.194 262.452 166.194 262.98V269.5H164.328V268.158H164.251C164.162 268.341 164.051 268.526 163.919 268.714C163.787 268.897 163.61 269.063 163.388 269.212C163.171 269.362 162.898 269.483 162.57 269.577C162.242 269.67 161.835 269.717 161.349 269.717C160.804 269.717 160.324 269.67 159.911 269.577C159.498 269.483 159.15 269.321 158.869 269.091C158.592 268.861 158.383 268.554 158.243 268.17C158.102 267.787 158.032 267.305 158.032 266.726ZM161.765 268.183C162.242 268.183 162.64 268.136 162.96 268.043C163.284 267.949 163.544 267.81 163.74 267.627C163.936 267.44 164.074 267.207 164.155 266.93C164.241 266.653 164.283 266.33 164.283 265.959V264.693C164.236 264.74 164.16 264.783 164.053 264.821C163.951 264.859 163.827 264.898 163.682 264.936C163.542 264.97 163.39 265.002 163.228 265.032C163.067 265.058 162.905 265.083 162.743 265.109C162.585 265.13 162.434 265.151 162.289 265.173C162.144 265.19 162.02 265.205 161.918 265.217C161.641 265.256 161.379 265.294 161.132 265.332C160.889 265.371 160.676 265.439 160.493 265.537C160.314 265.635 160.171 265.778 160.064 265.965C159.958 266.153 159.905 266.415 159.905 266.751C159.905 267.067 159.934 267.32 159.994 267.512C160.058 267.7 160.162 267.844 160.307 267.947C160.452 268.045 160.644 268.109 160.883 268.138C161.121 268.168 161.415 268.183 161.765 268.183ZM170.783 259.682L173.89 267.135L177.06 259.682H179.438V269.5H177.578V262.386L174.599 269.5H173.18L170.253 262.36V269.5H168.38V259.682H170.783ZM187.301 259.682L189.788 267.301H189.89L192.376 259.682L194.441 259.701L190.382 270.81C190.101 271.573 189.702 272.155 189.187 272.555C188.675 272.956 188.026 273.156 187.237 273.156C186.948 273.156 186.685 273.135 186.451 273.092C186.221 273.05 186.048 273.001 185.933 272.945L186.394 271.379C186.696 271.464 186.965 271.507 187.199 271.507C187.352 271.507 187.495 271.486 187.627 271.443C187.764 271.401 187.889 271.33 188.004 271.232C188.119 271.138 188.226 271.013 188.324 270.855C188.426 270.702 188.522 270.51 188.612 270.28L188.848 269.628L185.256 259.682H187.301ZM195.882 259.682H199.954C200.589 259.682 201.132 259.729 201.584 259.822C202.04 259.912 202.413 260.061 202.702 260.27C202.996 260.474 203.212 260.745 203.348 261.082C203.489 261.414 203.559 261.821 203.559 262.303C203.559 262.669 203.51 262.978 203.412 263.229C203.318 263.481 203.184 263.69 203.009 263.856C202.834 264.022 202.624 264.152 202.376 264.246C202.129 264.339 201.854 264.416 201.552 264.476C201.88 264.514 202.191 264.576 202.485 264.661C202.779 264.746 203.037 264.879 203.258 265.058C203.48 265.232 203.655 265.464 203.783 265.754C203.915 266.044 203.981 266.411 203.981 266.854C203.981 267.322 203.919 267.725 203.795 268.062C203.672 268.394 203.474 268.667 203.201 268.88C202.932 269.093 202.581 269.251 202.146 269.353C201.716 269.451 201.192 269.5 200.574 269.5H195.882V259.682ZM197.678 265.173V267.902H200.574C200.889 267.902 201.145 267.889 201.341 267.864C201.541 267.834 201.697 267.774 201.807 267.685C201.918 267.595 201.993 267.467 202.031 267.301C202.07 267.135 202.089 266.915 202.089 266.643C202.089 266.336 202.07 266.087 202.031 265.895C201.993 265.703 201.918 265.554 201.807 265.447C201.697 265.341 201.541 265.268 201.341 265.23C201.145 265.192 200.889 265.173 200.574 265.173H197.678ZM197.678 261.299V263.773H199.973C200.318 263.773 200.602 263.76 200.823 263.734C201.049 263.705 201.226 263.645 201.354 263.555C201.486 263.466 201.575 263.338 201.622 263.172C201.673 263.006 201.699 262.784 201.699 262.507C201.699 262.239 201.673 262.026 201.622 261.868C201.575 261.706 201.486 261.585 201.354 261.504C201.222 261.418 201.043 261.363 200.817 261.337C200.595 261.312 200.307 261.299 199.954 261.299H197.678ZM205.276 264.655C205.276 262.984 205.651 261.717 206.401 260.852C207.151 259.987 208.289 259.554 209.815 259.554C210.45 259.554 211.033 259.631 211.566 259.784C212.099 259.933 212.557 260.195 212.94 260.57C213.324 260.945 213.622 261.45 213.835 262.085C214.053 262.72 214.161 263.521 214.161 264.489V265.166H207.181C207.194 265.686 207.254 266.134 207.36 266.509C207.471 266.879 207.637 267.184 207.859 267.423C208.085 267.661 208.37 267.838 208.715 267.953C209.06 268.064 209.478 268.119 209.968 268.119C210.322 268.119 210.622 268.089 210.869 268.03C211.117 267.97 211.325 267.883 211.496 267.768C211.671 267.648 211.815 267.501 211.93 267.327C212.046 267.152 212.146 266.95 212.231 266.719L214.04 267.045C213.933 267.446 213.773 267.81 213.56 268.138C213.352 268.462 213.081 268.741 212.749 268.976C212.421 269.206 212.024 269.383 211.56 269.506C211.099 269.634 210.563 269.698 209.949 269.698C209.144 269.698 208.447 269.587 207.859 269.366C207.275 269.144 206.791 268.82 206.408 268.394C206.024 267.964 205.739 267.435 205.551 266.809C205.368 266.183 205.276 265.464 205.276 264.655ZM207.188 263.734H212.288C212.288 263.278 212.244 262.886 212.154 262.558C212.069 262.23 211.928 261.962 211.732 261.753C211.536 261.54 211.283 261.384 210.972 261.286C210.661 261.184 210.279 261.133 209.827 261.133C209.359 261.133 208.96 261.188 208.632 261.299C208.308 261.41 208.042 261.574 207.833 261.791C207.624 262.009 207.469 262.279 207.367 262.603C207.269 262.927 207.209 263.304 207.188 263.734ZM215.142 267.844H215.494C215.847 267.844 216.122 267.789 216.318 267.678C216.514 267.563 216.661 267.363 216.759 267.077C216.857 266.788 216.923 266.398 216.957 265.908C216.991 265.413 217.023 264.787 217.053 264.028L217.226 259.682H224.078V269.5H222.205V261.331H218.996L218.843 264.668C218.817 265.209 218.779 265.705 218.728 266.157C218.681 266.604 218.611 267.007 218.517 267.365C218.428 267.723 218.31 268.036 218.165 268.305C218.021 268.569 217.837 268.79 217.616 268.969C217.398 269.148 217.136 269.283 216.83 269.372C216.527 269.457 216.171 269.5 215.762 269.5H215.148L215.142 267.844ZM226.267 259.682H228.14V266.822L232.467 259.682H234.525V269.5H232.653V262.354L228.344 269.5H226.267V259.682ZM236.735 259.663H238.595V262.871C238.595 263.298 238.629 263.641 238.697 263.901C238.766 264.161 238.881 264.361 239.043 264.501C239.205 264.642 239.42 264.736 239.688 264.783C239.961 264.825 240.3 264.847 240.705 264.847C241.08 264.847 241.433 264.823 241.766 264.776C242.098 264.725 242.426 264.657 242.75 264.572V259.682H244.616V269.5H242.75V266.234C242.435 266.315 242.109 266.379 241.772 266.425C241.435 266.472 241.08 266.496 240.705 266.496C240.018 266.496 239.424 266.438 238.921 266.323C238.423 266.204 238.011 266.006 237.687 265.729C237.364 265.447 237.123 265.075 236.965 264.61C236.812 264.146 236.735 263.566 236.735 262.871V259.663ZM246.799 259.682H248.672V266.822L252.999 259.682H255.057V269.5H253.185V262.354L248.876 269.5H246.799V259.682ZM256.717 261.331V259.682H265.001V261.331H261.799V269.5H259.932V261.331H256.717ZM268.536 259.682V263.057H270.952C271.634 263.057 272.211 263.121 272.684 263.249C273.161 263.376 273.549 263.572 273.848 263.837C274.146 264.097 274.361 264.429 274.493 264.834C274.629 265.234 274.698 265.71 274.698 266.259C274.698 266.8 274.629 267.273 274.493 267.678C274.361 268.083 274.146 268.422 273.848 268.695C273.549 268.963 273.161 269.165 272.684 269.302C272.211 269.434 271.634 269.5 270.952 269.5H266.663V259.682H268.536ZM268.536 267.851H270.952C271.306 267.851 271.602 267.827 271.84 267.781C272.083 267.734 272.277 267.653 272.422 267.538C272.571 267.423 272.678 267.267 272.742 267.071C272.806 266.871 272.838 266.619 272.838 266.317C272.838 266.001 272.806 265.739 272.742 265.531C272.678 265.322 272.571 265.158 272.422 265.038C272.277 264.915 272.083 264.83 271.84 264.783C271.602 264.732 271.306 264.706 270.952 264.706H268.536V267.851ZM98.2848 296.5V286.682H106.294V296.5H104.421V288.331H100.145V296.5H98.2848ZM108.489 300.182V286.682H110.356V288.273H110.516C110.571 288.171 110.628 288.058 110.688 287.935C110.752 287.811 110.829 287.685 110.918 287.558C111.012 287.43 111.123 287.306 111.251 287.187C111.378 287.067 111.536 286.961 111.724 286.867C111.915 286.773 112.141 286.699 112.401 286.643C112.665 286.584 112.976 286.554 113.334 286.554C114.008 286.554 114.6 286.669 115.111 286.899C115.627 287.125 116.057 287.455 116.403 287.89C116.752 288.32 117.014 288.849 117.189 289.475C117.368 290.102 117.457 290.813 117.457 291.61C117.457 292.403 117.37 293.114 117.195 293.745C117.021 294.371 116.761 294.904 116.415 295.343C116.07 295.778 115.642 296.112 115.131 296.347C114.619 296.577 114.027 296.692 113.354 296.692C113.004 296.692 112.697 296.664 112.433 296.609C112.173 296.553 111.947 296.479 111.756 296.385C111.564 296.291 111.402 296.185 111.27 296.065C111.142 295.946 111.031 295.822 110.937 295.695C110.844 295.567 110.763 295.441 110.695 295.317C110.631 295.19 110.571 295.075 110.516 294.972H110.4V300.182H108.489ZM110.516 291.591C110.516 292.187 110.547 292.705 110.611 293.144C110.68 293.579 110.803 293.939 110.982 294.224C111.161 294.506 111.406 294.717 111.717 294.857C112.033 294.994 112.435 295.062 112.925 295.062C113.432 295.062 113.852 294.989 114.185 294.844C114.521 294.695 114.788 294.476 114.984 294.186C115.184 293.892 115.324 293.53 115.405 293.099C115.486 292.665 115.527 292.162 115.527 291.591C115.527 291.024 115.486 290.528 115.405 290.102C115.329 289.675 115.192 289.32 114.996 289.034C114.8 288.749 114.534 288.536 114.197 288.395C113.861 288.25 113.437 288.178 112.925 288.178C112.427 288.178 112.02 288.246 111.704 288.382C111.393 288.514 111.148 288.719 110.969 288.996C110.795 289.273 110.675 289.626 110.611 290.057C110.547 290.487 110.516 290.999 110.516 291.591ZM118.798 291.636C118.798 289.948 119.175 288.68 119.929 287.832C120.683 286.98 121.832 286.554 123.374 286.554C124.917 286.554 126.065 286.98 126.82 287.832C127.574 288.68 127.951 289.948 127.951 291.636C127.951 293.315 127.574 294.578 126.82 295.426C126.065 296.274 124.917 296.698 123.374 296.698C121.832 296.698 120.683 296.274 119.929 295.426C119.175 294.578 118.798 293.315 118.798 291.636ZM120.728 291.629C120.728 292.179 120.766 292.669 120.843 293.099C120.92 293.53 121.056 293.894 121.252 294.192C121.452 294.487 121.723 294.71 122.064 294.864C122.409 295.017 122.848 295.094 123.381 295.094C123.909 295.094 124.344 295.017 124.685 294.864C125.026 294.71 125.294 294.487 125.49 294.192C125.69 293.894 125.829 293.53 125.906 293.099C125.982 292.669 126.021 292.179 126.021 291.629C126.021 291.08 125.982 290.589 125.906 290.159C125.829 289.729 125.69 289.364 125.49 289.066C125.294 288.768 125.026 288.542 124.685 288.388C124.344 288.231 123.909 288.152 123.381 288.152C122.848 288.152 122.409 288.231 122.064 288.388C121.723 288.542 121.452 288.768 121.252 289.066C121.056 289.364 120.92 289.729 120.843 290.159C120.766 290.589 120.728 291.08 120.728 291.629ZM128.766 299.332V294.844H129.565C129.769 294.661 129.942 294.44 130.082 294.18C130.227 293.92 130.349 293.609 130.447 293.246C130.549 292.884 130.634 292.464 130.702 291.987C130.77 291.51 130.83 290.962 130.881 290.344L131.188 286.682H137.861V294.844H139.37V299.332H137.503V296.5H130.658V299.332H128.766ZM131.61 294.844H135.995V288.318H132.901L132.697 290.344C132.65 290.86 132.596 291.342 132.537 291.789C132.481 292.237 132.411 292.65 132.326 293.029C132.245 293.404 132.145 293.743 132.025 294.045C131.91 294.348 131.772 294.614 131.61 294.844ZM140.418 293.726C140.418 293.3 140.467 292.937 140.565 292.639C140.667 292.337 140.806 292.083 140.98 291.879C141.155 291.674 141.362 291.51 141.6 291.386C141.843 291.259 142.103 291.158 142.38 291.086C142.657 291.009 142.949 290.95 143.256 290.907C143.563 290.864 143.872 290.826 144.183 290.792C144.477 290.758 144.741 290.737 144.975 290.728C145.214 290.715 145.425 290.705 145.608 290.696C145.791 290.688 145.949 290.673 146.081 290.651C146.217 290.63 146.328 290.594 146.414 290.543C146.499 290.487 146.561 290.411 146.599 290.312C146.642 290.21 146.663 290.074 146.663 289.903V289.859C146.663 289.501 146.637 289.209 146.586 288.983C146.539 288.753 146.448 288.574 146.311 288.446C146.175 288.314 145.985 288.224 145.742 288.178C145.499 288.126 145.184 288.101 144.796 288.101C144.396 288.101 144.063 288.139 143.799 288.216C143.539 288.293 143.326 288.395 143.16 288.523C142.994 288.651 142.862 288.798 142.764 288.964C142.67 289.126 142.587 289.294 142.514 289.469L140.718 289.06C140.88 288.612 141.083 288.231 141.325 287.915C141.573 287.596 141.862 287.336 142.195 287.136C142.531 286.935 142.913 286.788 143.339 286.695C143.769 286.601 144.247 286.554 144.771 286.554C145.086 286.554 145.397 286.565 145.704 286.586C146.015 286.607 146.311 286.658 146.592 286.739C146.874 286.816 147.136 286.929 147.379 287.078C147.622 287.227 147.833 287.43 148.012 287.685C148.191 287.937 148.329 288.25 148.427 288.625C148.529 289 148.58 289.452 148.58 289.98V296.5H146.714V295.158H146.637C146.548 295.341 146.437 295.526 146.305 295.714C146.173 295.897 145.996 296.063 145.774 296.212C145.557 296.362 145.284 296.483 144.956 296.577C144.628 296.67 144.221 296.717 143.735 296.717C143.19 296.717 142.71 296.67 142.297 296.577C141.884 296.483 141.536 296.321 141.255 296.091C140.978 295.861 140.769 295.554 140.629 295.17C140.488 294.787 140.418 294.305 140.418 293.726ZM144.151 295.183C144.628 295.183 145.026 295.136 145.346 295.043C145.67 294.949 145.93 294.81 146.126 294.627C146.322 294.44 146.46 294.207 146.541 293.93C146.627 293.653 146.669 293.33 146.669 292.959V291.693C146.622 291.74 146.546 291.783 146.439 291.821C146.337 291.859 146.213 291.898 146.068 291.936C145.928 291.97 145.776 292.002 145.615 292.032C145.453 292.058 145.291 292.083 145.129 292.109C144.971 292.13 144.82 292.151 144.675 292.173C144.53 292.19 144.406 292.205 144.304 292.217C144.027 292.256 143.765 292.294 143.518 292.332C143.275 292.371 143.062 292.439 142.879 292.537C142.7 292.635 142.557 292.778 142.45 292.965C142.344 293.153 142.291 293.415 142.291 293.751C142.291 294.067 142.32 294.32 142.38 294.512C142.444 294.7 142.548 294.844 142.693 294.947C142.838 295.045 143.03 295.109 143.269 295.138C143.507 295.168 143.801 295.183 144.151 295.183ZM153.943 291.476L150.184 286.682H152.409L155.445 290.76H156.129V286.682H158.04V290.76H158.705L161.741 286.682H163.966L160.226 291.476L164.01 296.5H161.741L158.679 292.409H158.04V296.5H156.129V292.409H155.49L152.409 296.5H150.14L153.943 291.476ZM165.594 286.682H167.466V293.822L171.794 286.682H173.852V296.5H171.979V289.354L167.671 296.5H165.594V286.682ZM180.465 296.5V286.682H182.338V290.766H186.589V286.682H188.455V296.5H186.589V292.422H182.338V296.5H180.465ZM190.192 293.726C190.192 293.3 190.241 292.937 190.339 292.639C190.441 292.337 190.58 292.083 190.754 291.879C190.929 291.674 191.136 291.51 191.375 291.386C191.617 291.259 191.877 291.158 192.154 291.086C192.431 291.009 192.723 290.95 193.03 290.907C193.337 290.864 193.646 290.826 193.957 290.792C194.251 290.758 194.515 290.737 194.75 290.728C194.988 290.715 195.199 290.705 195.382 290.696C195.566 290.688 195.723 290.673 195.855 290.651C195.992 290.63 196.103 290.594 196.188 290.543C196.273 290.487 196.335 290.411 196.373 290.312C196.416 290.21 196.437 290.074 196.437 289.903V289.859C196.437 289.501 196.411 289.209 196.36 288.983C196.313 288.753 196.222 288.574 196.085 288.446C195.949 288.314 195.759 288.224 195.517 288.178C195.274 288.126 194.958 288.101 194.571 288.101C194.17 288.101 193.838 288.139 193.573 288.216C193.313 288.293 193.1 288.395 192.934 288.523C192.768 288.651 192.636 288.798 192.538 288.964C192.444 289.126 192.361 289.294 192.289 289.469L190.492 289.06C190.654 288.612 190.857 288.231 191.1 287.915C191.347 287.596 191.637 287.336 191.969 287.136C192.306 286.935 192.687 286.788 193.113 286.695C193.544 286.601 194.021 286.554 194.545 286.554C194.86 286.554 195.171 286.565 195.478 286.586C195.789 286.607 196.085 286.658 196.367 286.739C196.648 286.816 196.91 286.929 197.153 287.078C197.396 287.227 197.607 287.43 197.786 287.685C197.965 287.937 198.103 288.25 198.201 288.625C198.304 289 198.355 289.452 198.355 289.98V296.5H196.488V295.158H196.411C196.322 295.341 196.211 295.526 196.079 295.714C195.947 295.897 195.77 296.063 195.549 296.212C195.331 296.362 195.058 296.483 194.73 296.577C194.402 296.67 193.995 296.717 193.509 296.717C192.964 296.717 192.485 296.67 192.071 296.577C191.658 296.483 191.311 296.321 191.029 296.091C190.752 295.861 190.544 295.554 190.403 295.17C190.262 294.787 190.192 294.305 190.192 293.726ZM193.925 295.183C194.402 295.183 194.801 295.136 195.12 295.043C195.444 294.949 195.704 294.81 195.9 294.627C196.096 294.44 196.235 294.207 196.316 293.93C196.401 293.653 196.443 293.33 196.443 292.959V291.693C196.397 291.74 196.32 291.783 196.213 291.821C196.111 291.859 195.987 291.898 195.843 291.936C195.702 291.97 195.551 292.002 195.389 292.032C195.227 292.058 195.065 292.083 194.903 292.109C194.745 292.13 194.594 292.151 194.449 292.173C194.304 292.19 194.181 292.205 194.078 292.217C193.801 292.256 193.539 292.294 193.292 292.332C193.049 292.371 192.836 292.439 192.653 292.537C192.474 292.635 192.331 292.778 192.225 292.965C192.118 293.153 192.065 293.415 192.065 293.751C192.065 294.067 192.095 294.32 192.154 294.512C192.218 294.7 192.323 294.844 192.468 294.947C192.612 295.045 192.804 295.109 193.043 295.138C193.281 295.168 193.576 295.183 193.925 295.183ZM209.885 296.5H207.903V285.391L204.695 287.244V285.448L208.223 283.409H209.885V296.5ZM212.83 293.01C212.825 292.516 212.889 292.079 213.021 291.7C213.158 291.32 213.343 290.994 213.578 290.722C213.816 290.449 214.097 290.229 214.421 290.063C214.745 289.893 215.092 289.776 215.463 289.712V289.635C215.139 289.558 214.843 289.445 214.575 289.296C214.311 289.143 214.085 288.949 213.897 288.714C213.71 288.476 213.565 288.192 213.462 287.864C213.36 287.532 213.311 287.151 213.315 286.72C213.311 285.561 213.663 284.69 214.37 284.106C215.078 283.522 216.117 283.23 217.489 283.23C218.849 283.23 219.882 283.522 220.59 284.106C221.301 284.69 221.659 285.561 221.663 286.72C221.659 287.151 221.604 287.532 221.497 287.864C221.395 288.192 221.25 288.476 221.063 288.714C220.875 288.949 220.649 289.143 220.385 289.296C220.125 289.445 219.835 289.558 219.516 289.635V289.712C219.882 289.776 220.225 289.893 220.545 290.063C220.864 290.229 221.141 290.449 221.376 290.722C221.614 290.994 221.802 291.32 221.938 291.7C222.075 292.079 222.145 292.516 222.149 293.01C222.141 294.237 221.744 295.156 220.96 295.765C220.176 296.374 219.019 296.679 217.489 296.679C215.955 296.679 214.794 296.372 214.006 295.759C213.217 295.145 212.825 294.229 212.83 293.01ZM217.489 295.062C217.975 295.062 218.384 295.026 218.717 294.953C219.053 294.876 219.326 294.753 219.535 294.582C219.748 294.412 219.901 294.188 219.995 293.911C220.093 293.634 220.144 293.291 220.149 292.882C220.144 292.46 220.089 292.102 219.982 291.808C219.88 291.514 219.72 291.273 219.503 291.086C219.286 290.898 219.011 290.762 218.678 290.677C218.346 290.592 217.95 290.549 217.489 290.549C217.025 290.549 216.624 290.592 216.288 290.677C215.951 290.762 215.674 290.898 215.457 291.086C215.239 291.273 215.08 291.514 214.977 291.808C214.875 292.102 214.826 292.46 214.83 292.882C214.826 293.291 214.871 293.634 214.965 293.911C215.058 294.188 215.21 294.412 215.418 294.582C215.632 294.753 215.906 294.876 216.243 294.953C216.584 295.026 216.999 295.062 217.489 295.062ZM217.489 288.97C217.894 288.97 218.239 288.921 218.525 288.823C218.811 288.721 219.043 288.578 219.222 288.395C219.401 288.212 219.531 287.992 219.612 287.737C219.693 287.481 219.735 287.197 219.739 286.886C219.735 286.58 219.693 286.3 219.612 286.049C219.535 285.798 219.407 285.585 219.228 285.41C219.049 285.231 218.817 285.092 218.531 284.994C218.25 284.896 217.903 284.847 217.489 284.847C217.072 284.847 216.718 284.896 216.428 284.994C216.143 285.092 215.911 285.231 215.732 285.41C215.553 285.585 215.425 285.798 215.348 286.049C215.271 286.3 215.235 286.58 215.239 286.886C215.235 287.197 215.274 287.481 215.355 287.737C215.436 287.992 215.565 288.212 215.744 288.395C215.923 288.578 216.156 288.721 216.441 288.823C216.731 288.921 217.08 288.97 217.489 288.97ZM223.887 287.653C223.887 286.946 223.979 286.315 224.162 285.761C224.35 285.207 224.631 284.741 225.006 284.362C225.385 283.982 225.858 283.692 226.425 283.492C226.996 283.292 227.665 283.194 228.432 283.198C228.875 283.198 229.299 283.237 229.704 283.313C230.113 283.386 230.495 283.513 230.848 283.697C231.202 283.876 231.524 284.119 231.814 284.425C232.103 284.728 232.351 285.112 232.555 285.576C232.764 286.04 232.926 286.594 233.041 287.238C233.156 287.877 233.213 288.625 233.213 289.482C233.213 290.709 233.113 291.774 232.913 292.678C232.713 293.577 232.408 294.325 231.999 294.921C231.59 295.513 231.074 295.955 230.452 296.244C229.834 296.534 229.106 296.679 228.266 296.679C227.601 296.679 227.017 296.592 226.515 296.417C226.016 296.238 225.592 295.989 225.243 295.669C224.897 295.349 224.623 294.968 224.418 294.525C224.213 294.082 224.075 293.596 224.003 293.067H225.952C226.016 293.349 226.099 293.604 226.201 293.835C226.304 294.065 226.442 294.263 226.617 294.429C226.792 294.595 227.011 294.725 227.275 294.819C227.544 294.908 227.874 294.953 228.266 294.953C228.824 294.953 229.297 294.862 229.685 294.678C230.073 294.491 230.388 294.203 230.631 293.815C230.874 293.428 231.049 292.933 231.155 292.332C231.266 291.732 231.321 291.016 231.321 290.185H231.219C231.053 290.457 230.87 290.705 230.669 290.926C230.469 291.143 230.239 291.329 229.979 291.482C229.723 291.636 229.432 291.755 229.103 291.84C228.775 291.921 228.398 291.962 227.972 291.962C227.324 291.962 226.747 291.87 226.24 291.687C225.733 291.504 225.304 291.231 224.955 290.869C224.61 290.506 224.346 290.057 224.162 289.52C223.979 288.983 223.887 288.361 223.887 287.653ZM225.805 287.628C225.805 288.088 225.854 288.489 225.952 288.83C226.054 289.17 226.21 289.454 226.419 289.68C226.632 289.906 226.9 290.074 227.224 290.185C227.552 290.295 227.944 290.351 228.4 290.351C229.308 290.351 229.979 290.116 230.414 289.648C230.853 289.179 231.072 288.499 231.072 287.609C231.072 287.161 231.021 286.767 230.919 286.426C230.816 286.085 230.657 285.8 230.439 285.57C230.226 285.335 229.954 285.158 229.621 285.039C229.293 284.92 228.899 284.86 228.439 284.86C227.527 284.86 226.86 285.088 226.438 285.544C226.016 286 225.805 286.695 225.805 287.628ZM241.996 293.355C241.996 292.984 242.055 292.635 242.175 292.307C242.294 291.979 242.467 291.691 242.692 291.444C242.918 291.192 243.195 290.994 243.523 290.849C243.856 290.705 244.235 290.632 244.661 290.632C245.096 290.632 245.477 290.705 245.805 290.849C246.138 290.994 246.415 291.19 246.636 291.438C246.862 291.685 247.03 291.974 247.141 292.307C247.256 292.635 247.314 292.984 247.314 293.355V294.045C247.314 294.416 247.256 294.766 247.141 295.094C247.026 295.422 246.856 295.712 246.63 295.963C246.404 296.21 246.127 296.406 245.799 296.551C245.471 296.696 245.092 296.768 244.661 296.768C244.227 296.768 243.843 296.696 243.511 296.551C243.182 296.406 242.905 296.21 242.68 295.963C242.458 295.712 242.288 295.422 242.168 295.094C242.053 294.766 241.996 294.416 241.996 294.045V293.355ZM238.077 283.141C238.512 283.141 238.893 283.213 239.222 283.358C239.554 283.503 239.831 283.699 240.053 283.946C240.274 284.193 240.44 284.483 240.551 284.815C240.666 285.143 240.724 285.493 240.724 285.864V286.554C240.724 286.925 240.666 287.276 240.551 287.609C240.436 287.937 240.266 288.224 240.04 288.472C239.818 288.719 239.541 288.915 239.209 289.06C238.881 289.205 238.504 289.277 238.077 289.277C237.643 289.277 237.259 289.205 236.927 289.06C236.599 288.915 236.322 288.719 236.096 288.472C235.87 288.22 235.7 287.93 235.584 287.602C235.469 287.274 235.412 286.925 235.412 286.554V285.864C235.412 285.493 235.472 285.143 235.591 284.815C235.71 284.483 235.883 284.193 236.109 283.946C236.334 283.699 236.611 283.503 236.94 283.358C237.272 283.213 237.651 283.141 238.077 283.141ZM244.949 283.409H246.477L237.477 296.5H235.949L244.949 283.409ZM243.485 294.045C243.485 294.229 243.506 294.408 243.549 294.582C243.592 294.753 243.658 294.906 243.747 295.043C243.841 295.175 243.962 295.283 244.111 295.369C244.261 295.45 244.444 295.49 244.661 295.49C244.874 295.49 245.053 295.45 245.198 295.369C245.347 295.288 245.467 295.181 245.556 295.049C245.65 294.913 245.716 294.757 245.754 294.582C245.797 294.408 245.818 294.229 245.818 294.045V293.355C245.818 293.172 245.799 292.993 245.761 292.818C245.722 292.643 245.658 292.49 245.569 292.358C245.479 292.222 245.36 292.113 245.211 292.032C245.066 291.951 244.883 291.911 244.661 291.911C244.448 291.911 244.267 291.951 244.118 292.032C243.969 292.113 243.847 292.222 243.754 292.358C243.664 292.49 243.596 292.643 243.549 292.818C243.506 292.993 243.485 293.172 243.485 293.355V294.045ZM236.908 285.864V286.554C236.908 286.737 236.927 286.916 236.965 287.091C237.008 287.266 237.074 287.421 237.163 287.558C237.257 287.69 237.379 287.796 237.528 287.877C237.677 287.958 237.86 287.999 238.077 287.999C238.29 287.999 238.469 287.958 238.614 287.877C238.763 287.796 238.883 287.69 238.972 287.558C239.066 287.421 239.132 287.266 239.17 287.091C239.213 286.916 239.234 286.737 239.234 286.554V285.864C239.234 285.68 239.215 285.501 239.177 285.327C239.138 285.152 239.075 284.999 238.985 284.866C238.896 284.73 238.776 284.621 238.627 284.54C238.482 284.46 238.299 284.419 238.077 284.419C237.864 284.419 237.683 284.462 237.534 284.547C237.385 284.628 237.263 284.737 237.17 284.873C237.08 285.005 237.014 285.158 236.972 285.333C236.929 285.504 236.908 285.68 236.908 285.864ZM249.715 295.343C249.715 295.168 249.749 295.004 249.818 294.851C249.886 294.697 249.977 294.563 250.092 294.448C250.207 294.333 250.342 294.241 250.495 294.173C250.653 294.105 250.819 294.071 250.994 294.071C251.168 294.071 251.332 294.105 251.486 294.173C251.644 294.241 251.78 294.333 251.895 294.448C252.01 294.563 252.102 294.697 252.17 294.851C252.238 295.004 252.272 295.168 252.272 295.343C252.272 295.522 252.238 295.69 252.17 295.848C252.102 296.001 252.01 296.136 251.895 296.251C251.78 296.366 251.644 296.455 251.486 296.519C251.332 296.587 251.168 296.621 250.994 296.621C250.819 296.621 250.653 296.587 250.495 296.519C250.342 296.455 250.207 296.366 250.092 296.251C249.977 296.136 249.886 296.001 249.818 295.848C249.749 295.69 249.715 295.522 249.715 295.343Z" fill="#AAADB5"/>
<defs>
<filter id="filter0_i_2765_7290" x="0" y="0" width="421" height="423" filterUnits="userSpaceOnUse" color-interpolation-filters="sRGB">
<feFlood flood-opacity="0" result="BackgroundImageFix"/>
<feBlend mode="normal" in="SourceGraphic" in2="BackgroundImageFix" result="shape"/>
<feColorMatrix in="SourceAlpha" type="matrix" values="0 0 0 0 0 0 0 0 0 0 0 0 0 0 0 0 0 0 127 0" result="hardAlpha"/>
<feOffset dy="2"/>
<feGaussianBlur stdDeviation="1"/>
<feComposite in2="hardAlpha" operator="arithmetic" k2="-1" k3="1"/>
<feColorMatrix type="matrix" values="0 0 0 0 0 0 0 0 0 0 0 0 0 0 0 0 0 0 0.25 0"/>
<feBlend mode="normal" in2="shape" result="effect1_innerShadow_2765_7290"/>
</filter>
</defs>
</svg>
