<svg width="907" height="907" viewBox="0 0 907 907" fill="none" xmlns="http://www.w3.org/2000/svg">
<path fill-rule="evenodd" clip-rule="evenodd" d="M112.375 114.375V225.75H0V227.75H112.375V339.125H0V341.125H112.375V452.5H0V454.5H112.375V565.875H0V567.875H112.375V679.25H0V681.25H112.375V792.625H0V794.625H112.375V907H114.375V794.625H225.75V907H227.75V794.625H339.125V907H341.125V794.625H452.5V907H454.5V794.625H565.875V907H567.875V794.625H679.25V907H681.25V794.625H792.625V907H794.625V794.625H907V792.625H794.625V681.25H907V679.25H794.625V567.875H907V565.875H794.625V454.5H907V452.5H794.625V341.125H907V339.125H794.625V227.75H907V225.75H794.625V114.375H907V112.375H794.625V0H792.625V112.375H681.25V0H679.25V112.375H567.875V0H565.875V112.375H454.5V0H452.5V112.375H341.125V0H339.125V112.375H227.75V0H225.75V112.375H114.375V0H112.375V112.375H0V114.375H112.375ZM792.625 792.625V681.25H681.25V792.625H792.625ZM679.25 792.625V681.25H567.875V792.625H679.25ZM565.875 792.625V681.25H454.5V792.625H565.875ZM452.5 792.625V681.25H341.125V792.625H452.5ZM339.125 792.625V681.25H227.75V792.625H339.125ZM225.75 792.625V681.25H114.375V792.625H225.75ZM225.75 679.25H114.375V567.875H225.75V679.25ZM339.125 679.25H227.75V567.875H339.125V679.25ZM452.5 679.25H341.125V567.875H452.5V679.25ZM565.875 679.25H454.5V567.875H565.875V679.25ZM679.25 679.25H567.875V567.875H679.25V679.25ZM792.625 679.25H681.25V567.875H792.625V679.25ZM792.625 565.875V454.5H681.25V565.875H792.625ZM679.25 565.875V454.5H567.875V565.875H679.25ZM565.875 565.875V454.5H454.5V565.875H565.875ZM452.5 565.875V454.5H341.125V565.875H452.5ZM339.125 565.875V454.5H227.75V565.875H339.125ZM225.75 565.875V454.5H114.375V565.875H225.75ZM225.75 452.5H114.375V341.125H225.75V452.5ZM339.125 452.5H227.75V341.125H339.125V452.5ZM452.5 452.5H341.125V341.125H452.5V452.5ZM565.875 452.5H454.5V341.125H565.875V452.5ZM679.25 452.5H567.875V341.125H679.25V452.5ZM792.625 452.5H681.25V341.125H792.625V452.5ZM792.625 339.125V227.75H681.25V339.125H792.625ZM679.25 339.125V227.75H567.875V339.125H679.25ZM565.875 339.125V227.75H454.5V339.125H565.875ZM452.5 339.125V227.75H341.125V339.125H452.5ZM339.125 339.125V227.75H227.75V339.125H339.125ZM225.75 339.125V227.75H114.375V339.125H225.75ZM225.75 225.75H114.375V114.375H225.75V225.75ZM339.125 225.75H227.75V114.375H339.125V225.75ZM452.5 225.75H341.125V114.375H452.5V225.75ZM565.875 225.75H454.5V114.375H565.875V225.75ZM679.25 225.75H567.875V114.375H679.25V225.75ZM792.625 225.75H681.25V114.375H792.625V225.75Z" fill="url(#paint0_radial_3268_17368)"/>
<defs>
<radialGradient id="paint0_radial_3268_17368" cx="0" cy="0" r="1" gradientUnits="userSpaceOnUse" gradientTransform="translate(453.5 271.5) rotate(90) scale(602)">
<stop stop-color="white" stop-opacity="0.16"/>
<stop offset="1" stop-color="white" stop-opacity="0"/>
</radialGradient>
</defs>
</svg>
