<svg width="18" height="19" viewBox="0 0 18 19" fill="none" xmlns="http://www.w3.org/2000/svg">
<path d="M1.45522 6.83333C1.16041 7.66741 1 8.56497 1 9.5C1 13.9183 4.58172 17.5 9 17.5C13.4183 17.5 17 13.9183 17 9.5C17 8.56497 16.8396 7.66741 16.5448 6.83333M1.45522 6.83333C2.55345 3.72615 5.51675 1.5 9 1.5C12.4833 1.5 15.4466 3.72615 16.5448 6.83333M1.45522 6.83333H16.5448M1.45522 12.1667H16.5448M9.66667 1.52738C9.66667 1.52738 12.3333 4.83333 12.3333 9.5C12.3333 14.1667 9.66667 17.5 9.66667 17.5M8.33333 1.52738C8.33333 1.52738 5.66667 4.83333 5.66667 9.5C5.66667 14.1667 8.33333 17.4726 8.33333 17.4726" stroke="white" stroke-width="1.5"/>
</svg>
