<svg width="24" height="24" viewBox="0 0 24 24" fill="none" xmlns="http://www.w3.org/2000/svg">
<path d="M11.5183 2.26367L6.8369 12.2484L2.42418 16.6611C1.69194 17.3934 1.69194 18.5806 2.42418 19.3128L3.75004 20.6387C4.48227 21.3709 5.66947 21.3709 6.40171 20.6387L10.8144 16.226L20.7992 11.5445" stroke="white" stroke-width="1.5" stroke-miterlimit="10" stroke-linecap="round" stroke-linejoin="round"/>
<path d="M22.1278 12.8699L10.1953 0.9375" stroke="white" stroke-width="1.5" stroke-miterlimit="10" stroke-linecap="round" stroke-linejoin="round"/>
<path d="M20.2148 5.65833L22.1232 4.6875" stroke="white" stroke-width="1.5" stroke-miterlimit="10" stroke-linecap="round" stroke-linejoin="round"/>
<path d="M17.4023 2.84583L18.3732 0.9375" stroke="white" stroke-width="1.5" stroke-miterlimit="10" stroke-linecap="round" stroke-linejoin="round"/>
<path d="M8.16208 18.8769L11.7789 22.4937C12.1196 22.8445 12.5963 23.0625 13.124 23.0625C14.1596 23.0625 14.999 22.223 14.999 21.1875C14.999 20.6598 14.781 20.183 14.4302 19.8424L6.83594 12.248" stroke="white" stroke-width="1.5" stroke-miterlimit="10" stroke-linecap="round" stroke-linejoin="round"/>
</svg>
