<svg width="26" height="26" viewBox="0 0 26 26" fill="none" xmlns="http://www.w3.org/2000/svg">
<path d="M19.3234 17.7542C22.0692 17.7542 24.2952 15.5282 24.2952 12.7824C24.2952 10.0365 22.0692 7.81055 19.3234 7.81055C16.5775 7.81055 14.3516 10.0365 14.3516 12.7824C14.3516 15.5282 16.5775 17.7542 19.3234 17.7542Z" stroke="white" stroke-width="1.5" stroke-miterlimit="10" stroke-linecap="round" stroke-linejoin="round"/>
<path d="M20.9246 12.7832C20.9246 13.6663 20.2087 14.3822 19.3256 14.3822C18.4424 14.3822 17.7266 13.6663 17.7266 12.7832" stroke="white" stroke-width="1.5" stroke-miterlimit="10" stroke-linecap="round" stroke-linejoin="round"/>
<path d="M7.35481 11.0012L2.74821 7.08025C0.565842 5.24458 2.06512 1.77014 4.81792 1.71513C5.83509 1.68753 6.74848 2.12887 7.35481 2.8358C7.96104 2.12897 8.87424 1.68762 9.89127 1.71508C12.648 1.77028 14.1434 5.25006 11.9601 7.08573L7.35481 11.0012Z" stroke="white" stroke-width="1.5" stroke-miterlimit="10" stroke-linecap="round" stroke-linejoin="round"/>
<path d="M4.80441 18.7676H1.71484V24.2829H4.80441V18.7676Z" stroke="white" stroke-width="1.5" stroke-miterlimit="10" stroke-linecap="round" stroke-linejoin="round"/>
<path d="M4.80469 24.2865H10.7017C11.649 24.2865 12.5116 23.7407 12.9172 22.8846L14.1292 20.3261C14.6853 19.1523 13.8312 17.7989 12.5324 17.7957L10.2357 17.7887L10.6625 15.9498C10.8712 15.0504 10.2992 14.1553 9.39536 13.9668H8.88396L7.91351 16.0155C7.62168 16.6315 7.17082 17.1586 6.60737 17.5422L4.80473 18.7696" stroke="white" stroke-width="1.5" stroke-miterlimit="10" stroke-linecap="round" stroke-linejoin="round"/>
</svg>
