<svg width="1920" height="317" viewBox="0 0 1920 317" fill="none" xmlns="http://www.w3.org/2000/svg">
<path fill-rule="evenodd" clip-rule="evenodd" d="M-610.513 -0.228583C-610.455 -0.19645 -610.393 -0.170279 -610.328 -0.150896L-485.595 40.4099H-487.339C-487.859 40.4099 -488.281 40.8326 -488.281 41.354C-488.281 41.8754 -487.859 42.2981 -487.339 42.2981H-479.789L-361.251 80.8445H-370.564C-371.084 80.8445 -371.506 81.2672 -371.506 81.7886C-371.506 82.31 -371.084 82.7327 -370.564 82.7327H-355.444L-242.979 119.304H-259.21C-259.73 119.304 -260.152 119.727 -260.152 120.248C-260.152 120.77 -259.73 121.192 -259.21 121.192H-237.173L-130.142 155.997H-152.965C-153.485 155.997 -153.907 156.419 -153.907 156.941C-153.907 157.462 -153.485 157.885 -152.965 157.885H-124.336L-40.9594 184.997H-56.4166C-56.9368 184.997 -57.3584 185.42 -57.3584 185.941C-57.3584 186.463 -56.9368 186.886 -56.4166 186.886H-35.1527L33.6532 209.26C33.4674 209.433 33.3512 209.679 33.3512 209.953C33.3512 210.474 33.7728 210.897 34.293 210.897H38.6873L135.489 242.375H126.045C125.525 242.375 125.103 242.798 125.103 243.319C125.103 243.841 125.525 244.263 126.045 244.263H141.296L179.6 256.719H134.074C133.553 256.719 133.132 257.142 133.132 257.663C133.132 258.185 133.553 258.608 134.074 258.608H185.407L222.753 270.752H141.998C141.477 270.752 141.056 271.175 141.056 271.696C141.056 272.217 141.477 272.64 141.998 272.64H228.56L257.276 281.978H224.47C223.95 281.978 223.529 282.401 223.529 282.922C223.529 283.444 223.95 283.866 224.47 283.866H263.083L286.045 291.333H229.266C228.746 291.333 228.325 291.756 228.325 292.277C228.325 292.799 228.746 293.222 229.266 293.222H291.852L319.608 302.247H236.461C235.941 302.247 235.519 302.67 235.519 303.191C235.519 303.713 235.941 304.136 236.461 304.136H325.415L342.623 309.731H240.214C239.694 309.731 239.272 310.154 239.272 310.675C239.272 311.197 239.694 311.62 240.214 311.62H348.43L365.318 317.112H312.678C312.157 317.112 311.736 317.534 311.736 318.056C311.736 318.577 312.157 319 312.678 319H371.253C371.267 319 371.281 319 371.296 319H449.763C449.777 319 449.792 319 449.806 319H528.274L528.3 319L528.316 319H606.786C606.799 319 606.811 319 606.824 319H920.725C920.737 319 920.75 319 920.762 319H999.238C999.25 319 999.263 319 999.275 319H1313.18C1313.19 319 1313.2 319 1313.21 319H1391.68C1391.7 319 1391.71 319 1391.73 319H1470.19C1470.21 319 1470.22 319 1470.24 319H1548.7L1548.72 319L1548.75 319H1593.35C1593.87 319 1594.29 318.577 1594.29 318.056C1594.29 317.534 1593.87 317.112 1593.35 317.112H1554.68L1571.57 311.62H1670.4C1670.92 311.62 1671.34 311.197 1671.34 310.675C1671.34 310.154 1670.92 309.731 1670.4 309.731H1577.38L1594.59 304.136H1674.16C1674.68 304.136 1675.1 303.713 1675.1 303.191C1675.1 302.67 1674.68 302.247 1674.16 302.247H1600.39L1628.15 293.222H1678.12C1678.64 293.222 1679.06 292.799 1679.06 292.277C1679.06 291.756 1678.64 291.333 1678.12 291.333H1633.95L1656.92 283.866H1682.81C1683.33 283.866 1683.75 283.444 1683.75 282.922C1683.75 282.401 1683.33 281.978 1682.81 281.978H1662.72L1691.44 272.64H1758.4C1758.92 272.64 1759.34 272.217 1759.34 271.696C1759.34 271.175 1758.92 270.752 1758.4 270.752H1697.25L1734.59 258.608H1766.12C1766.64 258.608 1767.06 258.185 1767.06 257.663C1767.06 257.142 1766.64 256.719 1766.12 256.719H1740.4L1955.15 186.886H1966.3C1966.82 186.886 1967.24 186.463 1967.24 185.941C1967.24 185.42 1966.82 184.997 1966.3 184.997H1960.96L2044.34 157.885H2066.08C2066.6 157.885 2067.03 157.462 2067.03 156.941C2067.03 156.419 2066.6 155.997 2066.08 155.997H2050.14L2157.17 121.192H2173.89C2174.41 121.192 2174.83 120.77 2174.83 120.248C2174.83 119.727 2174.41 119.304 2173.89 119.304H2162.98L2275.44 82.7327H2286.91C2287.43 82.7327 2287.86 82.31 2287.86 81.7886C2287.86 81.2672 2287.43 80.8445 2286.91 80.8445H2281.25L2399.79 42.2981H2405.57C2406.09 42.2981 2406.51 41.8754 2406.51 41.354C2406.51 40.8415 2406.1 40.4245 2405.59 40.4103L2530.32 -0.149985C2530.42 -0.176943 2530.5 -0.217348 2530.58 -0.268913C2530.79 -0.411408 2530.94 -0.635319 2530.98 -0.883712C2530.99 -0.93997 2531 -0.997484 2531 -1.05559V-1.06679C2531 -1.11747 2530.99 -1.16857 2530.99 -1.21966C2530.97 -1.33454 2530.92 -1.44228 2530.87 -1.53885C2530.73 -1.76778 2530.5 -1.934 2530.23 -1.98406C2530.17 -1.99589 2530.1 -2.00128 2530.04 -1.99974H2320.72C2320.7 -2.00008 2320.69 -2.00009 2320.67 -1.99974H2111.46C2111.44 -2.00006 2111.43 -2.00006 2111.42 -1.99974H1902.09C1902.08 -1.99999 1902.07 -1.99999 1902.06 -1.99974H1692.73C1692.72 -1.99986 1692.71 -1.99986 1692.7 -1.99974H1274.01C1274 -1.99992 1273.99 -1.99992 1273.98 -1.99974H1064.65C1064.63 -1.99999 1064.62 -1.99999 1064.61 -1.99974H855.391C855.378 -1.99999 855.366 -1.99999 855.353 -1.99974H646.024C646.014 -1.99992 646.003 -1.99992 645.993 -1.99974H227.299C227.29 -1.99986 227.282 -1.99986 227.274 -1.99974H17.9427C17.9304 -1.99999 17.9182 -1.99999 17.9058 -1.99974H-191.313C-191.327 -2.00006 -191.341 -2.00006 -191.355 -1.99974H-400.674C-400.689 -2.00009 -400.703 -2.00008 -400.718 -1.99974H-610.036C-610.104 -2.00133 -610.171 -1.99553 -610.236 -1.98289C-610.374 -1.95634 -610.502 -1.89944 -610.612 -1.81935C-610.722 -1.73945 -610.815 -1.6353 -610.883 -1.51154C-610.935 -1.41739 -610.971 -1.31342 -610.988 -1.20311C-611.006 -1.09292 -611.003 -0.982864 -610.983 -0.87733C-610.957 -0.738522 -610.9 -0.610503 -610.82 -0.500464C-610.74 -0.390294 -610.636 -0.296647 -610.513 -0.228583ZM-400.867 -0.111512H-604.102L-479.491 40.4099H-292.871L-400.867 -0.111512ZM-395.493 -0.111512L-287.497 40.4099H-100.153L-191.533 -0.111512H-395.493ZM-186.877 -0.111512L-95.4969 40.4099H92.4626L17.6852 -0.111512H-186.877ZM21.6462 -0.111512L96.4237 40.4099H285.152L226.99 -0.111512H21.6462ZM230.291 -0.111512L288.453 40.4099H477.797L436.265 -0.111512H230.291ZM438.965 -0.111512L480.498 40.4099H670.4L645.483 -0.111512H438.965ZM647.696 -0.111512L672.613 40.4099H862.904L854.603 -0.111512H647.696ZM856.526 -0.111512L864.827 40.4099H1055.17L1063.47 -0.111512H856.526ZM1065.4 -0.111512L1057.1 40.4099H1247.39L1272.3 -0.111512H1065.4ZM1274.52 -0.111512L1249.6 40.4099H1439.5L1481.03 -0.111512H1274.52ZM1483.74 -0.111512L1442.2 40.4099H1631.56L1689.71 -0.111512H1483.74ZM1693.01 -0.111512L1634.86 40.4099H1823.58L1898.35 -0.111512H1693.01ZM1902.31 -0.111512L1827.54 40.4099H2015.59L2106.98 -0.111512H1902.31ZM2111.64 -0.111512L2020.24 40.4099H2207.5L2315.49 -0.111512H2111.64ZM2320.87 -0.111512L2212.87 40.4099H2399.49L2524.1 -0.111512H2320.87ZM-473.684 42.2981H-287.838L-185.106 80.8445H-355.146L-473.684 42.2981ZM2207.84 42.2981H2393.68L2275.15 80.8445H2105.11L2207.84 42.2981ZM2015.99 42.2981H2202.47L2099.73 80.8445H1929.05L2015.99 42.2981ZM1824.05 42.2981H2011.33L1924.39 80.8445H1752.92L1824.05 42.2981ZM1632.15 42.2981H1820.09L1748.96 80.8445H1576.84L1632.15 42.2981ZM1440.27 42.2981H1628.85L1573.54 80.8445H1400.76L1440.27 42.2981ZM1248.44 42.2981H1437.57L1398.06 80.8445H1224.74L1248.44 42.2981ZM1056.71 42.2981H1246.23L1222.52 80.8445H1048.81L1056.71 42.2981ZM865.214 42.2981H1054.79L1046.89 80.8445H873.111L865.214 42.2981ZM673.774 42.2981H863.291L871.188 80.8445H697.477L673.774 42.2981ZM482.433 42.2981H671.562L695.264 80.8445H521.942L482.433 42.2981ZM291.163 42.2981H479.733L519.241 80.8445H346.49L291.163 42.2981ZM99.9083 42.2981H287.862L343.189 80.8445H171.041L99.9083 42.2981ZM-91.2388 42.2981H95.9472L167.08 80.8445H-4.31268L-91.2388 42.2981ZM-282.465 42.2981H-95.895L-8.96887 80.8445H-179.733L-282.465 42.2981ZM-180.074 82.7327H-349.34L-236.875 119.304H-82.6054L-180.074 82.7327ZM-174.701 82.7327H-4.71069L77.7618 119.304H-77.2321L-174.701 82.7327ZM-0.0545654 82.7327L82.418 119.304H238.053L170.564 82.7327H-0.0545654ZM174.526 82.7327L242.014 119.304H398.392L345.899 82.7327H174.526ZM349.2 82.7327L401.692 119.304H558.661L521.177 82.7327H349.2ZM523.877 82.7327L561.361 119.304H718.913L696.425 82.7327H523.877ZM698.638 82.7327L721.126 119.304H879.067L871.575 82.7327H698.638ZM873.497 82.7327L880.99 119.304H1039.01L1046.5 82.7327H873.497ZM1048.43 82.7327L1040.93 119.304H1198.87L1221.36 82.7327H1048.43ZM1223.57 82.7327L1201.09 119.304H1358.64L1396.12 82.7327H1223.57ZM1398.82 82.7327L1361.34 119.304H1518.35L1570.83 82.7327H1398.82ZM1574.13 82.7327L1521.65 119.304H1677.99L1745.47 82.7327H1574.13ZM1749.44 82.7327L1681.95 119.304H1837.65L1920.13 82.7327H1749.44ZM1924.79 82.7327L1842.3 119.304H1997.23L2094.7 82.7327H1924.79ZM2100.07 82.7327L2002.61 119.304H2156.88L2269.34 82.7327H2100.07ZM-231.068 121.192H-77.573L15.186 155.997H-124.038L-231.068 121.192ZM1997.57 121.192H2151.07L2044.04 155.997H1904.81L1997.57 121.192ZM1838.04 121.192H1992.2L1899.44 155.997H1759.55L1838.04 121.192ZM1678.46 121.192H1833.39L1754.89 155.997H1614.24L1678.46 121.192ZM1518.94 121.192H1674.5L1610.27 155.997H1468.99L1518.94 121.192ZM1359.4 121.192H1515.64L1465.69 155.997H1323.73L1359.4 121.192ZM1199.93 121.192H1356.7L1321.03 155.997H1178.52L1199.93 121.192ZM1040.55 121.192H1197.71L1176.31 155.997H1033.42L1040.55 121.192ZM881.376 121.192H1038.62L1031.49 155.997H888.506L881.376 121.192ZM722.287 121.192H879.453L886.583 155.997H743.688L722.287 121.192ZM563.297 121.192H720.074L741.476 155.997H598.97L563.297 121.192ZM404.402 121.192H560.596L596.269 155.997H454.358L404.402 121.192ZM245.498 121.192H401.102L451.058 155.997H309.726L245.498 121.192ZM86.6761 121.192H241.537L305.765 155.997H165.164L86.6761 121.192ZM-72.1996 121.192H82.02L160.507 155.997H20.5594L-72.1996 121.192ZM20.2184 157.885H-118.231L-34.8549 184.997H92.4772L20.2184 157.885ZM25.5918 157.885H164.766L225.907 184.997H97.8506L25.5918 157.885ZM169.422 157.885L230.563 184.997H359.282L309.249 157.885H169.422ZM313.21 157.885L363.243 184.997H492.683L453.768 157.885H313.21ZM457.069 157.885L495.984 184.997H625.994L598.205 157.885H457.069ZM600.905 157.885L628.694 184.997H759.309L742.637 157.885H600.905ZM744.85 157.885L761.521 184.997H892.525L886.97 157.885H744.85ZM888.893 157.885L894.448 184.997H1025.55L1031.11 157.885H888.893ZM1033.03 157.885L1027.48 184.997H1158.48L1175.15 157.885H1033.03ZM1177.36 157.885L1160.69 184.997H1291.31L1319.09 157.885H1177.36ZM1321.8 157.885L1294.01 184.997H1424.08L1462.98 157.885H1321.8ZM1466.28 157.885L1427.38 184.997H1556.76L1606.79 157.885H1466.28ZM1610.75 157.885L1560.72 184.997H1689.48L1750.63 157.885H1610.75ZM1755.29 157.885L1694.14 184.997H1822.15L1894.41 157.885H1755.29ZM1899.78 157.885L1827.52 184.997H1954.85L2038.23 157.885H1899.78ZM-29.0481 186.886H97.5096L156.471 209.009H38.9852L-29.0481 186.886ZM1822.49 186.886H1949.05L1774.97 243.494C1774.98 243.437 1774.98 243.379 1774.98 243.319C1774.98 242.798 1774.56 242.375 1774.04 242.375H1674.6L1708.63 229.607H1784.68C1785.2 229.607 1785.62 229.184 1785.62 228.663C1785.62 228.142 1785.2 227.719 1784.68 227.719H1713.66L1758.5 210.897H1872.36C1872.88 210.897 1873.3 210.474 1873.3 209.953C1873.3 209.431 1872.88 209.009 1872.36 209.009H1763.53L1822.49 186.886ZM1689.88 186.886H1817.12L1758.16 209.009H1639.98L1689.88 186.886ZM1557.23 186.886H1685.22L1635.32 209.009H1516.41L1557.23 186.886ZM1424.67 186.886H1553.27L1512.45 209.009H1392.92L1424.67 186.886ZM1292.07 186.886H1421.37L1389.62 209.009H1269.4L1292.07 186.886ZM1159.53 186.886H1289.37L1266.69 209.009H1145.93L1159.53 186.886ZM1027.09 186.886H1157.32L1143.71 209.009H1022.56L1027.09 186.886ZM894.834 186.886H1025.17L1020.63 209.009H899.366L894.834 186.886ZM762.682 186.886H892.911L897.444 209.009H776.286L762.682 186.886ZM630.63 186.886H760.47L774.073 209.009H653.305L630.63 186.886ZM498.694 186.886H627.929L650.604 209.009H530.448L498.694 186.886ZM366.728 186.886H495.394L527.148 209.009H407.553L366.728 186.886ZM234.821 186.886H362.766L403.592 209.009H284.711L234.821 186.886ZM102.883 186.886H230.165L280.055 209.009H161.845L102.883 186.886ZM161.504 210.897H44.7919L141.593 242.375H245.398L211.369 229.607H120.415C119.895 229.607 119.473 229.184 119.473 228.663C119.473 228.142 119.895 227.719 120.415 227.719H206.337L161.504 210.897ZM166.877 210.897H284.313L322.249 227.719H211.71L166.877 210.897ZM288.97 210.897L326.905 227.719H438.12L407.077 210.897H288.97ZM411.038 210.897L442.081 227.719H554.003L529.858 210.897H411.038ZM533.159 210.897L557.304 227.719H669.781L652.54 210.897H533.159ZM655.24 210.897L672.482 227.719H785.579L775.235 210.897H655.24ZM777.447 210.897L787.791 227.719H901.277L897.83 210.897H777.447ZM899.753 210.897L903.199 227.719H1016.8L1020.25 210.897H899.753ZM1022.17 210.897L1018.72 227.719H1132.21L1142.55 210.897H1022.17ZM1144.77 210.897L1134.42 227.719H1247.52L1264.76 210.897H1144.77ZM1267.46 210.897L1250.22 227.719H1362.77L1386.91 210.897H1267.46ZM1390.21 210.897L1366.07 227.719H1477.92L1508.96 210.897H1390.21ZM1512.92 210.897L1481.88 227.719H1593.12L1631.07 210.897H1512.92ZM1635.72 210.897L1597.78 227.719H1708.29L1753.12 210.897H1635.72ZM263.38 281.978L234.665 272.64H326.059L350.946 281.978H263.38ZM228.858 270.752H321.026L288.66 258.608H191.511L228.858 270.752ZM356.319 281.978L331.432 272.64H423.551L444.609 281.978H356.319ZM326.4 270.752H419.293L391.906 258.608H294.033L326.4 270.752ZM449.265 281.978L428.207 272.64H521.016L538.249 281.978H449.265ZM423.949 270.752H517.532L495.121 258.608H396.562L423.949 270.752ZM542.21 281.978L524.978 272.64H618.48L631.883 281.978H542.21ZM521.493 270.752H615.77L598.339 258.608H499.082L521.493 270.752ZM635.184 281.978L621.781 272.64H715.824L725.395 281.978H635.184ZM619.071 270.752H713.889L701.441 258.608H601.639L619.071 270.752ZM728.096 281.978L718.525 272.64H813.201L818.943 281.978H728.096ZM716.589 270.752H812.04L804.572 258.608H704.142L716.589 270.752ZM821.156 281.978L815.414 272.64H910.479L912.392 281.978H821.156ZM814.253 270.752H910.092L907.604 258.608H806.785L814.253 270.752ZM914.315 281.978L912.402 272.64H1007.6L1005.68 281.978H914.315ZM912.015 270.752H1007.98L1010.47 258.608H909.527L912.015 270.752ZM1007.61 281.978L1009.52 272.64H1104.59L1098.84 281.978H1007.61ZM1009.91 270.752H1105.75L1113.21 258.608H1012.4L1009.91 270.752ZM1101.06 281.978L1106.8 272.64H1201.48L1191.9 281.978H1101.06ZM1107.96 270.752H1203.41L1215.86 258.608H1115.43L1107.96 270.752ZM1194.61 281.978L1204.18 272.64H1298.31L1284.91 281.978H1194.61ZM1206.11 270.752H1301.02L1318.45 258.608H1218.56L1206.11 270.752ZM1288.21 281.978L1301.61 272.64H1395.02L1377.79 281.978H1288.21ZM1304.32 270.752H1398.51L1420.92 258.608H1321.75L1304.32 270.752ZM1381.75 281.978L1398.98 272.64H1491.81L1470.75 281.978H1381.75ZM1402.47 270.752H1496.07L1523.46 258.608H1424.88L1402.47 270.752ZM1475.4 281.978L1496.46 272.64H1588.57L1563.68 281.978H1475.4ZM1500.72 270.752H1593.6L1625.97 258.608H1528.11L1500.72 270.752ZM1569.05 281.978L1593.94 272.64H1685.34L1656.62 281.978H1569.05ZM1598.97 270.752H1691.14L1728.49 258.608H1631.34L1598.97 270.752ZM1734.3 256.719L1772.6 244.263H1669.57L1636.37 256.719H1734.3ZM1631 256.719L1664.2 244.263H1560.47L1532.37 256.719H1631ZM1527.72 256.719L1555.81 244.263H1451.35L1428.36 256.719H1527.72ZM1424.4 256.719L1447.39 244.263H1342.33L1324.46 256.719H1424.4ZM1321.16 256.719L1339.03 244.263H1233.26L1220.49 256.719H1321.16ZM1217.79 256.719L1230.56 244.263H1124.25L1116.59 256.719H1217.79ZM1114.38 256.719L1122.04 244.263H1015.33L1012.78 256.719H1114.38ZM1010.86 256.719L1013.41 244.263H906.589L909.141 256.719H1010.86ZM907.218 256.719L904.666 244.263H797.965L805.624 256.719H907.218ZM803.411 256.719L795.752 244.263H689.439L702.206 256.719H803.411ZM699.506 256.719L686.739 244.263H581.05L598.929 256.719H699.506ZM595.628 256.719L577.75 244.263H472.612L495.597 256.719H595.628ZM491.636 256.719L468.65 244.263H364.214L392.304 256.719H491.636ZM387.647 256.719L359.558 244.263H255.804L289.001 256.719H387.647ZM283.627 256.719L250.43 244.263H147.4L185.705 256.719H283.627ZM250.771 242.375H355.3L326.507 229.607H216.743L250.771 242.375ZM359.956 242.375H465.166L441.604 229.607H331.163L359.956 242.375ZM469.127 242.375H575.04L556.714 229.607H445.565L469.127 242.375ZM578.34 242.375H684.804L671.717 229.607H560.014L578.34 242.375ZM687.504 242.375H794.591L786.74 229.607H674.418L687.504 242.375ZM796.803 242.375H904.279L901.663 229.607H788.952L796.803 242.375ZM906.202 242.375H1013.8L1016.41 229.607H903.586L906.202 242.375ZM1015.72 242.375H1123.2L1131.05 229.607H1018.34L1015.72 242.375ZM1125.41 242.375H1232.5L1245.58 229.607H1133.26L1125.41 242.375ZM1235.2 242.375H1341.74L1360.06 229.607H1248.28L1235.2 242.375ZM1345.04 242.375H1450.87L1474.43 229.607H1363.36L1345.04 242.375ZM1454.83 242.375H1560.07L1588.87 229.607H1478.4L1454.83 242.375ZM1564.73 242.375H1669.23L1703.26 229.607H1593.52L1564.73 242.375ZM371.423 317.112L354.534 311.62H429.945L444.582 317.112H371.423ZM348.727 309.731H424.912L409.999 304.136H331.519L348.727 309.731ZM449.955 317.112L435.318 311.62H511.453L523.838 317.112H449.955ZM430.286 309.731H507.195L494.576 304.136H415.372L430.286 309.731ZM528.494 317.112L516.109 311.62H592.948L603.083 317.112H528.494ZM511.851 309.731H589.464L579.138 304.136H499.232L511.851 309.731ZM607.044 317.112L596.909 311.62H674.429L682.311 317.112H607.044ZM593.425 309.731H671.718L663.687 304.136H583.099L593.425 309.731ZM685.612 317.112L677.729 311.62H755.776L761.405 317.112H685.612ZM675.019 309.731H753.841L748.105 304.136H666.987L675.019 309.731ZM764.106 317.112L758.477 311.62H837.17L840.547 317.112H764.106ZM756.541 309.731H836.009L832.568 304.136H750.806L756.541 309.731ZM842.76 317.112L839.383 311.62H918.464L919.59 317.112H842.76ZM838.222 309.731H918.078L916.931 304.136H834.781L838.222 309.731ZM921.513 317.112L920.387 311.62H999.612L998.487 317.112H921.513ZM920.001 309.731H999.999L1001.15 304.136H918.854L920.001 309.731ZM1000.41 317.112L1001.54 311.62H1080.62L1077.24 317.112H1000.41ZM1001.92 309.731H1081.78L1085.22 304.136H1003.07L1001.92 309.731ZM1079.45 317.112L1082.83 311.62H1161.52L1155.89 317.112H1079.45ZM1083.99 309.731H1163.46L1169.19 304.136H1087.43L1083.99 309.731ZM1158.59 317.112L1164.22 311.62H1242.37L1234.49 317.112H1158.59ZM1166.16 309.731H1245.08L1253.11 304.136H1171.89L1166.16 309.731ZM1237.79 317.112L1245.67 311.62H1323.09L1312.96 317.112H1237.79ZM1248.38 309.731H1326.57L1336.9 304.136H1256.41L1248.38 309.731ZM1316.92 317.112L1327.05 311.62H1403.89L1391.51 317.112H1316.92ZM1330.54 309.731H1408.15L1420.77 304.136H1340.86L1330.54 309.731ZM1396.16 317.112L1408.55 311.62H1484.68L1470.04 317.112H1396.16ZM1412.81 309.731H1489.71L1504.63 304.136H1425.43L1412.81 309.731ZM1475.42 317.112L1490.06 311.62H1565.47L1548.58 317.112H1475.42ZM1495.09 309.731H1571.27L1588.48 304.136H1510L1495.09 309.731ZM1594.29 302.247L1622.04 293.222H1539.09L1515.03 302.247H1594.29ZM1509.66 302.247L1533.72 293.222H1450.04L1429.69 302.247H1509.66ZM1425.03 302.247L1445.39 293.222H1361L1344.35 302.247H1425.03ZM1340.39 302.247L1357.04 293.222H1272.07L1259.12 302.247H1340.39ZM1255.82 302.247L1268.77 293.222H1183.08L1173.83 302.247H1255.82ZM1171.13 302.247L1180.38 293.222H1094.14L1088.59 302.247H1171.13ZM1086.38 302.247L1091.93 293.222H1005.3L1003.46 302.247H1086.38ZM1001.53 302.247L1003.38 293.222H916.618L918.468 302.247H1001.53ZM916.545 302.247L914.696 293.222H828.07L833.62 302.247H916.545ZM831.407 302.247L825.857 293.222H739.62L748.871 302.247H831.407ZM746.17 302.247L736.919 293.222H651.322L664.277 302.247H746.17ZM660.976 302.247L648.021 293.222H562.958L579.614 302.247H660.976ZM575.653 302.247L558.997 293.222H474.62L494.974 302.247H575.653ZM490.318 302.247L469.964 293.222H386.285L410.34 302.247H490.318ZM404.966 302.247L380.911 293.222H297.956L325.713 302.247H404.966ZM292.15 291.333H375.879L355.978 283.866H269.187L292.15 291.333ZM381.252 291.333H465.706L448.867 283.866H361.352L381.252 291.333ZM470.362 291.333H555.512L541.733 283.866H453.523L470.362 291.333ZM559.474 291.333H645.311L634.594 283.866H545.694L559.474 291.333ZM648.612 291.333H734.984L727.33 283.866H637.894L648.612 291.333ZM737.684 291.333H824.696L820.104 283.866H730.031L737.684 291.333ZM826.908 291.333H914.309L912.779 283.866H822.317L826.908 291.333ZM916.232 291.333H1003.77L1005.3 283.866H914.702L916.232 291.333ZM1005.69 291.333H1093.09L1097.68 283.866H1007.22L1005.69 291.333ZM1095.3 291.333H1182.32L1189.97 283.866H1099.9L1095.3 291.333ZM1185.02 291.333H1271.48L1282.2 283.866H1192.67L1185.02 291.333ZM1274.78 291.333H1360.53L1374.31 283.866H1285.5L1274.78 291.333ZM1364.49 291.333H1449.65L1466.49 283.866H1378.27L1364.49 291.333ZM1454.3 291.333H1538.75L1558.65 283.866H1471.14L1454.3 291.333ZM1544.12 291.333H1627.85L1650.81 283.866H1564.02L1544.12 291.333Z" fill="url(#paint0_radial_324_4415)"/>
<defs>
<radialGradient id="paint0_radial_324_4415" cx="0" cy="0" r="1" gradientUnits="userSpaceOnUse" gradientTransform="translate(960.09 158.028) rotate(-90) scale(160.028 1007.73)">
<stop stop-color="#D1D7DF"/>
<stop offset="1" stop-color="#D1D7DF" stop-opacity="0"/>
</radialGradient>
</defs>
</svg>
